<mxfile host="app.diagrams.net" modified="2023-10-24T16:22:11.451Z" agent="Mozilla/5.0 (Windows NT 10.0; Win64; x64) AppleWebKit/537.36 (KHTML, like Gecko) Chrome/118.0.0.0 Safari/537.36 Edg/118.0.2088.61" etag="K_dB-4R5R3aSGV_o84aX" version="21.6.9" type="github">
  <diagram name="Trang-1" id="7Jfjg6oZiSNg-VMkFHtS">
    <mxGraphModel dx="1050" dy="558" grid="1" gridSize="10" guides="1" tooltips="1" connect="1" arrows="1" fold="1" page="1" pageScale="1" pageWidth="827" pageHeight="1169" math="0" shadow="0">
      <root>
        <mxCell id="0" />
        <mxCell id="1" parent="0" />
        <mxCell id="dSJURNV7snEgY9DXJnQw-1" value="" style="image;aspect=fixed;perimeter=ellipsePerimeter;html=1;align=center;shadow=0;dashed=0;spacingTop=3;image=img/lib/active_directory/databases.svg;" vertex="1" parent="1">
          <mxGeometry x="370" y="90" width="50" height="49" as="geometry" />
        </mxCell>
        <mxCell id="dSJURNV7snEgY9DXJnQw-10" value="" style="edgeStyle=orthogonalEdgeStyle;rounded=0;orthogonalLoop=1;jettySize=auto;html=1;startArrow=classic;startFill=1;" edge="1" parent="1" source="dSJURNV7snEgY9DXJnQw-2" target="dSJURNV7snEgY9DXJnQw-1">
          <mxGeometry relative="1" as="geometry">
            <Array as="points">
              <mxPoint x="395" y="190" />
              <mxPoint x="395" y="190" />
            </Array>
          </mxGeometry>
        </mxCell>
        <mxCell id="dSJURNV7snEgY9DXJnQw-11" style="edgeStyle=orthogonalEdgeStyle;rounded=0;orthogonalLoop=1;jettySize=auto;html=1;entryX=0;entryY=0.5;entryDx=0;entryDy=0;startArrow=classic;startFill=1;" edge="1" parent="1" source="dSJURNV7snEgY9DXJnQw-2" target="dSJURNV7snEgY9DXJnQw-4">
          <mxGeometry relative="1" as="geometry" />
        </mxCell>
        <mxCell id="dSJURNV7snEgY9DXJnQw-12" style="edgeStyle=orthogonalEdgeStyle;rounded=0;orthogonalLoop=1;jettySize=auto;html=1;entryX=1;entryY=0.5;entryDx=0;entryDy=0;startArrow=classic;startFill=1;" edge="1" parent="1" source="dSJURNV7snEgY9DXJnQw-2" target="dSJURNV7snEgY9DXJnQw-8">
          <mxGeometry relative="1" as="geometry">
            <mxPoint x="250" y="260" as="targetPoint" />
            <Array as="points">
              <mxPoint x="240" y="255" />
              <mxPoint x="240" y="260" />
            </Array>
          </mxGeometry>
        </mxCell>
        <mxCell id="dSJURNV7snEgY9DXJnQw-2" value="" style="image;aspect=fixed;perimeter=ellipsePerimeter;html=1;align=center;shadow=0;dashed=0;spacingTop=3;image=img/lib/active_directory/web_server.svg;" vertex="1" parent="1">
          <mxGeometry x="370" y="215" width="64" height="80" as="geometry" />
        </mxCell>
        <mxCell id="dSJURNV7snEgY9DXJnQw-4" value="" style="image;aspect=fixed;perimeter=ellipsePerimeter;html=1;align=center;shadow=0;dashed=0;spacingTop=3;image=img/lib/active_directory/vista_terminal.svg;" vertex="1" parent="1">
          <mxGeometry x="560" y="220" width="45.5" height="70" as="geometry" />
        </mxCell>
        <mxCell id="dSJURNV7snEgY9DXJnQw-8" value="" style="shape=image;verticalLabelPosition=bottom;labelBackgroundColor=default;verticalAlign=top;aspect=fixed;imageAspect=0;image=data:image/png,iVBORw0KGgoAAAANSUhEUgAAAJgAAAD9CAYAAABA+77IAAAAAXNSR0IArs4c6QAAAARnQU1BAACxjwv8YQUAAAAJcEhZcwAADsMAAA7DAcdvqGQAAP+lSURBVHherL0FnGfFlf592t3dxt19GNzdAnEI8RBbjf5jm80m2chGN8QDAUIgAUIIMjjMIAOMu0tPd0+7u7/P99TvzjSSbHY/b/Xcufd3b92qU6eeOlJ24/r7+8cVbGKIi4uLXYXA8ze797fC6+PHx8fbyMiIn6NAnCidien5u+OKRxK6HcUbHRu1hPiEEEnh1DuvzYuXJuZPvIl5EaLfHCOjIzY+Fp6NjY14PoTx8TE943rMRkfG9Gxcx5jf570x4kXn8AIJxy51X2fy4U4otegY1684/dJzp8FjBTpir3oI9OsgzVj5orSiOyTFFfehKxZN5J4qf3T29MX72Cv+X3x8eEa5/F4sbhT8Vrj04BxyejjHous/ePeaZwqhPKINgEEcP6KbBIDAb0J0nkgsIfodhej9ielMDBOfEybGee27VEB4FneSCapkVXZiQqL/jkKU1muCXqEqXptmrBJiIbo/JrCMjoz6M9gEwKJ4o6PD3ij8/ijPOALAIB1gUmVioDM5PuFU4xnztMM9r1ZdA9QQQjwvp406HX6orHGK5iXWf1HaoVH6XQ9xlgBFNqbIEQ+j8nGOJ41Y+aKye7wYLwkn7ylE771ZmHg/SosAnfyeGN4sHQdY7PqvholETkx0YoYeHBShoM7sWFTJHsUjrhijd06moXep1kQxOroXpXkybd0ej6XracedagwTQ8TUqJBRHPKeGE4yQZIQ8IyNC1yjSKdYRSv6qIDDbwANAcRB8iDFRl16kQbQ0Dkqiv6QfJ62/9bxWhJPhhBH5VOFKykF0gSMajzKh/RJIeRDWeAP9wBbks4ATu/HyuK8EgOivGkYCQmS9PAtds/LpnQiDRLF9QDvossJtwmUIZ48dO00wugJwe8jATn780CP/vn5/1+AwZRYZoFi/uM38YjPvdeG8DYFiB6Gd7z1e37cE4M56T9abiTaJyYXH+MMEonKjmh1YRijE+BQWSMCFgSNClhUXFCRAhnvSjXzPJJkXl6BWtm6pANglAXO0zj4R37E87ix4DTo77VBcWL8oWzxAgFAJj3Ul2OIOE5vAJGnKZpCHJ4HE8Hrgxd0P8Q/lfdr0zgVdMff4x3yj0Kg89Tv8dgz/9+TjaUNLboZS8LPPJkIMOe7+MZD//3/J8AmPpsYJsaj0k4FgUX/j4/pGaDxOFEeOvjNpRjlla2DBvhmtIRKCBIsMCE8p/BBUuiaP90bHh4O93lNlRQkVgAYKSK5IjrHJb2ifMYBpKfBM+7pELBJCdoASbjPKZQlChNJ5QeV7w3FJTLliyQt6YsdMUkT8g7p+P/wBOXpZ96N8YFGEAv+TPdopCFe7N6EwO/oDvmfBKPoHoveCSXzawL5hHR09jz98mQ4yafYmRA3MDDgv6KbJDAxAuFUwhOColCABKlCKkTt0SuSB8RHCiCmk5KS3G7ydCUVQuUQLwYEnsUoHUdN6TbvR3mipUiH+3GIfTESlUYFRMAJ50Af0oj0eA5gvBL0NzQ85KCJwOMMAnSKw+FqUmcklINNzzzehIoDYAF40bMAqCAJw73ERKQS/ItA8NoARLGhcB6QIqQP/dh4CYmnVLzzAxL128vqdhc8QpVSXkWBfzHJhTQcH0dC865ogHGxAG2kgakRL9MAMIff8DhejhPpBb4kJiaLz0jTQAOS2usOYhQoG3VOiOooOkf3wgFtKh8SbGICr00sFDZ6OQo8j/dWFwrIX/D6SDjYIW1tbVZbW+vn3p5eGxsattTUZEtPT7ehoYEACjFkCHWl18dGhiwvN8vKy8oFBjFKtkaCwEdegFeJmmi1+MRES0tNc8AEsAaak5JTuHIwuioTcdgirgp08MczgO+AEBATE0kXiaXfMBjaYw0FBQjoKDkVCpERb8Zkizm4RHei6OFiaGjIK5k8ElR5g5KSVMaI0qBCQrzQWEZEH3HgG7ZqgtIaHiF+ACjs50xjIC7vci8pKdnL5PwXjdQB5XLaICdUCP/c2w5gSHLbMDExyX87N2NxkLgAjd/w0utZdjKHg574lDeWLgE6ACSB5/5K7Fn0mzMBGt8gwaLw+t9RIgSAER8nwtXqRJ8zKqgKMU6V9tSTT9ntt99uR44e8YImqfSDvf3W091pWdlZiqPMlV6oyBErLiyyrIxUKy0ptETFP3L0mCWlZnjhAdnQkMCgMxImMTnJkgWmwPwgJaEgKTlZ8QOAAo2iRkBISkkR7QF0SXqXlg2NXhlIK4FqWM8AP2kSsrNzvIL7+/qV3pClpacpDTkjSSJczBsZCmnFWaJoSbSUlGTr7u52PqSlpVuKaBlR+l3dXdbb2+dSPEV0FBQUWGpKmp2ob7SBgT6/V1ZW6g2mt6/Henq6nc95eXkOqt7eXmtpabH8vHwBMckyMjJUeaOK10WR5RzFWWZahmVmiadqBDyDR/CNmqaxbHx1k+3ds8+Kikvc3enp6XF6MAvSlR40oIngF0dqarpNnTbdzjrrLCuvrPRno5JmpAttODsBC0HK804w7APPuY4ARrSTACPwIpEI0fn190LisSCpRUt3SaKMh4d67fY777Dvfvd7NnvObFu1apVNqqiw9vY2e/aJp5yBw6ODkmJpLh2SVGGtrc126aWX2WWXXGh/eeA+27ltu/UPDKkRJQczRnmOqYCAB5DohksnWi+ASBAQRiTxaMiuOiURXPKITq5VZNlcQ3pO4YOBDHNHBax4GEErU1yPr4oBd0i0EVWW97spjf5BSU69NzI4rHioe9Sf8ncwC3gCf2pKqr8zJMk1okMRbFR5pqamOr0jklA52dkuhbq7+1xqwc/BgQGXZi5JBHy8QcCPZ52ouEODg5YoAJNGpMZTk1NdYsWpgQ9LclIlY2r0LoWUzrDSRZUmia5ZM2Zac1Oz9QN0GqbiOL8USAuwjSg+4C0oLHCNM6znqalJduO7brCr33KdDSutePE5Pl6SlDpQfhFoANNEUAWwUWcBKw4wLrgZASn6PfFMOKUyuSafCGBIkiTbtX2rveXaa+zs8863y6643MrLy1SvY9bX3SOp9qRt3rxZBIyLwV1qOal6z6ytvdXOP+8cu/76a+2hB/5kRw4dFOg6LTUtW/mIJvIVI7FZEqQ2h6VqHTgxWgEdlYNNhfcT3Xcx7rRCI/dohTEbhX+6RUUCJll+J99TaZ17/obiorp4ROVhg3lXi8quf15BSKuxGNP9JU4wVzSiJuNQr7qPJCWPoaFB5xsvxKnhQA7qGkmI1AM4gTiALrqUlqtI/Sm2S/1gnkAB5VRUNRZ/Aami85jTKCAJfFdefqW1Nbfaxk2bLF3SFTppAPBFbHPgZGRl25y58yUQVgto6dYhgbB3z27b8OKLdsXll9k//8s/WVdfn96lG4X8RBs0TggTAUY4+TsCESECEiG6/+bP+a3DMwHBqkQVaGhwwKZMnmTXXHO1RH+Z3huztpZma26sVwvqsZQkFVyVlCR7YBBpoL8EdD5nSZceFQJxnJBIS1PrRA0CALJS6xn1ioPZNF+Ao1butpeuqRlo1Zn3hqQeh4fpy6Lli0owMC7po0M40z2kEGpV0mFE741RKUhDMW8MqSfpMsiLMBV7hrR1jbpVfkre6RoQ4GnhYIy8oRO1Hq94nFUa5RNvQwODNqi4IkfADMcoUl83SGtYiSVQxpFIJYUyxQlcQzQExUfuYCXi5Y0LWfHYVRj0ThMH9IX8oXNM6bd1dNlQLA/OAzI3RpXuKEDT2SQYps2YZR+++WN28WWX27IVq+3c8y6yt73t3fbJT/yDPb/uWfvRf/2nNRw/Yu3NjQ54kUK1v2kAKxMP5fDamxNDBKg3O4P+kMupdxPVWi+5+EJbsXKZZcsuSFXlV1SU2rSpk6zxhAz+5mbram939UCNjFLY4TEryM23XB20Ua8EASTRpZKYiYTSfWqGShoZHLJBGftcj6olDknFEN9pF6Bp0ZxBFKrQA4/0F9SsnsUqndJQJBoCKmxQ6gi1Nxw7Y68NKz9afCKA8fj6X+nR7yalEdKhsiPJorS4F4x95aMKQcqidqAdSTtCHlLbg8PQjpSDSAEAdae0x8STUTUO3nV1D/16z58pLafb/1dh9fK4myrQkqRzrIzwTqfEpBQb1O9hQEphRdeY6BslUxqAvMYLLr7U+kTb0WPHXWIfOXbUVWVZWbFVlBXYQw/+wV5Yt9Zqqg+I7n5hUu+SfSycVIc6HICiM8JK/OtB9T8FfzGWeABaSJhzalqywLXEJlVV2uJFi120tzS3WF1dnZ04UefMoqJHBCLvSI1VTJZENIZ0Xm5uTLTGBTtGlz72qEoDBJF7jM3jatHz5R6qJagSSpcoJobxRGwBvUvXhn5T+RjqVD5qhd9UNnGIH8R7aCykQ4Vyixywk3hvDEDoN8HT1vsJikeevJ8EDUoD2pDqnofK4nGVJvmMjgm0Smd0dCiUSfSNjGO3SWorPcBNvAEBHRsMtQqdpOv5wjuljwkR8YCKJUSjHvDL44l/Dk5Xb8rLD+7JRUnOEFjSrLml3datf8EaZKv1qsHmFmZbe1ez8u2xjPQkO23VIsvLTndHTCUIacdApaRj+YY6iv08Gd4AMH5PPP5mUFmUhx+48n3yjFpam2Rzdctj7LJ0eUc7tu+0Pz3wgMolQGAoChyBDCSJrugHUotA7A9L4tA6RL6Yg2UECILxChORSIl6niyjNzkpVZWZLOM6xb24hMhOUTpUJlKEfBhaIg+QolvKQ0Y4acYqJDApGOoACFspTXYIRm9WZqaYmmnZmVmeh9uEStsxrdS97Co3IAx9eIBDUihRDWSMRoRtShdKoujGaAekOmRYJ8sGTZb9lqqGBU+gA0mYmJLkRj3l4b1kGdvknZaa4p6rcgr5iWZvNMrTRyJidXWq3sJv8oMfBBoMIxX6Xw1FSkFSsqy8wmrrG6ykrMLqG5vtpQ0v6dmIHK1up5cyJyOxVAc5OTkxTxYeBL5F+Tr9MOR1wVn1tyJFiUREEqLKIVOoxvCkPKiWfrnb7W3N1iq7q7ez066X0T910hQb6h+S1lJaGBNKK/Tt6F2l5baHzn1qPTCNxPTEQQU9kEffGICh38y7E6hs3ZE8EHgD3bRWl06UQf9owV4eGRxKyRlMgRlOC10k+uNdVCd5oLalToLKjYEcr05/AJa3sQGxDxEUegUqeeo/UJ/xkhSwinOQJuQsUOlvXPZVnEgX3CT14mSTpuqJQKU/DH6XzPpLlm3lNCqOp6drVanOAobOI4qLasT+ctUo/gnugS5+k4688BDfJJX6vbxeTyoGoEGCou5uvvlDAlO/paSlupffI+GAcf/i+udJSU7ViNXXt0jNmsCeId6o2UsTIcE4IuxEvyfix+skdu0Ro8hRiO5xRC+G36fQq3/OQFHvIHjowYft0L59tn/3dhvs67Au6fLK0jIrKSz0/p4U2WUwjfRS1JLhQIrENIzNVQsZEYCUqjON3mTA7MCR9KMCMWBx2aEGRoWKheGATPxDjQEOp1a/1WJdhYjQqJFEtCfKwAU4pIdj4LaSbBBPX2mPIpHUmpWy3kVN0lmJRHTMunHtToinyw3SDh2i3umqRkTekT0WVDM0CUyUBZr1258xiO1lobKQ3iGQnzsYUKF4UeB3kOyhLkgbGoK6hF7ZiCof+YVuE7hKuaF1zNIkKevr6+yPf/iDHLBu+/2dd1jDiXqbNmmy7K3nLTM13epq6pRiou3cc1iNH94EqlwVKmEOKAlCIYTofnS4FzkRPBND8IB00FIoJJx1Hc5TsBkKR4USUuT9bVi/0R649w/28vPr7NknHrMNL6yzgwf3ex5RRXOmTpKT0ySGBTgxTjiSVEtyZsfLRoAk7BCRqZQjgId8SMOHhKBdDMYeUWSvaPqivLV6zFMhKmN0DhJGtKNeJAV96Ehv8Zj0eEZcpCCVE7V6veH5kEqIG/ED6gKt9E3xngMPAJCO4jpsFB25Ox4PrcqbdKVKUeVihMdFEsUxyqDf5IGZ5rJKfKbXg64fDIBEJJKkLL+jez4cpzJxPabGkiTg4b1TTvjpeSouNuikikp7/tln7Njhw9bb1WXdne126OABal3SrNc2vLLJ6iS9unvldCEElB9lpGzwJwTRoCP8fi24vAF4FJXi9RVwMoEoHQLX/hh7iASUIbpF/0AxqiVejNu9a49t3rTFDuw/YGsfXSs7bId1qgAunYQkRCxSr6enT4bskKsn0WId8jCRZAGAtE54DIlkDLgCAKKOyUC3F8FbcAQrwEogXpAASKRQxpPlUlSuSC+8BfM46R2YwwMxlP40JFmwd0KfG3ZNoIv3lab+OAM27yLw++EZ6XIi32CYh9wgg9GCqBxRoLF65XghkA6hosiDwLMovg8rcU9/rta5VnxvsCoMpgemCL+dT3qNxsczFUlx6bRNscaGBusCXKqv9c+us872Tuts67Ijh49ZS1uHZWTliDdeGVKrNLIYTRGtsWuX7rHfLoV1HbgUCxML+vpw8pmXE+2M4QdzdPZnUE+hVTBJooHBUdu//6iM/g4RRSdpvHtF8A1wkTkek6erfxjEDgQxAKZw3585wcEuI7iu1z3iAljOQUUBMtSDCoe60xHFiwr++jCqFj4imwtQk5ViugTE2QjxkW1KG1pEF3RwP8rTuyUUB5BEeUzMl98wm/HEKP9gpwS2x275M8rKu/CJEPgdpD7xI35E6XAmLWiIJK576bHnAVC8E4RB1CDcGVIU7vf1DkgyoZ7jbKB/wFrlRbbK0B8YGLT29g7r6OqWKSCbMC1N5U9y3tDhjSlBXl5Wb3iB/6Fcp8pOnJCrQijQ6wJiO3bA6nAmMQpxihFhCEfBKRfC4pLdKCwuKbf8/EKXLrRsH09EXPm7Ce7a0w/EQDdgEadig9iBSaobVdYEqaPg12Tj9J4kX2oGIOmBDvrQFMEL6lLFW/Cp8pEGasnVq3474Dl7FNIXMICbzrzvLVLxsc+CuoylFWMs76ICRwRADgeF0iYeeYXyI604AxYKoBygQWfIxaHgPaQ7caNKI2889PAODTC852BHtftvvUt757enB31IbQDP5EPKwLAXPKGuGPyOlwebojLRIMKwHfH7ZPD39fZZjwAHoFDhjEhQLvhB43MUiD6XroBJZ8CGvXqKbhqXaAmeTjhAIL85w/SASB3ci51DXP2vU0iEC97TPZVyYGjUiuTyXnzF5fbej3zEPvKxj9qq01Zbdk6uwFbgr3uyTqSkhQDV3tbu3ovfVToQS+VgKIcWHPJ0m0wF4GfUcsE7hjztwDsldQ+6k6Q+6AYIkicwgDPB09bBr3AERrmSFVKSqC2lF3IlRvgh09AlF3FFvDPc8xONxOLsY4FiNC+ElkyZeHoqOI9dAwAk6BOw8DBjOTqQyE9/XgfOY55BN++Fa+om8B9VLoB4Q4nzxhoArlj6L1S6zvAH3iq+U6S0aMBDqrPklDSrnDLZcgsLfJQgNSPNx1F5N1lSL5MBf5HiacaKQ7kcZDpTRHd4dATpBgydQqJGBENs7Dcp6RwKfeqIfoN2/1PKAZDhfm5Bvl1y+eW2cOlSa+lowxDwUfvcvDzLF/GpcofpOPRW5nmY96AzG2Ggv9+lDRKISoxmmsIkWhqxyQnQ4VXyPn+R3RHAJUbGpBnxovFJABYFB4nOLlV0uL2l4O9zVoUnyWHhjNSlXDAmTG8JecJR3mewmHxcLSqOd5QqL4+naMQh+qmWzX/QpLKIZqedBiHPkzQiWgEIvABASDGvMMc1CQSAuJ2mf/A/VDRpikbxnB+8kyj6+iWNAB98TVY+2G5RSJG3WFhUaudfcJGdfe4Fdu6FF1rV1CneF8hgO6MugCtRaXKNbKAscIQAHX7mhrMFVITAdZAlEBc7PHDS4ff0R2FfG2DWhLgeVCD9fezjH7ULLrpQ6rHEklPT7ERjo52QEXns2DHr6Oi0TIGNQGU6OJV2skBH5eFF+vCO0nSgKH+vLIBA5eugJ54CYmwSjwrknqclBiBNaeXuJVIhFJjKVisMY5TDLmGQGGOM++GsKB5ShNas/5w+hm0Y3hnoHxJtVDSgj+WhADigjcZBXK45E6DP78XoDO8F+r3cMdWG+nIHQr+ZBKBHDhDKEGoMcvD+pCZ1H6B5peka8BH8N4BSCO9yUweJ6YIGAk8Df4KxzyM6aJOT6cRNtUnTZ1h8errNXrjQVp62xmbMnmUrVq20qVMnWVZmmrW1tlhvT4/eE+3YAkJSaC4hwGMlGI7XhUDZ6wLEnAy6fM1vgvIgsyCF9E+pcCCZlixbZtm5uZaemWWTp062CwW2K6+60o4eq7YueZJMZ3E1AkD0LinnKn5ubo4fUYsnfR9+4beCSyyFwKggxaKDCg0tOxBC/xZg5Zr3xmV7eJ3h49MSMXT1Dp27nib/6RFp0eL5AeioZGzH8TEqBXUd+sH0I5wnBKcJJiggQfv6+h108AiaOfg9Ejkm2JzKGfpOqpRYPNKKQgQkAvfdTIjFI/A7qqPAl0DbKd6QJ3QA0PAORj1//MzMzLTKqsmWk1dkx2pPWEJSis2ZPc8qKypsUmW5ZWem2/AQU4qoj+AgwOeIBkAPAX4/Rke4F64DR/6nEOg6GZwB1JUqH8PR+aHEsrKyJLmKLC09wypEIJMLj1Ufs5raGqn7OBe7THsG8T5Hi7RU4RlZmV6xHR0dXkkRkVzDYCqFe+SLXUWAiYrlf1QQDZ5e/vbOTuvQ0S5p2dndY20d7fJkW621rc3a2tut1Y826+jusja55u2dHW7EnpQCypNrVznc0H80hm55VH29MoD7BnX0+eza6MwkPq6ZINipvJmoyG+mFkXAIUSgDFKE/ABykECUDT4CGAeSpA7l5oAm5zmwiMUjcB0B0OnXfe65CozlyW/SIDAXDJBT/zQwpFJpWakVFhf5TOG2tg7rU3nOOfcsm1RV4Y4A03fSUpI9vk/zVn7OeyXCEalsp0sgDvQFXnod+tVfCaGiwzExuOrkkGfhv2PPmXTHuB1lLcjPtRGpjx99/wd2x+136ne+CJABjTqj1mhFApt3cyhQERQuGlfzyhDDotbg6lL3qOyodZIMDKNQtFx4nZKSJOmZ6aBNk+pNlYtNK40OGgFAT05LtqTUJDdm01J1LaIZc4NG8vA+JmU9yIwPVRC94tgkolr5BqM66lIIfU2h1jGMoQ2akGSoSmZqBKkCjdAKv3D5h3TNW3iOoayAiaJj/IfKCpIv4rHbhLofVTCA9L4zKhq2iglIb69kxaPhwlPXDIoADTzHps3KzraLLrnYTjtthV122fl29pmrrbKsxIYH+wWsNB8BSFOdwlNmvipD8WNQqWAMBXpI0+soEK1/oesC2gF/4ND/MkSgI92o4KC3TZLi8IEDzpQRidU0VeDpa9bYvHlzbfHShVaEhyIgCR4+DocRzXHiRL0TyeAyhihMYBgFyUQIYJIEg4c6U1kw3RnLb50pFNdMnWZw2AeKdabCOQBBNHU5Q/YG91gfwOzaFAGMQXbPR4G49KY7lvQbJwAJkSKApQuw/j6D7KkpSifF57ehlhkGw4hmEiIH+QV6Y/zSAUBJGiBQ6VQEwe0YBeXkccL9cPZ4Tlv4zROl5nyIpBtdETwI+XAGjHQFJboEC3gTeBVpSIBLl5apraux3JxMmzltig32dFtvZ5s9+djD9uCf77cNL70oKdzj+fiQV2KcJHS3eIMtKgKo+9hBxuA7lCHQHYpDaV4XIHDimRAxgTDxvl9i3HiI8+m/d915hzXWHRej422or9sWzp1t55x1up22eqWVq3X09/d5a5voQfX16J4AQwUyBz4Mf9AgaAmoTJgq4IkO8qdlQFNES6BPjFYlADb6b3xqsLhAHCqCA2Y5MD3/QHd0nwwZvjGMbVUWLRR7lhkgSFkGwVETXmidkxyQooqa47acBW8AesY9lxj6DTDdDtR7SGnyDiqE8ug+Elh/3oVA2vRpuTREYqsc5OkZkDYUA7KYBPcAaEOI1CVlJH7IR4FrP/O/wCiQxKt+OmUmNNTXWfXhw/aHO++0l9Y9K63T53P3BgZ6JeFyaAmWjBfp05wAV+AnXR2k5SRzTR0ov6CRQt24c0K+/9sQXOfoUIaUR4VPS0kX+h+2f//SF+yxB/9kHc3N8sJ6rauzy3Zs22GbNm50dYGE65VNQ+8xg9pIFRXZE8FWc8mkfDCqfbWzgut3Bm9VQP8dAz3M9AMiYoH3lZjiKh1F4xD3PQ3VKrBzJhFOVVS4DipyUBmIFlSZzpKXfp83PGVdu4QjiA4ASbeWoOsdkpxDCRQfKaxL+BTZWjwJHa7QI6CqUqgYAE3azOBg0JE4SEb3oEmLPBWPMWfo4P0AWOLSURri8B6q2IGmEM6AknyUpyLCr8KCAnvxxRfticcesyZ5+4xbYkJg5/b39FqPbMrW9g4XCinJqMpUG5VnHa0n4PCgM+V0W5i6A4Sxcp/i7utCVIETw8kEFbzVx0IECPRzumybvXv22M9uucVXFt177322du1jtnPHLp8mrZQlDUYtWWopJS3FEpPpmGTulOwQtXSYASBgFBIsYo5XgEQ7dHnLJp7i8NtBIgKwlSbSCCMBFfewl3iHdImB2Mc2IV+nXnHDm8qc9/iLgc8loD8F/FHJiQ+PAE4AA3SgkniX/AAl97zFK01eZBgrYjp5uxLhuffqg7d4pyvqCGbxB5aMslBcAVg2nZKlMpw/0bBaMBFoRzzkcaCSvCk3cbCZUXFIUuxMbLDn179gP/vZT23blq22c+cuO7jvgAASJ8eo3Xbt2mNHj1arXnlfKp0ZH6LFkw7FcaBHPIFHbg7omsJwVjkCQVGY+JvrQJheihH8mgpUiCQBAS+DjkYM4DYh/9ixah3Hrampyfpl8PNsUAxKkt0CIy+8+AJ769veKuO+TxUUJvv5bAgxlcqBEVCpsumabo1AD/doIW5XqbXRYlwixABBpU4kk/sREyI1iwpVRE+TMniHLHGVTjISVWe/r7i+ogY7CLUnKUD3BvGjdH3eGPE8/wB6fsNJ1F34HdLyMiiO3goSlnKNDgpIYXZEoCIQ75IAOnUXwKZKrSUlKd0xOTqK41LL048gq3f0quetfKAnApfzTcF5o3T9p+JlZGRaXm6+vOQu27J5q89sfeH5l+zwkWpraGxSnY1Zeka26BB/HephxIAEEATkf1JLkCfmQPRbz/7XU6ZDoOXxXoxpflZBVCkkzKRipuNWVE214rIKeW3yLJOl3kQAKoTrxJREO3rsiKRYslz7du9DoyM2WaIYDwemJiajDoa9/6xTRiiV5C1WhDPF2lunRLaPXwIyMQ8GRr3rBB+4jhUY+rCpYATlJwQbJwSvBD0mTy8PRhVlU1JDYyM2INU5qLxYh+hp6IjF0CGPUfYjnblBzQEB5asDmmFTJHXVhgQsxRG4hgY6bGyow3o6Tui6R1Un/kCH6KIxYNghmeP0Undni3W11QtoY7JX1RDkyGDvhbJGJVIQWN2zU+4hb/GJQX3Fw6sNz1T5ajDQxzrTvLwCq6ycbFk5Altvv3X3DYhnNCg1Iq8PXgn5RF0v0RE1ROdH7By8VjBGISaG1/18w28FiIpaDfYJd0hYtexu8dTp0+28iy+ysy+8yFaddrqlZbIETbZWqozFROl32V7tbR22detWu+f3d/s8dqbz0Nc0ODjiACEtB5RaaZo8t2x5PcTzpWCimYFnWnB+Qb6VlhR7PK8I0eKLNlzNiD4qFQYARjFqTOIeE8dbNuWgMLHg6lL3w0TBwCziDbHwQ+9+7/s/sCXLl9mN73uve6HMl3cvjlwVN3rHK0T5OeuUPioPmqlsN8RVcWQ7PDJgV19xvj3y57vst7/4bxuR1xYqE3AikfW6EhlPYCZvn1168dn2iZtvsOwMSdMxAYXGE6ORzJCLnmVM8qFRgD6gciWvx04jOcQaICptYEDlU0Z0sibKzkqVQEiRPU2dhZ57pQlv1OiYJIC+DjmFQFoRuKIjakxvkGATAefPYo+jFwmh/4d4ofXwCq0Nz2LWrDm+kHbmvHliTKKvp0NssubPpYXiM22HaTJF+cU2PjxmyQnJMviprOBVwVV0vrdOHXQDRK4/FFAFzGsfllRpbW2xjs4OqhgivYtizZrVlkk/DhWr+wANUMXDLBqvjrA3hS7EOPLwVs49RQGgQTUBGroTwiyQmbNm2sf/4ZP22BOPeweu90khOWO0JkZ9Y6LfXxdP4A/xOFO5bugj6ZWXmG9ZqUmWHD9qlaUFlqDfgf0Q68koXgDJ9OmT7XOf/aTd9J7r7EPvf5fPQGFAP14txEFDS/F3eYdL/SkNrxc993SRbM4ARfDI0DnuPfnnnHO+XXHtNbZs+QorLC617KwcS09Nl0DXu7BJdACwONEaJPtrw0QcRddeRr+aENz6nxhEBwQGBkXimBDiMU7n9wGFzpdffrlNnjpVej1Pv8etpKTQcrIyvE2OSr30CAypAkFuTpZLC/IDQDn6nSl7AD3Pwfz4EVWqL2OTGkQCjUhCQQ/vBWN12CUZ44EUidaIt4Mn1NnRFaQTwkQgdrtDB6BCSowNh0OoUvqhxx1R73O3lIlPQZJujNQBix062rts6+ZttmjhYh+jZE0m5QenYfq1+KRapdxUghv6ugd4AQH2mkubmNQnICVQS3GszyQvVJlXDGnBCV2L7kxJcOFSZkSbVZSVq2FK0gu4aBLqk1qJZuWqNvw3Wzb4tGwRyJYMPBlxXlA+JP2oe4YlpaW2YNECW7lypS1ZutQWLlxol1x6sc2aPUN1xVgm+24ASAA2Lh6pAUplw69IPUYhuqbczg//9VcCkakYeOHXsSPSK3rfn8EG0J2fn2trTj9d53y1iipbs2q1XXHZpfbe975HbnCDr49knaRKp4OChj6fzMw0mz9/vgq42np6+lVo5uhLpThw3Szya+ax40kyUDsgF5rlYrRgCt7f36M3Rq2lpckeeuDPqhRVlI5RvC7RTBp62w8hyoGWRJrKn3NoqQGEVEiSpBHMoW+OqcdDA/226eUN9tD991mBAEzn5PAw3SyiwbkIbwJjA78Cz6IK8MYBqXrsklx0Y/s89dwL9t8/u81u+dXtlqByMxpCg4W10Axvk+W91R2vtX17Dqv8qfbQw497pnQlwEekKI0BqU++qEPy8JkdOjOBMJgJOAYIBECPtE9x9d/f16vGPGy7d2234qJ827t7h3UJyDNURtZGtre3uBcbHB81DoibEBwXStuxoRAaVfid8MUvfOmrvBiByBkUCxEKYdLE+87QGMjwqmAIYOnt6bSpIqq0fLIYleZ9XY11td5tcbz6qC1YsMBmzZxthw8eDraIWna/DNszzjrdmfLs089aS2OLM76ttdnTLMjLdSDRR4OEHBjs9yVcAEP/INoHY30cUzeYpUoPNgDql7Ha3tbmrRjpOTw44GDpbG/3HX94va+nR616yKVgl9LwxbGqM/rofFGv4rMEj/e2bNpoXe1ttn3LZuvt7rTWtlZlM+xeME4HS/PhFVsjMEoQhm3ooAwVj8pmcxSX+gBM4KXyt2zbZQePHLeMrDwbUIPoEt9gN3P7+7p7vaztra32zNPP25NPvmCbJEWRhv190D3ki23obxwaHHbQAAJogsVz5863rdu2+ZQpB5fqGvsUrcTwF7ONS0pK7Oyzz7SHH/qLlRTn29uuu1b0p8ip6LCOtmY5Ya125plnKp4kp5rdkLQKs5YpkzcBpeME63oCTBwzcf19gzGkvHmIkDgRYNQAv8kAmYAYpx9n08Z1vkPO9BmLRfiI7ZIR/5cH7rWNqpjMnEwReY6Y32NPPfG09XWxQjjOmtua7BP/9EmJ41n221//xtpb2gUsVZIKd/FFF9n7JP1QiV0CAt5NSmame5XFhfmuxmAWzOxSuqgY7CXWS/bqt3tJUt1sKtLX22M1NdWuhgEBu95kZ2V7Cyc9PFscCAa0Udvl5RX+To6k8t49uySV89x7pBMyU+BhUJsB84zMLM/717+61bIymQ2S6HPbiEdfU2TsRrMmcILcQRE72WAkS2khHRlmilOlsZtOUWGRzZgxzVqbmxz8DE9hmzJUg9rNZCw1JUkqu8fyCkutS2XJEn/b2jvteE2tpcup6pCNmCGQXHnVtXbPPfdYUUGB23TQgdE/qPpZtmyl1Z9olIossU995jN28MA+Ky8tsvlzZtnRQwfshfXP2p5dW22vJNunPvd5mzVvsTsCzXLQsnNR62r0sWlRwekTDlA5seAA6+sNm5+8WYA5PHMJFeDqAUPR3xHF+ErYV7TI9c89rPOwnXfh1TYgCXH0wAEbFDBe3fyqHTx61MorKqytrUst8TlfI8hcpxYZ6RdcfLGtWrXc/nTf3TauFomNxA4wv/zNr61MHuJBpdPS3mGjanX0laGO2VCluLjYqWltbbOcvHxJiyT3QH1to9tQqKjAVLig4lquJCJOAYY3rd37cSTe2RsiPTO0cqQhkgbJhwTq6GrTs/QAaEmH4sJCn0EBOOFRenqm3X//A7Z+/QvKJ3QFIH3EJOcX/EOqYN8RpKw8bzpFUZ0oAwCG3ci47cc++hHxEdWKnTgiWy+MoUYAo7N1eGjQsnNk56ocDMKnyalREewb//kdW/fc876YQ4/s0suutNtvv8vy1FCggbl3SDoaY7oaW5ck5Jw5c62iqszNiyTRXCQeqU2KhlFrajphu7Ztts9/6Ss2e8ESqfEUa+/olsRmGy6clwhgDMLrQqWLggPsDRIM3KDTuVQEWnt0HUmyU1hDJAY7A3G87qm/2K9/+WP73Of+n1VWVFq3WhTqrVMtes/BA6q4blv/4stWXV0rdTXsjKIlt3f12KwZk62qrNCKsjNs2aIldv+fH7Yzzj3bLrzkfBuQjdAjo9qXc6lSMgUE1KCvalaluQniFTusgqf7M4BC5SE1UEU+TELTEK2UAVWB8Q1zcCgok4MNT0nPXa0pYbxJyXDva4vmpik3jw+QqHDSzsnJdQC7tPJ4AZxIWNSJ92npHoBkYiN5cOBduwOgRgFCoK9P5QVg3Pc1jcqPrZeQiCHvAL70tBSpyQGns7NLvFbl79i1177/ne9bVXm5VLKkX2au7u3zqVPMMsnOyZGElXkgmpHiiXqHXZBSlRbmwowpU+xEzXGVJ8OyszOtufmE7dm+w7793f+yWQsX2ZgARecrFqJ3iLsRStmCEIo8TK7dlnwzFfkaaTXhOoDrtdH5zaxMpuG8+NxjduPb32ZXXnGRrV69ysrk7tK31djUbG1SKRS+tr4ZX8RtMKTcdddcYxdceKF3qlbJARiUvu9X3F/98jdWJ/1/yy9/ZseOHHaVmyzbC1CmMwNWtFCx4jeEeeWzr1iyJJjfV5kR2kgqr0iBjQJzhmYGqyPphWwTa7w8quVQRh2oap/6onhIECQEFc5zWi/gRVLxG5vIvUYdbmYrMtfOM1qAkgdc0ECrdzAqZoL45nGUlnu5XAtAUb8e5Roa6vcykU9Q+3hveHSerL9LI2rr6rA/3vsnu/vO++xzn/5HmzV3mo8NH69tsjgB9HhtncqRbgM0FnmtTP5MlbqlF1+JuvmQrd+9Uv0FBTlWJO3RcKLGBvX705//vM2ct8AGlRcLe4JKDDyE5sBt/R9OTivhDQDzQiiWt1wVmN8wgOCMiL0YhdBPE1rt808/Zje//0abXFnhfTRsZtIvQ7ld7j2GaIpc7SG1XrVNVy/DfX32X9/+tq1ctdIrLEOtTCer2bPTvviZL1piVqp9/5Yf2b69u336D6KKbgBUHrSw2IMQAQoaMNZpUQzI0tGIey4qY+WID0DRfV/4KprookiQzYbtxPCRb+jm3QxKUPl5ySXt6P5gCAnjn7SwsThjv0XAiaQ99LjDIRB4P55AD7A5oik8BNKgggAi+YYN7gKvsXWQWEwngse8S38bwPPFunjTKhcLVLw7Q6qAiQF33HGX3XH7veLrV2zNmsVq1Lvt4kvfopaWap/53Bft0cefsNz8IqXH2LEcBHmPg5QJ3gJ+ZV+Ql2NlFWVSpQPy/ustLytd737eZsye5+AcjXmsMB2eU2p+B3wEDRCFGN4mBJ7pIDOvxNh54ksTQ2ixsdf039CgPKXkNOvvHpBqkxfUO+B6fmAQe8Ubilc8xuvwiCSOJBcucZek1ogKyVBLnFqjiiu1kC5CQu89zEVCMM+LQoUZCOSrBCVBcQRo8VSAajZIDVU4LZ0Kpa8NIDCbg+BdHnouvLurDj0Q6AsbYOAYZVYcRaAjGPur32epqlK8ozhMInTeCJCj8iYpFyMR7OdAf1OcDwfJIxUPRnSfNEf0jKk9vnWVpwmf+t0uQuo5+JUnfXeUcVBS2fc5k83KVqL98jpRzVGdAGJmBzMW6wBXdSBkkKK7dm623bu3Wf9gl9IcFu/i1YCjBhdopx8sTTak0EkL9YaeIvsTZ6OxscnNErZ2Sk5NtWHlBT+8QSsNGmzUqEI4JYwIXAv8p24QRLY/oFIicL0hoGdjB08dY7pGKjExje0pmYrLXhTpGVkSt0U+c6JXjAzMGpXnxDTkHp/iXFxU7F0PCbI7OuurbaS/Q95bqs2cO0sAAEi4EcFOEf9VqHCgaiggrZvgXmSMZiqK4MM/SAABAGU4xHiiVM6AjOTQ8SlpIMZhv0VzvkiPzl2fnSGgst0U0mW4T5WrCqYGR1Txg8y7J2/RApDQoXR2snyf1o8EAozk4/uDqdzkQQeyLpUn4KCDhu4MOS8q4yibXqi8AJjdb0iXcUsJLIUAALom4HuyKpr91VRZQEbvqzxc62G6VB2Latm9JzWDSQQqP/WlZ6j2oNKxVdVgBToaduhkjnezhgYRgpyotlb9T1MO6p33uU8IqhISsB/DvSg4hpzSCSEYuopIXMoqit4AMkrgEULBwnMqSuJWjGQd5MKlS2zRimWWmZ3jE9by5CYXMqNVDKalItqxb/784MP24MOP2p/+9Cf77+99y275wXftjt/+xnZLTQ5KLZIL0gZC8dZQcagrlnnxPkVgp0ACYGPVUHRNCCAJwKHVuoTQNV0FkE060E+6wRkIQzs0tAC2YHMxmZKy6ocD52TL1ckrX8wlPu8R/Frp8m5kaiBlXKWogqJNi6lgJJqDUQcVSdtgvBbaqTT45TaYMvNGLBp51i/HB5Koj2jM0G00nZvlYC1Zebq80sWWkpHrmypjnDuQRQteMODolXQdGBq3NWecY6UVVRIQ4qnySpatBi2AmcbhqpwMAJFfxJwkpUWAl1F5I7x4melo5UZ0RA88EbdxuOAZkiH8xr7w7FAlDmCemx0+sEvqoMOWr1ht2fmFFodBqZbf2truqoDNbzPSMqy/R+62jFu6HPbv3W9rH3/cnn9+naVI+sVLlDfWNVhtdbMliClXXXW11Z+Q1ymJw1gkglPc9L6hsDGtDiouPklqUJUl2kOhOaMig6Qj0EIBqQ/J6D4Vn5WZ5WfKBE1IBNQYZfLKdoYGqagU9cfP8AyVSNBPrzTSAAS+jE73fUqPaPN3RTgSxj1RVI1oYFEIEi9JtDvLaUgCD2Dzzm+lhwMlueRn57VH1Bn2K3sAyCRNnBak1+YtW23fvoN25PBR27/7sG3ZvNN+d+f9dvc9D9jmzdtc7SK5EEKpGRm+An/uwiU2LjMgLSNHwE9125TM0Co+2qK8rrj8Cp8/xnaeoe4puYLO2JnQBXmuzfQO5eI64Utf/PJXo0qJjghoHvzS2RU7CLEzz2Jil3sH9u1xIk5bfaaVVk6x7h65wSpMc1Oj1dbUSTIwQ1VgEDOQIHhk11x1hX3kA++1s846w95y/VvsrDWn2aIFS+zI0ToZ/bkyUC+x5oYTApdAEqMPgGB3UGFIHp+SooJHe+fzPKh3Sgv4o/LozPtUcEzCcA+pQqV6a5V9A/oClLDvg+cJl0mb1uz2nQJlcEmmZGB6ZKyTLveJxdlHLfTcu1Qk7lyCSv2RPeUBJJwZ2on4T/4AlkR8fBNSuRdeIkuBigmASlk/klKSnR9bt+2wg4eOiO/xtnTxfEmqbjt09JjsqDDBkK4JnAu6R5jdkqpGTF8amwCfd+65tnzxEps+ZYotXDjPOtpaZB/2WJvssWuvvdoys3K8wbkdBk3Ok1D/Ec1vauRzIzp4gRDO0RF+R4lF10EzBYlGRbACJyUt08onTZOkyLZVK1fZ5Vdcbh/5yIdV6cOyq3LU6uUNIb3EnGGpgUVyfa+45DK75uq32OKly226PJW8whI3vFPoIlCBZIW55IrUEgtG3TNTZbNUDABgzDOIjo2CKuKer2gWwZEB7J6aSx3KGsDHLNxoiRhpBCkkdc9vMYtn3B+j8kULFUy3ANfRYL3bawBHPEH1EbAzlUvw+pxfekcHICPQKMjfQSfaIm+TuFE5AZ4H3QtODo0MwIUKplFElUlespAcPDSgyspi+9hHb7ILLzrL7r3/Lpkg99jPfnaLdXZ3uqOQyAZ1yochppXLF9uZa1aI3wlqyAlWVlJk551zjl104QVu1mCn+sB6DAvecQ2XYvRFeAh0nwKX08SDiYGWPzE4I/VilIgnpFeoINoRKkrlEUPFBLn7i5eusOy8fF/Z3d7ebgcO7LPtO7bpd6EtW7bUpkybIgYwR0lGrM5sttEr9dnR1qF0461P10y5iWeCokhRjq5+oNtVmxiKKnBvE3p0DzcbQHBgR6WqZTJTk3lkVDzjfUip1LTUk4AhZcoF6NjsI5RRtwGY8tAvt40YVXBxH6tI4mHuYJoHKSm6SItnOkcrx101Ki1op5yR00Hl+D0HJGlgc+GETJSqoZo4iIv6j0YnAB1TnaDV3yNd/WDfLw7v/AXUivf8uufs6OFDVlJYpDKM2auvbrCy8hIJgVSnk2E7BrJHBnqt4US1HTuyR3GzbdmShdbX02HTp022vLxs8RSvHeGiTJUuw1ZeYoYMfWiII5TFqQ9FcKy8wYt8TSDB2EE0DhIO3+8R41WgUFl6IGYjPfhiRlw84jfRt9J84fnnbd3652zm7FnyJvNt/vx5io8XJYao0Nl5uTZGRWGbKJ2OliYXy1Q0m2k4+U6DwOwtB1sqMJIzqtINZEkiFrsyDsg91BAGPAPnBFepYo6rU2pHgfIAkkidRr37MDJIsgAbwOXA4j29g4TwKUJKDwoBLwcVDpiihsjvAFxsQR0qjx9c+6H0vGhogOAtk4E3Xr3PfQ4HH08UZ1z566bfw9ZzSajfSDSOUB/kgwca8mcRC18W2fDyizZl8mT/4AKSn8xLi4t9QPvowT0m4WUN9cetra1B5aduw5yz7Kw0xVVs0e7Tf7xW9DtG48QQnijoNtdvkGCvDTwLR2AlzPfyhHsiXv+J8aAZpph1dnTo3qh1tbdaZUWpXXzxBdLnC1ydwb6iomIHRqbsAZi1adtW27Jjh2145RX71U9vsV/e8mP7hUT5oUOHfZqyZHlsu0odyg9gRdKA/LwClJ4zWRWAXcdvpBY2FXGJEw3bkAYBCRqACfAom6Qi3RF0I8QkBAAAA76XhcpIfACCOcBz3oGTytnzZrgK1YNHxz3+Jxb0IH0x4hMx6EUCeQJcAEmgHgA1Xiv3XfpBl9IiF8rnXTxKB0chdBeE9+h3g45Ao6RnLN2VK9fYUpkdmTl5PucL0B0+fNjXofJcIsF3NWppaZQT1mMH9u+x555+0tY/97SeSDqqUTY3N8mO6xUNqHB2o8QujTlX/PgrARqgLeFLX/ryV7nxejSG68Co6Ow4EpD8WujgLzTCYIPt3LndfvbfP7bF8+bJU+xxZklaO1PqTzRYQ0OTrX/hRe+D8mT1zqubt9oDDzxgjz76qPV0tFp2eqLV1zdadV2jzZgzzy689CJrrK91Ee+MVyX6MIz+oIsKp7IpcKBTf6pIwAADeMZ/YYZqqFhCshwOd/8Vl6LSOl1q6cymKH5TRCK1eIV0Qscr5Q1lRur60j1d01oAM7/dO9T7PjuXd/USm7H4tV52gJI8ahQ7QP9wUOCtAy9GN4fTJPyELgz9cV/veiPTNQ0HdezfYdLfSxte9U3/Otra7OD+fbZn32G75+777S+PrJXxf1TpjEqq4yki3cy/OYDjgWTq6+u2JYsX2cWXXOBLENeuXWu1dXVef5dfcZVPuqT8qGVfuscP6BM9Xl4YC98mXP+P03UIgI+DEIAXwHZSqul/ugjuv+8e++iHP2DXXX21VZaX6Z7i6e/o0ePW0xu6KRqaW2OLWePUanrt0ksutsUqVKtU43J5PTOqiqxOYPzyV79jS1efbl/+2pdt88vrLAU17RWFi400AFzBJoEk1ANhIq2orVAZtOpwn7i0ciSJqyi/r8IoIJFD5y33T4ERZmKLkR73UJEkhLNCBkyVdpWvdAlIRd+4RWl4Q1TcQF+QLPArqhRvwOSle3RM0zD8hn4HXlM21LpocVrlMeJR6w2mJXlMmSxpGak2rDg//dkv7JWXtxpjIVdcdIY1tbTZtl2HLC0ry7plQtBxPT6eaOxAyTQjtjFgzhtDUsuWLrG5c2dbfW2NNFGntbS1Kt6ANTU02G9vv8PyZcv5yAG2qWss1YfADb0R/wkIAgJlPHkXkfy3QqiciXFgkxJWgcOrQe9TQVu2bLfHHl1rWzdttk0vv2rVcpMRtYzbwaCBAbooxqyns9eWLFxsl110sd3w7htt1elnWMm06ZYhkU6noOfHwUs6fDk+B61W9yMA0D3g4NC96IyU4OxeHkAU84nPb1+NI/DHJQTAeVp6jvNAYDjllF0WJCO/3a6J5RdUBIBjCEeqGAM8xiOYHq55N6QZRhRQeUAJiSrVnaB8de2gU22QDnwmf2iNysh7gDtINu7HaFZlkxZkY49xn7xZ8j9tWpW9/e3XyjyZZZ//f/9ot936czv/3LOto1UNXPHo5WdqOWVknLizq9u2bttuf3ngL7Z50zY7Wl0rb3PYunrYLwTbMvCQUQjyUxJ+iBP6o6Gcukfwa8UT8PQwBq6/BjIKQwE5B+mA3AoDvACXj2F5QekQHB32iXkMeRw/Vuv7ftIj397ZZfWNjdYtfc73fXrkLYobejnYJVnssJOSIsIYkE7zzUiYix5UliqDXFVQthZgDJN54ngx8QIJ19DlLUo0RYa8ezU6AGawG4K0GHEbrTcGPLiFlAFQwZ6jiwQjHskXZk+oUgGN3vU09Ar3WBzCrNcBHcSHRvqyCKRFbzvS0kGiw7dF0OssNMYG9LFHpcM3iRiNII6nHwtIBdKBaCQkqsrTUZqAkfJT6ayAj3ry4Q3AZendK6+8aMdrjll+Qa7lFebZBz74AfccSdeBnBRvOTnZlpWTIz4lyh7rlRDokSTNkL2VZn1820B1wBk+4TQBNmiaeNCYCc5z6NWZ+PA/ngRg2MnjrwReJpAgzCUhZJiK6K0weh+XnpY+acpUm7twkZVUVFhGJt9+DK04ICUM3CIxktJSrJbPzEhiJUvkM6OVMT6i0SqJixRBauB1EgBBZLzDcKdN124b6LlLD+KrQnjm93VG2iB16G/KyMxUunpfkgS6vHHpH8ynMZEegbRInkpF+nnnquIHZgbbh85ePGjuwWzycXtM74eGSXKxRqq7TG061QgCiABzsCNDXA7oiRp2eD/QxkG/FJMUw2KOqH7CLA/fe0JxswQeNnbBsWLh88NrH/P5XL7eUbRTNujISGcHynxLZjq36qC5vV2Sq095EgcAh/68kE+M35RV6UT1zbMIXE6rX/u9IJWi46+F6HkoLL/x5KgYnUCPDp4zVwubqnJylS1ZsdImT59hiSp0UXGhTwOGuc58vY+r/bvf/97uve8+++Y3v2E/l4Pwo+9+y37x05/I0K/3vhpBwMWzf4dRkozCej+ZGEvjiJhPCwcklID4pI39QD8XIITxfAGOfcs441VNnjLFpwuzCw+Sx9Ue6knlCGAIrZPykrZXLhWqQjswyM95BtiIRN5BhQUwh5kfkXRkOCdI37EADJjHazoCQGOVR4o6Y4/xnu56uoSo3OQXdbwKnsRwlcR0bpb09fUP2LJlq23Z8jVWNXm6Xky2J59ZJz6xqW+Q3DRc8mBKFXQWCoiMGasE1tzaIv71K/3RYHMpB7dNYzwJihEAcabAqgv99jpxOsPzk0b+yYLFmEbBvA/tbwUX0QKeLmH8fXffYWsf+rNdIY+jqa3dvz+YmZLkHX4bXn3VmppapRoHjRmtkME4F2qkq7dLRrzZmauXWm7amMfbceCEfeYLX7APf+xD9vK6py1dFZCsVkSLw7hmLzEkCvYYLWhwYNB3jIEa2I1ahHkskGUHxYzMdOUXKomaUF06YJmuQpqHDh2SqpNKoPL1OxjjMEwRE2FhGB3wCte9iaoseLLigl4IoAjqmHRgDhKUgG0VRhe4VjkAi1QjcZGqqD3ONEBoIw55kQj5Eh+pDh0AgrLhvJBuQnKQ4D//1a/t5Y3brLWh0eZNm6wGk2p7Dx2x8eQ0nzaVIIehoKjIO6FJo7W906ZMnW5Lli0RHXFKM8Vqqo9bc0uLHdi7U4UbFl/6fDICs2J60C4uVZBqSFzxRu9NDNAaznRTfDF0U0QhwhSRXvvaxAAzQ0yPp5YEGA/u221l5cW2fNUqK5aUqK6uloF/1InDCJ45a5Z1yBYDlDAwWcy64cZ3280f/pBddOH59q53v92uuOxiW75ylU/zvea662zy1Cnyao5ZMmKdSldlUAG+Fafy9q4AJ4T/pH6ksvLy89QaC31oioUdSE0HhVQH5yChdA/pKHCgBgoKC/1TxoXylHx3QqVPawTMLkFEL4FWTMVTGSEEXnjjpmE68NS+RZtLRKkqj+KPg0r0zl/d4xW47DzUESQ7kgKQB3XJbweqApLWQa7r4HwA+mFLUiNmMxmM/p27dtmxI8etMC/Xzlyz0nrlqadl5froCtOjmF/GVB5lpzKOyD4rtNPlXE2RpgFcdXW1rvLPPutMqygrtT07BbK4UbtOdYGdjFYIEjzQF9H+5kHljV29IVCwv3agiPB6ONxmiaVPoQFXSVm5r4xZMG++zZ45y1avXm09vT12ySWX+OpoVFhnV4f0fJdVVFXYvHnzfBxy7qLlVjptlox9GZkCQKEqXVnI/sF5kN2lSobBbFsZtezIvvIK0j3m6/NVMH5zP8yDEm0CF/02AIZFEj1ifN2Jejt2/LgdPHzYdu/ZYzW1ta5a5s1fILc/UzZi6JClwxYVDOCo0IGBfu/rAoQ8gx6nT7QEYOJtBQeB5XE+NUh/SAxAwPvulSHBYw0EJwHpRRDZTjuVyERJynqyPDEp6uVVHgCbXYuIE96JUyNut5kzp9j73/cOu+qaC+223/7YfnvrT+1f/+Wf3LxIS+czz2EKOZ490ozvRJ04ccIaZA/3dbVb44kay85MsymTy6T31cCG5dAMD7hQCAPaTqo3zokBuqIzhwMMwt4sRPejlwjcU6MHYkpcEgH1IK/I5LVQyAWLllhufoGVSoLxEfi+/h7feI4hispJk+yMNaf7TocuAZQunXcwno+eD4pbqSnpvqc+OszVkNDBxDufaaBXABHGLn1ivuJbf3hizHpFfeQLlNBLpbI20cfloNlVX1gIglRBuk6bNs1mSaouW7rUzjjjDNmOiz2PI8eOWVlVpQMFiVUklTJFkrRY5WCD41lzZluagMyYHkNgxbLjmJ3AqqTs3BxLUQVyTs9Kt8LSQtlAlVZQUmCDI4NKo9hmzZ1lqYqD7VOiNNkjlS+iZWZlCNADUkV5/u1NFvYmpSRaeVW5yjjqW37yPiqbPSKY3InqYHEHM4mpTl8bqQbE/LWNW16147XVksy5bhtffsWlkrBIxGATIt0iVV1fd8I2yox59zvfYb+UDbxw3mzr7mixbL2XKmGVjEOkRsXOjsF+DA0a3mKi6MLP/OZZhBkHWHQjuvk/BsVjyoYuvIJpiRyoZlYb486yJOvwoQN2771/tCeeeMIZtmPHNqurr/VZnjABYzEvL+ws7b3JIrBOKrVZBj4VxoA2rYcCARS2fqTHG7BQEKQFUgLbBcAiQZEI3pGrtAFlW3ubq01UKqoJ2njfuyFEM4A7drzaDhw44BuwYNuhBryvTWlSwvLyUs8f1Vkq5wDJggqeIk8ZKTJj5kzLEaBojpPUiCZNmiwJMtOKBZzp06f7EjiuecZetWzIN236NB1TYaGv+JktoPMhV9T7pEmVvhiWmR58OZiGMnnKZJfMrHNgK3gfEkOCqSwsfHXjX/kP+uSBfu+MxUZDAqazXlON79Zbb/UuFW9wNFg1HvjANuXyP3x7qH27d9q2bVuso6NVGkqNksaPkBpRTSuv7s5O5zt89unpAEq8Jk1X2zFZxW+/x4+/B2DRCx5H/8hzDGNZQAvfy8buMGtprHfCRiRSJyOxTl8j73GGAJVixyU1ampq3A5j3R6I/+2tv7XbVPA7brvVfnfbb+yPd91pD9x/n3sw9NGwgwwgcOBQ4cqH35HacGKcPgznoGIY8KacLI6tVGV1dHX6ukG2X+oXeJh+gh0mmPqaQ1z0FKkJAOlz1RQP0wkjlQrxdZqSiEgzVm1T8dhY3l0jph6XUZzrXzLJc4mAyokMdnrEAX9QhTSKEf8CMGVHMrJ3Wk2NbKaifAfrZHnfeJp4nFOnThYA+mMd1OMqT4eXnc1jsMdQjfA/qEfSF9j0HltjMdFz1oy5AuYs2WX7RGOdbdq4WSoOJ0K1F6trtEFd3XGrOXbYkoSkrVs32u233+ZfKHZvXfxWMb2sdPswY4Z3HdC6F2xOqj+cqY6TWNFPN/IjL4CbOJfRMRF0E8HHU972DIijP1zmTa+8bPf94W5fecxYWHFBvrdg1kgy07KpucV27NwtRoVV2Hh6fKOQbRz37dklUawKbGmQ+jpmbfJ43vmuG6U2Mq3uWLUDUrk4jZSYCkPyYcDj4tNRCfhQTexRT98OwCopKpU90eDGPnQyZRtvtEleVoXoEqesWhVMJbIFO87KQM+A5WbnqvJbHKgs8GWqMWsuGfBlVi6SAxu0UemgbvlKCdKA3vFe2ZvtHW3KjblriVYrw5kpQPSYsy6xorzcQcrCihmSZJTxRH2dr1qiLtrZBkFv18kmrKis9AWyVGiBDHKm7nSpAdEZjAGG5qA/D/VJO9+6fYcA02THDtXahvUbpCa32a9vvccefvBRNRQ+vsAEzVQ3b5B0UyRtu2WzJSnffDlFrDbH1CjIK/CpT/v375P50W+XXHqF1LrMGXndZOQI0RkbjHp4ffCuFEwZuikoVKi42NM3CSdR6UBDcdBe1IL9YXC777ztF/af3/g3u/DcC9Wis62ystTX2rHbzmOPP2V333O/xauCKBz9UqjFT8vwXLl8qSRFr02bUmUDHY0+wPrv3/q+/ds3vy27aImtf/wRX2KPTURZfAMUKli0iCpXp8zKpPXOnDlDdEIS1MmoJ45uwAS2o+QdVoXvFKD5aERza6sdPXZUzkGWTa6aJGZ3y0YsduMcSYMaZX5ZsBMTBIpmyxFYkWyUHdUTTVp0m0T3UCsY0ZQRNcVyMvbpd1Um3uGtItkGJU0BpIjy9LgmH77dlCEpiBpEMuSosplew0RLfkfOjttastnYhjQtE9CM2q9+fZu98OImS1VZz169zGobG6wPiTWeIunbG/rA4tgmAU98ULbsmKRdn6/mfsc732b9fd0+AzklOcOXrG2RHZeTnW0/+OGPfN+wMdEnbkqycQQBdFJ6KcBrt50VeBbwIbT5jZgke7PgCekIAfGnhJBgfvD+uPXKA+vqHrBXXt1i659bZ489/LD98fd32a30zbz8itRQuioC4zDOC9grm6ZKahQjd/rsOVZQMcnKZIuMiA6myDD4q8RlUynfOAAl0Iix5EahwqC5wCqxzzw0wFZTU+t0+jYCqlCuqTT37PQux6DUXX5hvh2X5OJjBCXFpWJiri/dz1dlYmM0NjY6P6ABFcmkxIG+AXlWOT5vn3n0vgWSpBK2ASAHUFQ6tklaShqk+1oE+uiIL3Hjkr5HIKYXnK3cB/oGbVBHupwbntGNQActfXJqNQLBqDU384H2IZ82g/pn7hvz2wCoe63KBz4gyYnHMrj582bZhz98o1126Tn2u9/9xn75q59YxaRyt2GDoNAhuvEMqTs2+73//j/7OPKJE422f88+O3qkWnyLV75qTKIflR/yCo3W+0C5MTHoZ3TPwXYSVDwQ0PgdHSAxuibyyRfhnA68D5gAgyHYmT40IiO22/YeOGKbtuy2PfsO2bPPvWB79h6QO68Wo0pnBxkMaVLD7mHDWbZtYjgGdcBKpPycPJs6Y7p7QyqJS6JExtgkUZSZ238+PsdvBVQm6o/pJ8flBZ4Q0Ni6oFkqbEBAxqHgXTzODKmkispJsnem2MwZs2yqzgWyobIzs9V6m+3QwUMORIBCuowowEyuUUnSjPLgEqWW5O4rbyrVbSzRBfPhG/YaXx5hfzMfgRDIUfHc5yMLkn16h6EdPg6fIkANysAvcBVM40gQUHGkwkRMOrLj5ezEi8dyeMRzunGoj5BfyBeVhrrFvuO73xtfecV2796j5wneoK665ir/ADyzan2YTPzzbwmo4bPYo7Onzw4dPma1NfVW7/uzqkwCOyMDdO3ohxprmGhAIP+JIAuCKvyO4oSxyAmB3ydfcAiEhAjRS+KUG/a8yjOY7IOtEtF0HfQP9duixQvtvIsusqUrVtmsefPkypcZS/iQmezLSlrM0MwSkIb0oFt2C4OvvR3tdqK2zkEILYhh8kP96IVAg/55Z6eYzzAUdGD/RCI7eEZtruLqGxrsyOEj7rlFWxgh/djlBomBqsUeYxUOk/GIT0sFJJQa9UeFuRSkrKgbheFxSUOVN01lSZMrny2TIAwrMStCKhMVDa3+XqDPpW6MRtQfxjn3aXj00UEDnixSEYmEhAZsqapcygaIXQKrcXKOKpL0MdbJ1w1+pcWZDlP2Xk1Py/TJBQcFHt4jHVHmdPdJ9fLV4fbuTtVBryUI7KhCdvqRzvBp611ybDA5YAh5ed8XFwouZLivPBFEIigWLzw/pTxjgQcTQecR9c8ZE2spIX3dhHliAmc1KxHar9aYaFddeYUtX7nSzhfAFi5fbrly6QtKi2zm7BmSHhmuOhioJZ8HH/yLPfDAn+2eu35n9//+DvvNLT+xxx99TABDItBa6W6QFBFThsW0EeXLxinDUiG+S6EqnD4i7JOo0w9ZgVOAinQprDSOH6+xfXv3+Wpl9oftkqNRW1tvBw8ctlY5Hyl6Py0txZfDUQGUj0qi9WP00uLpxxoeVb5S1fScFxTmeTcA7jsLcb23XxxFUvqQkL+r54BD0sg3CFbZ6bNj+09fdocklBRxqQKt0C9+0iXz+rqA9zQsGkAE+HCEmb5IF2igrSN1589fYFVVVdYk+69VZX7q6XUCTuQQJfryPDqW8aTZRjM3v1AwiveZL3zuOkyCBFoM8ktlI/XEEyQxtIahrsBzJzyGE0JEW1xvT7/KHwMONyaco3DydywRslSdhbi6iZjETPrv73/Lnn7sUbvm+ncZO0tn5+bJzuq1XTt32K5dO+XdDduJugaf3UrfD8K/f0AFkaGaYCN2wVkrrFDGamNLmx2pb7UHHl4r4z7N1j/9uHumPjYKM9XiMKpFQKzyQ4Hp28EOQZ0CDMDXJ9D7ekr9uQTQe8SnJVMg//gopaAsUfl1B4mCm+4rkZi6rfuo9YqKKh9hANColxp5kHRS6lUHYXdPl+Xm5vsQFxuLJMvOYlHKxlc3uTTCOKaSOHzmA0Ch4YguABJJT357UMI0Mio68tpDRUglqqyAIDk10dJzMhx83//hj23zpp020jtgc2dMs155gL3jSQKs7FN5pb29/XJmprnd6pJ2bFiSPctWn3a63k+QN90hFXnc94tta2lUQ2wVX4fs7rvvsdzCImknRgCkLmPAglfQy8VJjHBf73Nfkjd253WBCByvCbGfvMJAtS/K1E22qESfp6Wn2Ps/9AE7/+ILXTXu2XfA7v3DH+2Rhx7yqTgY0uXllWIiO/vxibgEe99NN9k3vvF1+9a3/tO+8c1v2Uc/+Qn7yM03W57ceWa8QjCMpT+MfPHQqFwCfVdEIB1BzOmDyXQHYPxyADLmrGNo07qROKgOlsThVWK/YBfBDN7lHdQRasqHpFQ2aAVcbJI3ZcokORR8o4j9KkIe0IiUJB8+g3fG6ad7Hx6dtRDls2GVPttyjmKTCegADJBzYIfyPuDiPvl5I9L9oELDpwG9/vRfFAfVzX1sNdQ96eIcdHf1Gt8imjSpwj3TxvrjVl9fI1qZaUsZWTATA4jKznI/pWrFxYW2YMF8u+m9N9lN73+vLZg/Tw08U+VCjOCj6B36ECPwK7wGPxMuI6y8QUX+tRABjgMvcHScZQFqaSSEtFBFTZo+3ff0wg3PkG1y8fnn2Cc//mE7/9wz7fD+vSoMXzFD6rDekb3uM1QZZ9vc2XP9a6vTFy210umzrF22AJXDnlthq27ZDfJ2+ApY1IsfjM1QQKSYT21HkokeDGAqDoOeXnzi0V2AROJdPrcXgQoJ4i1QgbRIQzecRuw+7Kb4pAQfViopLnYzgFaO8bxnz17f+4x5bdhc2Xk5Nm3GDN+NEW+wTmp568YttnvnTh+NYGgoXrQiKdhyU0h2VcY4KXSFPTCGRL9Uq+LTz5aihsnsU69c8ZvyQyeNxOfHud0jsyGWDt0jg+LVilWL7RP/8AG74T3X2VNPPmJ/+fP9Nm/ubJd4dJgqeQVpHtm9U6ZUKf0hAbHGOtpbVK4ddrz6iJVXlFlpeZF4JO0oul1rIFD+CqYmBrfHFFyCRSj0c+yNifdfH1A3IFSmiBAtlSKC1Yy8z6uwuMRXEGdLBYomy8pItYqSYv/+IAUsLy8Xc/iCPXub9qvFDVtLc5vxEYZR2V2Z6VlWWFDkqnVwQBJMhPpWjSplkEqxVUBINeXpQFL+SCqkRJBEGMdIMsZIaRwMmIdr3kV9IkU50zcFWIlDHeLxEZCUqFs6Cxl/Yz9+JAnDXPSbYfMMi17f51TvACr6+5j5Csr3q0HRiewfvJdk6R+QfapyY4yT0YjUE52bUpC4wMoRtRlGKyiX815ERR485YRGAr95jK1HQ+AghA1bglYh302vbLC25iYfC64oLbGrrrjS34URNB76wXKyM2V3yp7MyxK9tbZ65XL7oKRXfm62VHuvpQjcyRIKkA3tfFqZNJDsIbw5TqJ7oelODNF7sRAIem3ASvEX9Qh14kurxCNfHCpm0QJzBTIGT3/wg+/Zvff+wS6S2vQaFDDoWmDeGQUsLS/1jc7ozAQUPexjIQnGIHhaFivBR2Ucy15JSbeZM2dLPbLOMTA9sCpsTIJ0IG9AgDoESM4QbDQkFBXi0pDXJQF9wFfMckkmAOsa2kjRAav3yYNGwCJeJCpzyuob6j0aoKSWUaUAmW+SM5MDQGzevFkq6YT19MpYlneM45NMT7tsNKZLhyk8Qe2QrqtP8YyGS76u9nR4Reo38YK9RjmYuEifVJDGAC+auoSpkON7rKnB6D2RovLTvRAnydQuWzRVVwmh6wQw66+8rEz2GHYg0glnSfapeFlSUOBz+6Ej0+fSha4P0sbTnYiLideEiYBznPyfAq6g0kHVkB6J1sqIHBoQ4XrE9kxnnXm2XXf92+wCeZN8CiZdHiQDxn2STNgwwxLLT0p879u1w5574jH7/W2/snvu+Z09/dTTkmCyMSQtEvF2xEBc85b22IIFVQaABNwwFeazFbnbMnqGF8UqbuwsR6FCAA2qNXg/2DjsED3se77TWYkhL+CIgV4eKlwXurRM2YNcILXa2/noQ/gjcf5PlSFfUlDi9k2vVGZVZbmM5tW2fMVKW7hksXuPQh5MUv5ITUlaSVnPQ2fUq0NbiMCrhH6OODUC7qOmAR3rInES2Diur7fb+YwTMiQnQq3WgTrYP+gvI1WnTJ1mOXK0GuRF9oiXf3rgAVe9TDGCVr6mduDAId/jtq2t3SXgvX/4g9122232/AsvuT0nlqkBogFC94ZrAG+MoYF7P2QEsNgpCg56xiJjv0+GiQh0JseOKHBFSyDQShDv6PKnHn/MHlv7sH9YtK5WnkjcqFSk3H5JNj6KRafiy/KmOlRJwR4asy2bNtkLzz9nGze/LCnUaa3NddbQ2GAnGlvsure+zYFYe7za0iW56Mn2bgG959JHBaKlwgUqkcqDuFD59EexAAJJpTsQqn+0eK8wVQCSCKYhUXw7Aj3DZvN0lQJxsW3CeGCa4o/boUNHXHqQBszmYM5YFvPQpFYAUpbUToaM6+xsvkOeL3V5UHlgw4SlZqhhOlYJSEIAjyQkLZc+VJ4OGkQwBajUILWJw176wcYJEo9ypaYhIRPsqaee9S6J5uYWO3yw2jZs3Gn33vcXW7v2KTtec0KsEqBVuAzfCgtahr08OCLcmzVzjqdbIAmG1GPqek93j73lLdf5SAzahDJSfrjkJ0hxjiFswIquYKLCmwLsr4UIZL5YVAEM+zYCSozVPc8996z96Ec/ld5vlOteY88+85Ste/o5e/WVjfaqgEXL62zvVCWm+OBzuqTQp/7l03bTe26yK666zN76trfYnFlTrLCkyLbt3GfXqFDp8tiOHT7oXijzwvDgqCAHj/5wtaELIEQGO9eUGuYTB6DgjdGtQMFRiXTHuwFP5aoV0i9HhRJIj41ccAwYEGZqDr3keTn5/gU58vb5bKTuDGUmbaIVsG5QgK0+ftxX77AU7ERdvXXLPkPKRvYdgIJO7pEnNAA+7lHhpAkleJFcY/e4Y6QseYczZSM+5WJkJSOb3SDj7cUXX7Hjx2t9J+yF8+fK4GesEemcYC2SUiO+qDjYqHxljWElBt1ZIZWTk+eN4vCRw2oUB6yhqUnSjWk7cXb1W95i6TJ7BrBlVe7wrXbOAWghcA4gC+f/o4pUfl4orHw3TJUSy+b5YDqt7akn19vLG7ZYa0u3NUoSDQwgGVJt/foXw1QVMY6PJLBvWEVVpQzoIps6bY5Nn7PI5i1ZKWameZp82ACAgGFEP7YHDAVUEZCwydw+karhnksmSBOdgS4m2MkGIo4qEuM0TJ/BHgvznfDeAD/v8xxpBnOQaDzv7+1z3hGnVMZy6LsK0oQ0SJsxR5yLsMHKmNth+/btscameu8xh1aekzfdLOQFnfAP58WlU0wyM0OEmaMAnPIxvEa/HM2FOfG94kWvJCD7papQkkSp3ojGVfa+7j7vgF61Yon9wyfeZx/54Dvs8bV/tjt+e5vNmDbd84FHfGUY+4p3KQsfy9+8dYs98dRTtv/gYZ+JwkLdMfFsgMYr3kdDUjEN6b+DpKIxw7MgzlyqxsKbA4zaUQgvK8R+nwqISZihSyoFtEplYkTizbHJW/XxE7b/wGFrbOmw+qZmaxfBzFig+4WeYuaH+ybBKgTTW2AfhiQfEWA2g7vojPXFKjlVlZLiBrtDziuIwno/lAJqAwASUCcEpAnShjO2AvG9QpUmlYnRj+HtHqpAhpr1qTB6BxC5RyYGH5dEYpoz88uY4sOkQcBGXxQVyyf+6Htrk62Dd7hg3gKfBs4cdgACCMNsiwBq0uU9ApUSVYhPP4cWBxzqM/TTUVakH5UYvF+8OdlvVDIVLu4hYb3rBokimunAfuHF5wWWvbpmGwd65UNnM/VKQ6U85Mc6VnhNhbLYA5vs4OGjqpc+l8oyDN1mdF6LBkATASvCCGlPPFNOwpsCzEmOwKXA7yh4ApRMhfI4oFiMYSUNPcsUtlgqhWXoa844w2bPm2uFpcXyFss8HvPdvcXJm6qsrJBKnB28SO/sG7deSbW2Jolluj9UaQSYAiDY0wIDFdVGBUFLkARhvSIMQJJFEoF42CrEIz4gAzDEx7vslRvOPT7yzn0+NegOgMBD0SJmkT/DTHi2vDtlyhSbPXu2ylnkcZCQ9PYfPHhIZYj3T88gLRhMz83NUX1H9mroz8IzJgA6fgdJiEQMRrRLLaWLJAwSOfZMeUMSZUFqul2mOICPciqGLwBhsiGjBtQSPGMeG0NC1CNl9cpXmjQI1wIpKd61lF9Y4GDz7T0FVvrLWlqbJbUFMiVGvgCb8FrVCK/C+RRuwg0HGDej4/XhDfcBF19XUD6gnx5kpBcZDA722OSqQjvn3DU2eWqlr4Xs7O+xLlUkqn/qzOl2/dvf5gVIFsg2bHjZvvf979pP/vvH9q3/+Jrd+9vf2q0//bk99+Sz/t2ghroGt42Yv843E+mkPVXpDK3EuxQBAKFCdNazMFsA0KvBiUkwHzXAHC+Y6/uTAjz90a3B1CCm8BB8gFnSElvIJZzSyJCqZkLi9u3bJYUz3R6iM5kvk+XLGKaCUX9MdNy0aUsAoiqb7apmz55p8+bOEZ8Au+6Kl24/Kl0M+9B5GWiGn1GDIQA2H9YaV8NJhi45AOI/3xSgiydRjVIvuOSmLKgH1YQPlTEEtnThIivNKxHtfdZD14L+ABLl8WnoLhjEG73KmoD2zg73ZFnXMGv2XEngbPfgkYyoUxohDg2ryAAQ0jeqj78WfMLhRABFL0TAin6fSkhMkncYwBsYElYXjdpPfvhtGbXVNmvGfBmd2ZYnQvcdOGB71Pqbmputo1OutTC9c8dumzJpkjXVN6igIc2stEQxZIaN9ndLRHdbfWuP3f/QIzLyk2z75g2Ko5asbGE6lYWUojebyqKwLMWilWbozF72BDxCPjKALUdFMtxDPfAf44lIUiSYkrQT9G+pvICWMxUA5x0YesM3JNYFe2uxzpI0qfwT8rKaW/go1qhXNPYaHmeZJDbjrcwnw/ul119MFNCFCdmrsBNJ5jDXD+w01B+NJBpTpVMZNjPGGUkO1DujAMTBUqEhIP3zCrJUL/H25a98Q3kdtOy0FDtz5WI7erzGjje22cCYpLj4J3wYC0SwldnDbdas6bI5R3zOPwt1+G4nuyCRfl9vlx0/prQyU+3Xv/q17MsMGxKIsQUhLDhJgV/8hbJAZSiTX/GtIr9S4CaR/95AgeiJlmXjAPvj3Xe6wXzGWeepMods09ZNcpufdM9r0aLF3u+yTy47DG9RpSSK0f/2hS/L48mzkrJ8GfwFtnfry3Zg/yF79PHn7Xd/etC6BMz9u7aIrtD/RetGdTCNhkFsSoQUwiPiTKUzkMsEQbYsGJTxjZfH546xgVgRlKmKF14dnHQ4+ncqxaj6xgbfqAXw+lTsOKSzKoYVO6pf3mclkXNI/2Ef4bYz0oD0wfkAZNBINwQeL63f81HtuooWz8ibBJAIpEEcKiocTDcachUIHVGFMfqhk8/EIF3KBF00CEwTvEjmkH3681+2Xbv224zJk2zFwtk+/ysxLdvG5Chs3rpDPFKaqjUkf35BjmzKYiuvKLdzzjvfaWpubvX816xebc+vf9YeeuCPonfI7rr7LpU9U/nTrSNvfFSQEq3Q7EHXYCc0x1A28CQ1fgptbwau6FkUiAOwOIjOG77gQEeBVOKq00/zzj1E/gXnnWc33XiDZWel245tm8UYtcrBfuuRcQm3GItkKgvf0ymrmGyTps6xcy+6QmkKSKgnxWJpFt0aPmitSqIFkzaSCmnmxq4iUolULi0PuuiSYMoMidDTTR/VWWef5R/Dwp56eO3D9tQzT9nGTa/a+uefswMH9vqWU6effnqQggKI2xyqPJHjAEyUE4N9gxQC5P1qTBj3DByzwTGeNJ2TQ4OSimIJw2DNzW3GtlX0f7HJC0Djg56YGoxg0r2BsOS7S5QB2qOFwnDXeaz/yA8171JNvzH4UVfcQ+pxD156Z6toP2PNCvvozTfaR25+j91992/t+9/9lk0T6AA/3yzILci1oqIC6+3rthzVz1b48Ow627F1mx09dMheenGd6B2zCkk1liUiPzFREkT3GMsUdSYEOgMO3OZ1vJzClAOM8Hog/e2gwihd8uBA7zNtmuVZ7LWekZNplVWV3jPc2d5hZ562xs4840ybPWO2XXbZZb4ldntri2XJVqlSfEDBHCX2TUhUGsy4oBUxxxzGwVS21GZePh2tSAE6b7EBvNUDeBXUmS4woTY4+z0RmpAUb9NnzrDmtlbbuXOnKjDZVq1caZddfpldeumlbhMyRXrz5k3u0S5dusztKMCFWo22WUINUoFIImwhVLR3euoZY6ciw+9x8D6enacjwESzYpF02HikzXI0+E7lkCZ2IUY3qhP4IY1pTPAbEHn+GN+eVsw+U0PkfcoOrzyoKvky24aXXvJyiWinb9nyZW5/pvoslGCLMpkxX/ZkmiTkjGmT7eYPfcD+6R8+anNnzbCWpgbxPNVtta6uTgkHBuIT/duVAUSem5fBHQ7xO9AAr8L1G7bQJHJ0vFkI9/VOnBIQk/nzPhq1Xvb8amlqcmIB15+k4o7K3WUL85kzZtgxqR8MTCoyU2e2PioqLvLtNJGAdHj08w3u9jafYAhlMF1KUaoIwKBbEMW08jBYzTQKRgi4TyUh0WjtAAFGM0GQvjY8JZaT8UFUBtwJLA2rq6sR3YPe+w4tSAQqHiN+kMHgvGybu2COLV6y0ObMnS0veI4tXLRQvxe7AZ8hewuW0PFIq/OOUmXtO1SLyTAee84ljeijgQA0ukTo3sDBcIcESYyk1MHsCc5sLMfAedSQkBCMXVJ51ALq2qtC19Qjdib56LF4xiO6K6QJktKUR5J/S5IZJr41wpAkqSQgUp+1lEwsSJFBnJWZIvu4wopLpIVk9rCJIF0fDGFBg3+kVe+x7tWBpXvkHR3kGvrDRJeev6En//XAejOgYeySENYX/2M3jDDdo+GEdH+VDz7zQczt23fYc88+459TZiwLQz8rI8deeP4lMUvutNTJvoMHFG+LPf/sY9ZWd8xelpje8NKr1tbVb++68SZvZY0nalVJKhBznmQDQBM2Cq2avH25l2hyr9YBxv0wNonkmc7EO9l/rS0tvmKpRoBnRikfHcWTmzZtus2R1+StU+r7wIGD/s1IZnwwGF8mG+XA/n2+CJbZrPUqJxJh2ozpPhjOtGNm1eJJ4t0h1rEHqcg2SU2GZLCZGDeEX6hD4sA9aO3vZy8MxkQBSuihRyoH2y3snM17AAgwuteo8sIH7qXoNyuq6OR9/PGnfNbuwgWz7cJzz1H7wzYcs+07d9sTTz5jHXJ6XOdLW/AeY7CZUpE0jJbmRl8sffjIfkn6HU4bn86pEc9ufO97JXnFZ4kB9nGjS0eEOg4AFHRDjw9r6X6Em/8TwLzJeADFUhkihOXof/z972ynwHLkyGHf9CRDuh4CMOqPYjxLsjBFuaFJBr6YhuRraWuxuvpqa1KlDfV12aF9B62xucVGBMB3v/cm38e9VaLai8IgmvJ0deKtJPTSc5eKgNaIXlo5MegXKisr96EPOhZRh0y5welAFaGecThY2d3sQyPtMVsPVTsqSZYvrzHP5+vPnTfH5/bnZOfY1q1bbeq0qZ4mq35YuT171mwrLCjwxbkrVqxQxQ7aFVde6e9isNPxetppqwW8XluxfLkvvAWgq1atkiN0zBYtXOSrnKZOneqeIlKURct0r5BW6HvCKaARhe8AoOKw49hvAqn15JPPeeNuqm+0mqNH7OWNG+27P/iJrX3sKeuXU4AN6UvO1DBZyJuewX6tA3KYkrxfj4/GNsgz7lQZsjKybM/e/WqMY/aW66534DAzNkFGvtAVtIsDCi0D3kLDIESaMfxS8H6hvwKuqOJO/ta7St4PTwiPQYA4XlNvt/7mNt86c/Orr9jTj6+1vTt2WJ8YxFf6a2pOyG2uDfElLSjMN7/xTfvaV//DvvWd79q//+e37LNf+Jx/8SMJ1eDulgoAiCQ2yT3sVhjIpkBhMUgQ1VEvN9ICwOPeY7OEssYJaBVq2Yt8rSVDT74xcWOzJaemSf3NtTnz5knlyaPUn39EVO8GrSxvUjTTrRG+R6m8ZBN6wuSv1tumhtLU3KCKZ4bGcLDdRDBSDTVaWlai95Cy7CoYpiHROJhr5hWjIyszXVIyUzZRjqsg4jKLhPdCI2bOvZyKITWmsXhLTwnbi3tfHxWrBgs9Y3pWVFTiO+ew0d6lsntPP/MMnzhJvyKNEYcgKzfXl6tVV9fZNnmYrCo6IWDu23tQoB6Q5Gq01s5uNdI0SXPJUISJ0sZeRtW6qlYZwYD3qSn7iZgheE25/iSBUBN/M/AiHiQFQsRjO7n9oV/xiSm2+rRz7dG1T9nLL75iNceq/eOWbWrhPiWkpV3xMFz5GGYYakmT/ZSWnGnzFy6zmfMW2czFC62P3mdVJkxnvj5MC/1ToUeeA3sMWnAAGPYgcN8rS3G98lJTXc0gtqlUxkH37NljDQ0Nen9c0mGm7yFBSY6K1q3yoFjh0693nEEqHkDCTsJjw3Fgmg/DRtCOqtKrsnP6VaHFLnnYCwOa2GyEAW+aIRjMysx2icOStUSVra2tQxWnOL19on/YP5nXJB4x1timSmdtJJv0osLZ0wKjHpBhw5En5ae+ADMVTcC2ozOWL3msXrXM3vGOa+0Tn7jZfvLTH9pXvvIFKykuUJGYaIinOySbs0Tgz5W6Z0vTMXvssWckAderMaVZXW2z1dQ2SBqy6kiNfVxqVdkkiH5mDWNbEoAMvPxrIYiC/2UI6MR4VSvj2pv5uC+ff+ihh52R2DKsr6s7fkI2WJNXghuLakWsovFvD4owvifpfUYy+tnasah8ktTXEonvbutVGqgDKgxjHvCQHfcADgwH6DCYtGA2wGKuExWCOsT+6VA6VZWVDkBUDV8gOSIVzjcqmS1wgM89S10ATDiSJmAiFagIGMlEu2JVBgBvb+8UWHJt6pTpeha6JtLSMh2Y7P8gjnjr37NnvzN/BxJctti+fftE75jV1tbYMab8iE42euMLJywaIQ94hvHf0tbmIwcAGFtz27btTgfl9NEFcZuyc+1rN738we7ks4NUane3bEnZjcyW6JUHyPsrVi73uXhMjKRRtjS3hnHItCzrEf3DoypfZ48dUzmaW1TO7DzZn1XeuB3EqEelQ4OMpFcU+A1NUfD4woR7kZE4i85vKsl4FB2xQIvhNxqYVd5MrZ05c7JNmVxp559/rl121aW25uw1tnDpIh+7ozAMp3iPugMgyabOmOrDL3xeGUkzCDCrq723PEO2DnPbcakgFxMMIPlYGXpDOQMo6PYWrfepTAoHAJE0qLVGnAwVHnsGW8iBqkN4cVGfIDpIg9XZbNiyZNEiF/lIC+ZEdUqylJWUWRuzP8qrlLakStVk/6BBQz293uO+FG7Pnn1SN7WSnGm+rwXSh01ESJsyQq/vpKiGiBlBp266VGRjfYPbUmyYTFdAQ129rwBikH3Xrl3ep0eN0EBoXNQPw1XQhw2H2qQuuB/xJVWagS/JhcXMWc4P7EdaENtkwkMGtpnqTXcHC0f4lB8bE+MIICRYugbdlIP86ZMcZ7gL71ZlIr+AH37q/ZhNdgo/gPF1IXrpVKRY4GfsAEweYlIFRLPVYk9Xm5UU5ds1V17h+n1YdkuNGH1ctk6bWtHsuXNkBOfLmO+zBIlc1iP+5je/kmh+2L7/vW/b3b+91b77jf+w59c/b4MCxHjM9qEj07sekGZiFCDzqTdIQYAtZvMMWpg6Ler9N62Ufi0GjA+rYtl6ibWC9FOxQw0go2J4h26COXPmWEVVlR2ScYwRjQRhQHjzli22Rcerr75qGzdt9N9bt29zlYq3GaTLuBvx2FxcI3lgL1IPQPZ096kcqDXsu2RLTWdMU5JcFYpKxvim8lmZlJqaLg8vxTIlGePFJ+qC8iAhfEq44uumVyYBgBCH3zgoXNMNMXnSNMWLsyMHj1iD6oCFKnQveSNUHDQKwKOvjj096GtMSU2y/NwcvYdd2ebjkzRA3x1SedEIKV/IL2AknMN1OEdAVx4MFUWSi8CLHNx7/f0oRPd94mEC3prEtTyRb33tKzZV0qu5sd1Ss2RzDI96BRyQB9fa2uHuLa19+/bdPncJe4DhF0hPT4mzhbOm+O46PQOjll5YYQ898ZgdlwdWe/QQjrVPi1ZxQhFiNKLW/LcACIlUAgY+Yp3raMwSm4nni5cs8gpsaWmTBS6pNYx3luiTCpmyQ9cKLZa0UZEAHAAFN1x5CXhUIh+oJ0EkMu0LY50dffr6+zwvGgSAwWMNkwUlbXUmHdQMaSFVAQ7AwHFxG0oAxR7mNyDF9uOaXnQqEg/aK49CK1/6sBjHLCwqwHawz33my3b4iDSAvMNZk8usoa3dahtbVdZ061VZ8QKLCstD+ZVITk6WzZw+w5er0VVCV1NtdY1Aly5bsEUAa7e8/Gy7XY1fBIh+0UfDoXSiIwAJTASgUR4CZeLZaz4lQ4AR0fFm9/y+e3d65s8FEyTa+Ijv/8Vc/Gvfer0VSqW8+NIG2TpH3J5YsHChPBSMRjYwG1LF0jufZp/46MfsovMvsCuvvMze976bbOXKpd6Tv1+t7p033iip2OHfPWKeFRLLW7KIj/R9GGjH2Jc9xrW4zr6tuOJhm23u8LXcDO/mYLslWjATIFnoEMppViPv9uhhSS6kpYpDHhSLWmQCovfveNl5prx1D4nkQBEgR6SmvJNVcdhzwqf/qOW7lNG96EuzwTiXpNE7qDYaAJ4nYEPi4iXr1VgPvipIaou8oQM+B/tS+YoSbE7SYmZKdjZTicyefmad7/UxqbLCZs+c6mZAXnGlNEqBdXb1egNHPWIz0ih81VAKNmaxFRTmu0NRWTXJRz9YZkhvfmFull1x2eVeDlHmkh96ABB34AsH18SBB/6MM/f+ngDYosO5zKEEvBKEXFxYVnKfff75VlBSbqWyVd73gQ/YTe95jy1ftkwF6rHKynK14ji1GjbowECNV8tZYPMXLbRLpFbnLVtqS9assV5WeouREEzF+Ua/+sG1e4yiIWr53IcmN/ZFDGBIVovm2hdWSJrhkjNU49+v1jMG3flMSp2Ma/qojqvFsmGLY1Zxk71yJVX0Lmf4STcOtiOg8q4PpAkGt/LH9ceZgKkAH3qYtTok6QKjkK6AiN+hSgLQotaOhPJZrA4upBVfMwlrFpg3F+LLPpU9yiQCTBMAm5SU6gPcVCTg9UoWnexytHT5Mt8y81Of/hf76U9+YN/8j/+wqooKSWWBWNIXKc9KJ/bRnzljiuVkp8sLnuJ05uSkW1LCuBUUZFl5cZ5suTQBrd53OgRGMSh5OR0KnHVQB9AyMUwA2GsfvD5EiXDoP7/nQyEg1e2kEe9PmiRx263WwSwnPLT+/l4768zTZPvMVcso90mGdCKifnLz86TTRyxNtgv7mwKKwrISm6Y0Ap20Ip10zXALeZFzNL2ZPJEAMJ95S26L6I9KhuFMmIsqjXgAxJ+rcpGiVDAMwRsjXkgnpE0aAAhpAa04ExBCntBJ+kjCaGoQtgzgJw2kU9jchKEb8hqUt9zjQ1WABq+Z4ShfDKyDqTliqtPgaliFJB0Hjt5H3ZIX4GYojDFfJCRjimHLdElLgV5Iddrg3dBQv5ySJnd0KD+qz/vUFD9PggBAS+taQV6OADZNjlmFdbQ22uJF8+0D0iQf/OB7rbK0xArzsq0gO8u3RsXsgAdI6AhI/B9oBhvYZ1QY98LzkwDj9xvQB3iiiBOu8Tg8HbwGXQeVYr7wFOayJTgt+JWXN9huuen33H231Z84Ibe42b8XiRfFvg0s/WdbIUbz6cFWYtZ8rMZqjx1zdQb1qAEq2+0YAAb3dWDnwFgqlkOXel2VLyMW1ZSVmy1JlmSj+s3uf5kS8xhyDMTzdRE8s4TkRJ+6w0roHknYNLVUvl/Z2dPllUeXAeoHj5a5ZnhjbHCcKAM8KyfXCopKfKKiv6c40bKzbOXFNpb01DOLI1eVyP6rrI+kTHQTIJnYFyJZ8cJClhHLyErzj1r1D/aJVgwRviHU4ZsKp6hR0iBVy/4R136ZDDQa2IETw8f4Ue8x9nh9wZ/s7Gz3BKkT7pE/djEtN2iROHmxddbUUGftAlhN9SFd11iB6E6XdKNJd3d3SK0y60NagyEuAY3G6ekpAKwogBFARj3x/G+uKooAReTXgE+M1A3RGhANK7Bnjh45LPGa7RPghtWChod67dD+fTL6G30mJd/BwYN6deMmMTvFW7WQ5JvQpiUn2BZ5aU88HDZB6x8et3fc8C5rl/3VqYMAaB1sqkRXCSqo20W6DhImMJbtocoqytwzhLHMUmVgmHFFFkrQXcKCUyQKvf1sxoudyCREpkMDXjxePNC5Og8JDAyj4IUSAARfDKGsNTXHbfnypT4CkC3HZu68uT5NGiM5KyvD91ktLSsXcNJ9tACwsgcEUpwt3VkBX1pW6g2kpKRYBnW+z9BglIOdfjDembwIWOH5PGkClpLRPYGExKtG5THrl6G3tY89LRus1ebPnmGrli/xBlLX0GId4v26dS9aZ3ePZcqD7dUZKRYnCcliXVYVdXS26TrDdu7Y5hMnj8jzrq+rc0dj9eo1lltQ6DOT4TFo8MauwPCQw4P//CKoS8LftWztNeBSQGwjapW0KhEpJntCUb7/3e94rz0zJuJ0L18tOV8tHdd75449qsRu7ytqbulwtdrf222bXn3Fnl+3ztY985RVHz1guyTxjhyttsz8YgHsnb4qp6+7yzcqAcxMC0Ji0b/FNF66EqKCuvGtQG92oSqkQcAuUeWxlpFQVTXZP1RAy86XmsAoZ0fESZMm+1gkDCcweI7Ry0e5mNmwceOrlp+X7xMT16591L1SdonesmWzzZo5y/IFim5J4JpabLkuqaAIYNk+gQ8A0BXAIPqkyZOML5IwfejQ4aO+HkGyxFVgU1Ozder9xYsW2bGjR0X3QZkUlbZj53bZQ0W+vIyNhul/Q5qzYR5migNMUpmPjD3yyOPGd58a6mqlPbbZw48+Zr/49V229vHHrK2jW3XHSAqOA/WKR8sCkAGXZNhj5597jh06sN8G+oZ8yR004YwtlR3Nt49k9DmPhCHHBX1fLmrEU5dkEwDGcwcYF9Hx1wLG48mgSzCMhIz5Vd4C7737D/aHu+7xLogG39S/3g7uP2Avb9joHY/0DvP9QjeSBY7JVVX26U992q684nK7+JJL7MabbrAZ06qsfPIUO17XbG9/97v8Y6S9ki6p8bKRBFQJX5VRDPI/Gf5KB0lGh6lKqBYWPEMIYn0g3mVV5STFjLc25T1JHhJRw9djx31XQZiIg4KkUUH1aqLt2LHLPU/UyZzZ87zXHztnkbxhJDeNZvu2HVL3g75tgI8p6l0kFNKV+7t27bUtW7dIMhbb7n377cChwz7z9gTbPakt7ND7fOGMxkrHJp23xVK7u3bt8XHTEnni3J8+Y5ZXIOUgXTaEozsDL9mX1umaBcrClT3x5LO+z2xJYYGVlxb7krNipZWVlS/nZsC9SMrOToihO2XEu1KYHbJqxQq38R5/jFnINT57lbpC8s9dMM+/wx76wMACPKbBC0QCArdOjWdz6H8w9fd8kJTAy9F4pb+ul/2agSkFpn188Kb32uMPP2a52TlSJ4VidraIH7D2ji5Jrz7r6JFBjDEKY2RDzJo53X74g+9JhTbY+ReeIzUWb0f277Sf/+JW27L9oP3poT/btk0brKOpUQALWwh415uYgMHOLNKILtSD6t3VBnRBpX+hVveRSPRxjep9DGtsFugHCPADI97naektKtLvyVsDuEzzAVgMMTFtBmmBMc+8djposZ1847oMqdtYI0Rd9/aEr3l4H5ZUO5Mpg4dpPnzDXvedXZ3exUFFIBVZTY39QvoAlXIy8wLbhzTxVjG0sUuhJzUZZ2lQz+L8o/uMaf7rp79khyWxP/7BG+2Cs1ZZt9JasupM23eg2r745a+p0dV748ObzpC9Nz4yJIlH2djzQlJCBOLFYm+iIeTW2KxZU+2tb7vepsv5kvLwsWh6DXAqonFJx5xCpBojYeW/vEJix98TvGJAawyxvBf0MkQyDWfM1cHmLdusvrHFWlvaZQN0+7sM4vreVJ4Vi3UHrEmqDIJpGbPnLbacjFyf2Eb/D8a+e3Rq8mxZiTpWs3HgBKRLfuq5UnQjlxZKusynZ4dDessBC3O9sPtO5S05hJofY057qq4l+oVeesD7pR58Qp7swNSUDKVPHnibOBfDkirsmMPIQqIf4rQvr2e5PmsBxhSX4SIAiQfIFGrf/LeHNaB9+j3sy/uzM/MEmrBJHVNguuincuwD6BH/3SdaHKxyy6HHJ3cqDmm6Ny3wcbjRTYWrTuAF3mu9pD+ruyoqS6Vqy2zlqhVyDnoFnnQHMWOySDKcLT6UlZ4uh4dyK4HO3n7fz4LucEY9MIuc3f8DRlCTkdEPNl4zFvn6AIAIDj4qVMFfQiTqN9fRQWAAe3B0yMonVdh5F11oV117lU2ZJhd4xnTfvA3PkZkJRKcjEa8qW4YwU0r6erolYQas4dABG5A6miQjlwqiU1Cumfn6GjGR91EbBKQIO8UM4cLSoaqWCaCC684YpdqP7jMgPSTG6amLdCqIOADD2xjXehewRM4CNg6qBAmFVKFbgfj+4XdJOxwEuhXIj+Vj0MDwD3uc4uFRMXx7cVTx+VZjjyoM75OVOQkCVEqqJJhc/3ipe39HoBsTLQz4N7e2W2t7lzc6JvmJGucxXRAAGdUGXUztGRXIWCmPFKE0CCGqDZMBZ4QNaag/Bvy5TlT6OGEc2IU0APoHx5QHA969A2pc4tE4dawzTlm8yigR4vUA38APGCAEjIT6J0QSzDGjI/yaEKIHHMwoIFC419yPDj2PXNIwr37cFvHd5wULvD+L2ZRdUjEs/hStPtZH9wAiHnuFAn/vB9+3Bx58wL7+ta/ao3/5i/36N7faATo/a2QDyB33/FAbA0oDkIlk/ZThGebnAwK2dPQ575Iw2EbQhRrk8J5z/jBm2V9V3MExYXdCWnnUY8++r3hLdLMwzknaNAQqIBiw+qEbxI+6TFwFSmoANM7RYC+Vz5ghfYDw2zd6Qa645GVzXoHSO3ODw4I04TceJY4HHdB0ZRDo2We/CNYodLRLpUq8hDFNlVX5+IwKNQpsWnhBBTN9iqlFBXKUOlo77Zln19nGTZutoaFeEitDjXLAgUF+SBvGFxfKiI9PTrVJU6a5BGzvaPfxRzZZxlP1YS4JFZ8coIZOOVy4OLhULycF2ymBBY0nxyL58frgEUgk9kKU6Fj4KRdXzxld132Gij704Q+7LXHFFVfp3rBUQJZt27rVDrGRRkOjDMkhucm9Vl1d414nheODT3icWVmptmLpfGtvapIz0G3xaulPPfOk7du7xxpqqsV0OvhcLtj4cKh0n2inwg4IFNCQmqKKF10OSoENiTQaW8NJEXxFkt4jDtNlkEZUCvG9/GI6Bq+DiBEA3aOlUqlc0y8GIJKSkXbQQwet1JvSZJPcaHm+NwKVjcFv0vPed1U8XjT50Z0B7WwRyjw1AhKS7waE/bgkmXTG3AC4rEaigeFpVkjVQQM97hlZ6T4th49e5OZk+sD5Zz77RanGBstOTbJ50yqtvqXVGtoGrF/PaBSobyYQYk7k5ef4Kq8Vq5bbO979bl9eiElC2eif+/EPf2DJ4klFebF96EPv92nlA4M0FPrDOKn1CANIT2ewgyt4j1HQMwFIiUQ3Jz6MggNIwe0sPfeFo8qBTrfwhMob9T6k9773fXJpl/gHosoqy62stNQn37GJ2eBgn675PjeLFcblDOTar37xa/vVr35t9993v/3ge9+3L37u83bjDe/yPqEkeUbd3e0ChCQNBrpUTBK2FWcxH2mFpKDXmqVgSBs30WRXYV/RQ86sDehVu7aUBKkb0c28flQm3y1iYQUrpSXzdI/P1QXVgT1D35WPFCDFlB77jbFYlQqgFTNhEJsIviBFsLOgISkp3tVTH3aM7C4WwzALdUw2FFNokIZ03KIq46WCXH0LRFkZme6Q9NLHJZ7SoUqHL43WK1MH3SCYFHxnm7WhPhiv+nMBqzONCO8YNT6gPKdMnWrnnLfGli9bLBDmewcx2ofFMKyd4KNbRfKkD+7Za7msOZCgAMRXXXm5rzBqa271VfZJkrCsLR1Xw2N7dvJkSpMHx0wQUN640Ro6O1b87sQAoTGQcY4OXjh5uEjg+akMmFA4X6qR+eW06GyB54hUXUtLk1cWMz7ZIRAVydl3GFQ6AzJ6qfDps2Zbidz0oqoqOyGvsqy0TBUY9mhgOIYp112dvapwpBWqSQBiQFYghyYC6/dQLxSePi1aP89QI+FDTgypJAjsWS7+eebp6AAgoZz0cJM+YKG/L/RaOx9gqu7zHr9RhQw5MUUbE8Gn0Si4VBRCAF6GvLFomjeNDGcDdQ5oUIN8uQOJya6BAAZAsXaTr7exyISpSEzYjNVfTHoxJqt81WiYHOkApA4k4XRyR+Lyyy+zz3zmU/avn/oX++nPf2Zf/NIXrUxmC94r2oONm2W82YJ5cyxHkrajrUWN/I+2Y/tWu+Un/21f+7cvW3trk+qhQDyQKpckdukPkpVzZIM5HkhL94L0OoULBNMbAOaMfJMjSsgT8wRD4JLWRSsPH41K9P6b0uISm1RZ5d9iPOusM30sctaMGb5XK8gnc5iDLRW2R5JYllpcsmqlpQoA2G50GLpNJYmUlgxj8EDDgDc9730DfT5DNq9ALVP2BNtV9snuSUpmSyMGi8clcfhkclCdGMeADOD5GKCAQ4Vx3xkI+FSpMA+Qsf04DQegYbcgPbhPd4FY4iBGXUbjlag5H9OUFEWlkR52IIPrdGl4H5LocGmnZ/AgDH9JXUpqsTiG98gfRwb6oY10WVtJPfAezwA68QATfWnuELltSLOV7Tg2ZEePHRQ/eqy7q8O39GTYKS83yzUK22aWlRb7bIqy0iLRLJtUUu090h6/+OXPbdrkKutsa3UnDNMDsJM3dito93qP0QOdXENPhBfiENRARZAKTuAB1w6iWIiuw0vRWQnyP+pYYPGBZpgimwLVxSCqkGCvbHjZ9u7ebU8/+aRlq+WgNqZKjVKZ6G6GP+bOmycdX+lf+qBm6o8csVFd98peoXJgnDKRlxa6IqAPCcaSMrwv+mR27tln9Q1NNk1quUhMc6NXKg/JAif4jRFNS6fc0EzXhXuBDjgxKVY2ABc6E5mOM+LvcHCNpEG9ADocAmwi7ytSeRkqIh6AIF0kJtIJaYrUoLc/DFKHNk0HMYCgkRFQxeQP8GE5w0SAii07sXcAYKKexwkQ5B82JWHgO8Mys2V/SSoCeCQeZaHvDYnKt5PYCIWPxZNzR2sb/TkyT7K9w5a9O1jLeujQPv8IFtOiigry3C4GhMxdw9TwPV11zcwQ71iN4YLGR/kJwZQKAAv9iXr3S3/HUFEUeCE6e/KekVe7WjXTbYft6MGDvishy9A2vvySrXvuGas5ftxY+sV8MPqH2O0wkX4htezG5kb/8tnWLRvFiBF75IH7bfee/e7NXH7N1XZE6fGtIToUsQEYp3P9L9uFLq9bfvZL+/NDj9rmzVtt0eJFdva5Z9uB/XtdVWLoY2CryALHqKtXbBToRx0BBAISEX4BRPp8vLJVJu57hSsOjKSMvM9UGtQb2yKhNmgEvB8AhXQM0jNIyjQHEmmyBQIcxAaj/ylaUcSWo3xvkgbB5wgZuuEdvrrGJADULENkeHJIUvJkYTPXWTL0ASlDWnxkYe3jT/q6gcUL5thKefRdsgH3HjxqR+RYbZInydoD5oKxzI3ldahNtisvVANgGO/5F56355552tXijGkzbfu2bW7nXXbllc5zbE7455JXgKKcEZhCCNItCglf/OKX/i6AhUSpKv2RmB+RhpUqE1NefulFtZBm27Nzhx0+uN97iNmrlV70Q0eOKet427N7rw/NMAjb29dj+w/td4A1nDhuzQ21dkwS7MiRaps6fZZdfNmVDrDuThn6yg4Fg+zEkGYGKuNsL7ywwQ3lYRW8rbXV3vbWt1oPPeQCAiCGITDB1aQS8e4EnbELg9QIU3OoaN6hEQIY/XRPk0rtkRpS0QVIVvSEPe7pSedr/Khwpt8gCen1J618Gc2oaCQh9iP5hpauSuFamZA30oOzb6ekvDo62jwejgBpAXAG2em8ZTQB6c3sVejvloQnD6YCIbn4EgrbfbKiixXbHbJ9W5sb7JG1z9q9DzxsL7z0ssDVpXIj3ZGqrBEY9x79iopK7354+9vfaW3trZJ6iXbWmWe5p/nMs+tluqTYdW+93uucxuGAEkMoH2WLpPKpEMOIwhu2DpgYSERx/XBw6SXOZEArIlk1HFd3fHbutt/cavfde68dErg2v/KKbXt1o88j8j4yVcTRg0fsWHWtvMN0KTCzyklV9tBDf7bHHntUjHnYvvDlL9j7PvAeu/a6q8Q0JaxWxJJ+OgJZiYSDQB8Q0ignP8/3meA39hs97Rs3bRWA98heyPVWxCwIQBP2MKNyJdV0RtxjByIZO9vbLVWSjI+MZqZnuGpCQtJC6QIBSHxKBQChAtjJhi0qR5jWncz23qw06rDqY2xBQO//qCq/RyqYMT66HLJVqUm+7WVTa4sPitMHl4x0S050aU/fF0DLzs7zbyyhltjTA/6SZ6pAniTLnPFG1B2ruXw2KhKYStZBZysS28cGRTflZfFzaVmeXXrJhXaO7OBUSdxuOnyTU12yxSem2o6de+2FF1+x1aedZTNnz7EymStsGf/ss+vsoUcetZa2TmkOum2QtmzeIqml1AEXfAJcQYoFQNGIInARHHoUgkjR2UFHHLAXO9w2iw4eK6EwTQMXHeMPm2XcFxZskbrCCG9vxyjmm4lhkWt9fZMqQCKCroME7J9k7zxsa26R15Rvs+bOt4opk+2EbIIOiW/60vgqB6Qw3x37DtUxQEehwDd37lypHZZ28XmYBHlDGW6MMo8cWwnSadmoDyoRZrj9oBTpVkESYdSzJYHPdVIr9k5gXUe2F42JmRF4iz7BUDYWoCXNDpUPW44v9k+aPNm7D4LRDi+YS8b2mWyJxD61A1JlYcJhuiRCZC8hsZzf/s6wx8PewrDH9sEmFILcRKDDs7NL0lx5kBfvImHdsVDdpTm9km4y+q+++kr7+te/Zv/+la/Yd7/9n/axj97sK6JmzAq7SCOJOju6JSVHbOvWHfat7/yXff4LX3RT47iEwJ49B+Qk1Nqw6AJwfJyLVUe851PRBSJABjigH63y+kBZHWAR4iYiLwApHP47dh0dFEj/dI1kC2oG+6S3d8Cn7B5Riz4q26u2rt7H3bCFWCjhveAkqJfZ05XOztaWNoGVlUGptnLNmZIcqKWwV4PjXLQM9ss9HyLPYSuR2mhsaLDrrrvapk+b5PcylPbHP36zS4XW5ma1ZBVNtAEY7C0+AUPloZ6gF2CqpqQaAt1uOLsawzukbyns4BwcAHrfZZDLbmGVNtcMqrNgBaCh3pDSQXIEgx10t7a0+pYJDPgDFkDvHrTyAay8hwOA+g4qFMaEyvLN66S+yAua6bKhC4ODXnoGyhmuotExNwyQcd/TUSqYCfv27rKW1iarb+SzhvVS132+jz8gJG+6QgA5dbN1y3YJh722d98+q6mt8wXBLBCWm+7ahnoO3Tc0xICBQC/1fwo7EzHiQshvTngQBV44+ft1CRAAmP7nxoTfcZYmhvFdxhWrV9jlV19li5YtkXc3w6rUwmfPmWNFJYWYMW6gUjllZWW+D7272AJSzYHDNiz7IyK+R56pOOISAebBfIx13Hla7C23/Lc9eP999tijD9mlF1+k1sg+ZOwjjyShAzjsBINzQBhBlTitoU9J7PH4qFGAQfmwfzCAffsBvUvZg4kgUqSqcP2p/Gypbzzn0LDYnnPc56GRN2N/IU62SzK35yTpfU2A1CS/AQ5OBWqYRgBtlJn8oNmlnICD9w2NOAaAgvuo8gyBECky8ZMy0KBX3Y5kcxlm2uK9Rg4NoEdrMJkSSUqj5306T9nOgWnvAArDHgGFVKe/jC8bo9qZPYGHzv+h6vkv0ExwXsUOQpBgHBNuviF4QqcCG84R1Tslx8P0GIxn+oTmzJlli5YslGgds+b2NquTamTbAPrKevqZHdDr4h6xf7ym2m677Tf20MMP2c9/+hN79aUX7P4/3GNdHZ2SRMEoZ1YB0gsjl/lZDM0wwE0vNOv2jhw8JOnTawcP7LftW7d4i8QoRkVTYTABu4FWR6tF7SERAQUAoCBucPd0e4cseRLHRwp0n4pguye8xtycrJMducxEYOMTptVQfqbaFPm2nKo00UBaEZB5jt2IwQ9NvIN3CZ1IMqQCDQwAAUKkKd4eeeOZUtk0LlQn8ag2gMkmJXxzXDWn5yorFS/TAcnB5MPJU2fofrydaGz2mbxQA6iH1FhZi0nDpT+toLjEe/xdpSst37LcbU7xKFWaRWkyRKLoksQUiFLpGon9OsxQ1omHe5ERuCZG9msldNLQnxh4pJeJEKGZVvn0U0/a7FkzJKVKVLhplldYZHl5hWpZsWkrYi5TQ8KUFrV6gW3T5k2y2Tbb0cOHrL72mO3ft0ee5WGrnDLNrrjqaju8b7+3Aj4njHfkc6NUStQKlYWN1CIbh6GkaGEIFYx6hNGcqTSm8XhLFdM4SMe7J/RHpQE+V5sK2DqoVCQcQFm0MCzWDT31NCY8scBAgKiMPC1GCQA9M08DmGN7YygeXjNSyE0LgSWSloAcmpFi5EX62JTEg26kqO9xoTjk7734Akv0Ph5lulR3WoZUZd+APf74M66G21sEqr5uu+P399sf73vAnpTRzt4XmErkh2mADYrqw8aEH5ddfqkDjU7zVjkkVH1Kcrx3tl5xxWXeSOnfIy5lJkQ4AC8InIkYIiR8+ctfeU03xZsCLRYmPgvXYWiATFiAytaUZ55xul1y2eVWNWmq1AFDQylqZW1WVFqqFndCXpIqR0TiTZWXl9oXPv953/XwAx98n51+xmmySdIk/SSVZZNdcdVVduzQIUsRo/ket9tvsdbMUAmMQoJTRrQ9qoPpKHhQVICo8wpAYvk6Q10DHCoyfJRdnqmACoAZTfCBaXl7vjpa71A+Bp6RVDAPB4HpNmmpGS5ZM9IylR4dnnQhhI5TAkv06GrAZvMxTVWk98Gp3AgDJhkCwAypWJ4Lcp5+hsAGuEgnWgsJb2lMqFTiChdqzGHfCu+MVbEY+8zIZLPhPnvmmfXOmwxJnrgxNSDRzDQh+Ibx79/n9gbPlgKy4WTvljHnv7jYvv7Nr9uShYvtLddea/MkKA4f2i9P9Lj3/l955ZUOLLxk+A4vwYDjS3SG60DzRJz8zW6Kvx1k9PGqjGnsAJLh4wOXXH6l8R1uKoI553gf9KOwEIMFnniDGK4sEqFrYMqU6b6AYtWa02z5qlX+8Sj6lWL0qW2g3rAxJM7FTaQWxiytWw+RI3720QFVIGdfCCEmIn2RFiJV6aly45kjJTqkygE6IwWoKIZoSISWT0W5RFBlo8oqKsq9NbN5HQedn30yllFXrFOkR50KB9As6m1srPcRCubIw3BsLmjEpmKJGFu7s0QfuuAB8/e9FAIodpyrZboykGZiqgMd5uqgIWCK0EWRRpeFKpy08ItpKNhZ8K1HavXSSy+2f/3UP9vPf/Zje/ihP9st//1jKy4oNDqXaDTsl48HvHTpEt/LjL1D7pMtyxTvl1580QoLC2zh/HlS+7kuTalnH5eV3SxqvL7BDkcEpugcBX5D8/8pkBbJRWhFqtD5iZcD0lPTU2z+/Dl21prT1Rpm+6eRWdDqmdItoINhDjw35r2PDdOO4wW0M9QyM/y3akHSRIa4LEvARWHcm1OloW4ALJ2NmVkyeAUMNudghgeLKjiwSMeFQwa2B5WOElTaAk5OrghHBdF5iv0TpqckpSAd5QEKiCn6zRSk+hO1qtBgUwkl3k1Q33hC7zGRsNvP2Cn0U2WkJ1tZcZGcj2SBM1sGdqb3tI+Ny8uVCsNY9gF50ZOsvNTm5STI4BeNrMxOVZ5oH2hj8z66XvjIFVOifQxQ5We4iH47TAa83bw8GfEY5uKjdxvpdeZ3YesekEdYd6JOtA/6pAMaJwDuk8plvhtjx2tOWyNeprlq37dnr8qQ6hKL707RsDJUn8xHw2ZlupIqQ/+CHQoCAHwELMyV1wTR6wCLIhBOXut86jrcj44ocI3RiMhEMpUUl3onI+4zoGlvbbb6mmO2Yf2ztuH59b6DIDu6YGTSMZqTl28lUp20PEBJZ+zhfQf9q694iSytYgkYXmmK7IRMVQKT5Oim4EOnuVIxefqNWmW1DZ8P5uv/dM7i7aFu8iQ1WD6WKYAzPw21R4sErEgZgJkjhjLTgXRYxZwOcAW8dDUSKpHGAsB5j/n32UorVRK5qLjA8gpyLL8wz/KLVNGZklYCJyMUbEjH1prdXZ1Su7LnZDcNqqLZ1Rknhwqi+4LndHHgEQNGNh8BbJwBIk4UZ9QZY7B0jTBdKB0aBGQ6ixEpzDTFiaDeFd1Ky/IFpl6VKXwnySWiAmOo1Bnlv+iii2zB4oW+jTmr3G+88UY775xz7MILz/elfNiPGPIMrlN23+kIeal39U8BlyDgIcIFJslJjHAdLfqYKOomXnvQ5cTfiG0/y0BEKtDiMFKxgVhNxFScdWoBD9z7Bzu4f5/bNxmZuT71tlAgPFZbJ1XT5R+W+uD732cXX3SB7w9aVlZka/90v+yIZ+3wsRP2vR99386QXXb44AEX56gyVA2tCtXmK6WRe6r8pEQMaIFGquOUB4faU0XSalXJGemZrt6wfwAUwKZVExcbCZWGo0DlMScLPpCHG+oCJvYdTg33YSQg9mniYjz9XBj5UXcABjH2GRKasUYkR9SHxCYu7H1KAFxIad6DrmDwy5inQt2pkVQWbaFhxKnxMSxFPGyeUU+faeXHjh5WQ8i0r/zb16TKG+2bX/u8pSaNyvatsrScYjtS3Whf/+b3JJGbvN4YFfnKv3/JPvTBD9qvf3ObHTp0wD77qX+1Ta++ZLXVR+zFl1/yTyhu37bVefDzX/zK+gb7RI9MC6lLHx0RDwA9AKFs8OX1IXyIQff5z403hf8JYB54JwYwWhnS6aEH77cZUybb8ePVLprbJMEOHNjvO7kMDo5abl6Bqf3ZoWPHxFlBQwyaNX2avbBhg/3zP/6DHT68z3YzuCrXml1cRkTHJL4nrRYIEHDZmQxI3owzAuju3m43pllhBOMBCXEpC7392Eqh8pJk4/T7YlnUQ3u3DHdVIs+ilupdGMozAgNGPZKZ8jOHi1EFjG2e0XKZi4aUJE/AzeA3wzWAGfsPfnMmNqqEXRtRL9CnF9zbZS4W3rRv2658AK7PIFE8JBTeKX1f7OLNdCUAiZngEl9pIAWpVj5lTd/bgw89LEnWa5dfco7NmFpuW7bsst0HjtugEu/u7hff2QlI0jwny+ob6uzW2++QyZBtL214wS675BLb8OJztvahB+2tb3+HPfP00/bC88/7VKsf/eiHscYoUEmKuTkv0BNooBHAXo+TuN6efsEEayA85AhIJCIcip2QvbGAB0ZL5Bn2EYVulIf4/vfcYOWlRTZNri6fE26S3sfFZpB1WK5hYnKaHa9lVXIw4vGmFktEP/nkk/Yv//wJ271ju1ULfMkJ8rqG6DdSPLVgagoVQ18aC2AxtOnmwNDlUyhsqcRsAJaD0R3y0isvuY2WJjXmHZGiDwC2dXTqndA7DoO8K0MSizWPdGayPB6AuFOhlorRTdm9KwKgCNS8x5I5jHSfF6Y7gadhDhfADr3vo0pH/BHNDIgzZ56ihLjYrPCb38FuIh05aFyosjA9sF94oppRHLYlgCaGtfSqgK28SVtlo3KZ5CjF5zM5UmkE8SNWkJ9p+QUltv7FzZacyvRtJmTGWUVZuSRYijU2NVpxWal94uMft8UL5wvYibZj+xZ7ecOL1trcatXVx3zdxOIlC/ybUjTIYdnG46KB8oZO6KAyo/AGgEWfkokiwSAQGQEtOkfSjaC27a2N6cYAjP6ppsYT9oGbbpRdLRWiCmexJh2rnVKFfB65W0dHl2ySHkmB5FSpoXSvEGbArl37Z/v2N//d7r3nHmtubBKwVBkqBP1ngIMWPRjrXmAAGoCzKnyZwHnWGSstRfdQbQxCM5Phxz+7xd77vhsEbvKWZ6YKZhbr7+/6g338Ex/1DkxsRLoNcDYef/xxe/9N7xEgxowPDlD5zHXfLsBfc8218srYZpzP9bVbmmyhHTt32yWXXmp1x2t0P3zeuFyVxse9LrjwAjWAFgcY/X6lsm/+dN/9/mkWDHTK3am0cyTN//LQozZ/3hz/EAKTK8Vsn0DJlJmZ06bZTNlBqHyGcvqV/3PrN1jPAF55uiqZfjwBRkDDCaGMeKzYdJgFudlpVlSSJyCm2brnN8qLl2MjkDPHDCEAkptamqX2BnzAnTovLykVCUGy4lSg/lqamm36rKn285/fIv4P+2LceElS4OKzKmL4iMLrAXYKNbFARoAJiebDBAqvf4m24kEJh63FQwjDOcxJT/Q9G1gdffRotet99gXz/hkMbQEUolAbGLD0DeESL1w0z2aqMOdfcIbNnjPdKiqLJJ5nWFl5gVRlsc2YWWnTp1bZ/AUzbZ7u5+Rm2KyZU+zggV22Z/cu31uC4SdmMEyePFmtNV6eUpHdcOMNNkWqG7XCTjJUSFZOhl17zZW2fOliN+4XLGCffJg2rvzPtWXLl7pzcMbpp8m7pIyDdt21l9n82dOtWJLh0gvP0fNkATpT8c+yhQtnywTIsDPPXC0QoXZ75f4vsTUrlsqzzLMLzzvTJlWViQc9tnzZIrvgvLMsV++ffdZqO+/cNfKEE+3Ci862mz/yfitSua6/+mK75tLzrCAjydYsn2fvf/d1Nnt6hSpMPB+RWhxm1xxm3XZbDwPg4/IUm+pkDg9ZogyR3s522Wt9viA3U44LnaXYiYx9MmyGBsLgx1xIkHTPyc5VgxuRBzrukr5LDVMCHhS4NvCZwAIUIQAKTIgWYSQIojfihOCLACci0MGl3+7ySgRy7b8nSLCA2gAygBgFiBiWVGLfqmJ5h3xWprtTHpSAx47JzW0MfwQ1ApDJtqez2z2YGTNn22c+8zm3QTCaEfmoeAaoAeWe3dvt5z/7uX3nu993r3Kgv8eOHzlgcbKNps6YZVVVM3y2QFNzk6XJsyworbSr5y5UPnQoZlrZpKk+8zMpLdPOvvBiVw/Z+YW+C2NmTq4/T1I+bA9a39Bgk6dOd6M5XjbamjPOsSPMtBXdq884w/YcOOSLJ8676BLjw5+oa/r08opKbFyVVV41xYorKn0KOJKKpft8ObawVKpJNt2kabMEWqnwrBx5njmWmJphS1astnw5QKlqHAPysFOy8mwkLkWNmbFCqbykFAf9/KVLLUdSesGSRZIqt1q5yjxl6hQ5Rk/aeeeda6z2fuaJJ+20VSusclK57Nh4SeIDkshIuyTnnW+zoHpjQxq+oMK0azQFqpmdgNgykwkEOFU+8iEbG1ubxhs35Kg7CSZMkIAH7vktDwF0Uuv8mIi86AHnvxaiRwCAzACMDy7rJ98aXLZsiRg/6OJ0b/te3/Cf6SXlKSXW0tql3z0S6fI61Xq2yahfc9oZyjMsO6O7IaxioVd83PcNW75suYDWZw3NbfaVr37d+3nK1DLzc9Nt6cIFlltSab3DEvmdvXa0rtGq65tsSI5CjxyLJEmx9s4+27p9r3UNyJuULZhtyarcfEvOyLG9h161A/JY+0Z0P7/Yenu6bKrAvnffXhnHRwSIHMsvqpTq4htK5VJfL9iOfQdsPCnNKqZM91m52Rnp9uCDD9m2XQftn4or7byqaeIJg+hpdueddyiPOvtA+VSbLEnAaASfznn66Wetpqnbps9eaJVVFd45ivH8xDPPW3VDh5VPneugLZ3eayUVpbZtN8Nn023ajJk+xkv/1wUXXKBKSLApktZbtmzy/TXcXGlukeQut8bGdvvTXx6Vk9UhaYQaHHU1CpBkAPv1aB9eaJLNFx/ZP7dZDRTvtEsSkD67/h7Z2KhGaR+6aOhvw1uOMBP6w16LoQg/HDILTj0gTAQWz6LIEwOi0w1QVTQdfgPDYS0hsyIuOv9cgWfYmYghif1UU1MjY5HuC4loiWrmggMexC+rovuwJZQc3/xuaevxSXWRNzg61mQ7dx32FoU73tS8XTTF20Y9KyvNt0svvdqK1IoS49PdlvElXyK3XzZJdoKMfDGDrY0GR+Ksq2fQ2Mufb4JnSiKkZmT7YtNBqfUO2Vn0XgO8bjklDY2dav0yqNUG4yWRkXYjKjj9v3UMHss0OHjoqNR0rhpFkbxTPkyqMsh+bG1v9QZRUV5pecUV1s1WA5Yk6cluz2EaEsNnvnxODaFNZcZjZU9+VlazSjwuMc0OHK21STNme8ft4eoX7Xe/v1s2mFSjTBCqhG4Mn+kKJ1Xxa59YL1WnPJTf//vyfyofdvJOU3xJQYEEjxdBANDwmJmEsGzlCps9a6bU9Dm+RvOZp8P6CTqzb/nJj7zuqWt2y548eZJ4j5oM07NwLqJAvNdjid9v+imZKPKbvURAjfkzZUTAVsOeKsjPtWxJqvkLFko9pLmKZRAbw5bVPrW1dQ4ShoLofHS1C3YBLJ6JgMM+Dcx94jaj+hj6fPYvhZXcMmj5TZwwq2JE4NttL7+6UYx5xtavW2e7d++2Rhmv+w8clC3R4TM4b/vt7fbyyxu9+4BJjs88x2zNR+zJZ56R17RDoG73bcO7pBKYJHnfnx6wrbIfW6TSDx45LMnZLGCM2p2/u0vu/Mu+/dTxmjrlcUiSotQ2btpiD/z5L55O7YkTtmXrNuNb17v27JFh/oKdkMrliyIbXt0kNbfCV1k//uTTUtPNPleOKdll5RX2xNNP27oX+EKaABxbt1kl2/GZp56xTVu22XGlLejJE06XqsuW9y6NIeAnJopnOuimQSmlpebIw2WeWYo3DnhLg6XHH7sSlYeaZFjtE5/8pO3bu1dpjbpHz1JDJNcZp69RQ4+z7Vu3q6GU2kqp53x2CBfPqaeJ4IowMvEcYefv3l1nYgBgjLjjPtPXNDwyKF0+ZG1N9d7ngzHd2tZm69avE4Gb7djRI/K+MsU4eVdyxTu6e2X0d0t9yf0XIWq+nmbkJTqZuOkAUAFiCZHtBvpoSfRO06UwKk9OBPl9xD3eDTMn6CDs7Q/rLtPVkmm5vE+DoHngruCai2BVXOhuwQHxJWfJCcZ4HVtQEpVujn48YNmZPr9ftAAARg+iyYMwlA5U1H+2GtvAENOMiE83gtSN7EmcDrpTaJzEp2KRQIx/0qeH18cmJ8OjLEQZtTxpgp6ubi8L36b80Ic/YnfccZdXNHRGnbMEVBkD70kCFx2wlAde4NHiSbGwNz8vS4UZdVV4wQUX2rwFiySdTthll10i06TdO2yfe/opmzZlksWLV8+pEU6bNslu/viHbfqM6ZKwY9YjTcNwXlCPKonyj+qIMPF3oOx/GbwPzBMfC8SLQXQv0KKrpk6TkVtps+fOlnd1vn3pS1/0j1/29YVJenRqMhgNcfAFYJFSIIi+psB4gMsIAXlwoE4xOP3jp3rGsjWADNCYypuUki51l+Ibjkj06R6qF6BI4uGGK5MUmKL7iUhJqQ2AQgAE5J6iyk0Q4HzLSklRGhGeE526eMuMs8bxjuL3C9Rsl8m8LCqVwjBzIUXSNl2GO2CAL/SZ0dmLuqdTlz68hPgw14zxQpwEnrMz9PAIC3C7vRsDb5yJgqycyszOUfoCqRpGedUkGevSAnQOi15UNod/6li8oNHzGUIWg/gmxuIhNhcD5Ay18SGFwO8x37Fx+tTJ9m9f+ZLAdr5rhzVr1thXvvJly8/Jsu72diuUCcBkQwbcaZjUy6lRh2CLRWDimsDvUIf/RwkGEGCeJ6QysGy/RWqJCXArVixXgeL9e0BbNm8yvjn4tf/4qquS7q4+a2vvtloZ4a4SlfMYHHSwko48GewE3aJT72RPMflwQb8bJxjphTpVIOaDOeCU1smuFj0GmHjE4o3xcYOwES6/kRtM6SF/KkaA1/1onM7j6CXOPvNB97AhCdDJmOeVV17l+88Sx20b6FY8Oj9hLt0Dn/3sp91E8CEjSTs+PsEICDvj9PR0u/SjA7RN0gNbEfUXJhmarZPKr69vNNYwsmKKfdbgha9nUCPi+0HEo5TYRJRdZIj/SPEwYhBGN9gPXx6rN5xE0TLg4P7Fz39u5WWVNmPWDK+zpqZW271zuy1eMNfuvfNW2/jqK76qKzc/2z75D5+wUoF7SLasLF6xHv6gZQBSqCcC9yJw+fPY/f910LueOIWjeyItXZWn1ngcd16VzVSSstIS27Zls6VJssCA9o7O0Cuud6hgmBARwhm9jkTzIPcaAFEZDgYBJDGBoRzABcjo7Wbogh5zZkbQyx3edXDpT6n7e1S8EnY70OdUyQZh6g7DPj6HLPYu02dEgioBOy98CQ2JSfl4jx2xkaL03fUKHC88v87zB1DwAlXtWykBWL1XIJvlAx/4oH8Y/xmpmldeecU2b94sz3mLbdy40Tbpmq07q48f8w7ejnbWLPZ5mpdffqkAman78gAlPZGuSSo/c9HoVFbx9E8ahL6rGKApLPPE2J82j8WzklysJc3KyXRJ6R91hRWSuHT/hO8nSV3K5huSc1Enu7KuptYeeeghO3j4oM8wYYENHj3Tr8McPIHXDX3qgCMALTqcDgU3ZRRO9uS/WYgivz6MJ6jyeKaaIw69vrt2bLf/+s437R3XX+82SH5RkX9pdv/uHXb4yDH7tQxtNjjr7ZW0E9AAEIQirbBCSMenxNAEFbjvtl5MolDJzlQAJzYxtBJ0vcf2OPwmPnPQAI2rPjSqKl8KRJXPCIHyk/fFllKCRGAKz8lPd6g7+nbICxa59BQdzMSlyIzTwF6WjLHvl+SFqyvSYfjGHR6na8xtlqdluM+fN99nufKMsU36+AACHZjMxWeMEy+Pd6ACjnz729+x9evXe3cG5UJiMXxGficbJqDWe9BFRXs/llQa6wAADuOYdJWggnnOLBOfyaqG09ff5WPGt996hxpT2EOWVd/1J2rs1VdesNLiHBcSf7jnfluyaK598CMftAIJjJTkbAFaYPI8g6R6swA/CH8TYKcCCcUuFRgigole4aHWbeeOnfaBm95tM6XTp06ucjHPNBH2RcWra5FqpJe4q1ueHD3J8EoB0UwlQlAQ/7F0Y8DiDzuIZ+SDdKCFkz2MZliHinNVpnccZDFa6ULhh6cPM8RcOkVHBIhFixbZ937wXevv7Yp5VpKCjPUpP+wXOnt7ZDd29vbaC/Lsfnv7nXqe7NJEGYkmJC5gGPdNX0AmH2JlnwjGWEEyEw/f+tbr7fbbf+ddN/SBscKdbQYoB3aYqPJldnx0C/sGIOBlX3311b6d0o6dOyxZdiOru4kPXYEvvAkUg21K/VB2GIPkBTCMbDB0hjPQ3dOjxt1tlRUV7rgws5cpRQX5+fbxj33MZkyf7hMq2Ty4uvqw1HafpNlxe/GFDf5pwI99/GarmDxJaSlT0e4SHzp0TFSREeBOngEYkfzHRBRNCCGRCWjF+BaEfQmWKo3723fssPfe8G5rb2myovw8K8rL8YLQlcAiT3bwG8AalYGLcczcbjgET04SEztjB3HlYlb33BHgDHh0jwN16s9jgRJ4dYNDXfAMKYhxGsfYmRIMFRjnS7dYgXTPvb8XU+tlF9Xbpo0vezp8Zpi+KuylkjKmEhfZQw8/bt/85nfEVzkGkiQ3vecGW7lsqdXUVPsg/4yZ01xN9vaz+3W6HTl2zHe4pguFb1RmSHK75NWB8e496aIDiUXjATj0kkN81GiYYqQS+zPGfqmDsA6BL3/AnSDFkMzORw7xhOEexl1xpijDpKoql2DQw0A3m9L4BylolDL4mZTAu5UVlb61O30fDQ11stEkEKQS29vabM3pq+2m975HTkG5+Mw+FcpSdAaJS4CeEKI6JHDtRv5EgEXXhIn3/QwlVJquPW39pgdeJqbt2rnLbnzXDdbV3mbxIhL145FU6BFJESp51JGfLJaIMTGA0SdzUkJ5kkHiEFBxDhQIjR1uzOoMbRF9J8EmCenSTSDBu0XluaoFmLpGpSSIJj6S+qH3v8f+7etfsbvu+q2qDxW/1bo7O2yqKiQ/P9cOHjlqBSXFYmqF9XUN2Le+/QM5IOkyxNPt17/6qU2qLLNv/sfXJZHCVlAHDx2UB5pmC+Yv8dmhW7ZvtylTZ9jBg4dd6oS9VQPtmATezUMZuBbtPg8f21CNlo91tbd1ChgDbvewF5teDbai3ifwLpKaX5QvwXecwQHB4B+xAklPBvSxMWldig3XpeKQomwwzMvYruKN7xXW70NGZISUZ2PAHMaN1VrXnLnK3vf+93oXyxidz1QdTlosQAs0RPURBa+zCGAR4YQoYnSOngVDGJUFUWIQ9+UlIhn2qLW+54YbffPe4oICmzplkgOPD8HDqI7OHqnJTpdivomGCuKMIU2lDbAmgodn0XXUqedTU15XEK49nv4AlPdlKb6nwX3sKZ05BZtuUC2zx9737mvsjDNXSAVtlWo7aL0ypgvEeHaX8Y1TFBdJy0wKvh53tLpNtla8lU2abD/84bdtWGlUSBowYpGYmmTpOexIw3KyYaurPSH6E23z1p32m1t/K++5W2XAkZB0ogyq9IiXNCYahUoicGBEA6KwapyFNAAsQZWKdOJdyqL/9K5kF+x3ftClESZcYpDjjND3x+xfdlWku8I55qZFnDsPPiM2DYnI2lA0QliNReojMuxZuNLf22/dHT12+pmr7WMfu9m/NSVIOqfhJ3TA+6ieonMU+H1yn/w3C9HL0XV05ioko0TVEvDm6Ad75OGHbPq0qd4Pxl4SzOE+Vl3tIpkZlIlSH4h8DhctvK/0UImizFuyAyMGrokhAkx0TYjiEB9mIyGwxfQgxFW0iN4kMVmCUioi2y49f6WtXlpleRnDJnPXygrTbP6scptWlW+zZ5Tb5Ip8XctJKc6wBbMrrbQo03f/q64+4f1t4+PDtmXTBjvnjDPU8gd89gFDXtFiF5wXptgcP15nr7z8ioz/JO8ADuWFYHb0wZhBCqvsCt649AA1SnnCfrFMtMS+DCuxcXQAI2kw0xVnDm/VGw62odJjdixSCsCwIAV2sIqLbIOtxMZ5bG4sk0Wqk7phJkXYF03piw567NOYESLbrUuCoUpe6YoVy/y+m6DYGxTC0zyFkSjwO9ShtAsAi933ECHxzV6KAnrfDVwxR5jlJWuRB7J506s2bfoU/2TK6WedaW97+9utSYYjc7Ia2aVPmTLk4+sR1QQi49AlIoxWFuxDT16AbaIU40xfki5cokV2GnF4jl3jIOQdHZDlkkGX9KSjKhISxuzmD73DPv+pm2xSaYLNnpZrC+ZNssVLZtri+VNt3swqmzdvss3X9YL5k+T9Veq6wubOCZ8Vrqtrsaa2ITvn3HN8w5Nly5b7Smi+s32irsGmT5+lbCU9MQVE42Gpx+1Slcx0pXOSviifPYuHq4OugqiskZSOyosN5mOViu+ritx+ROLBJ12rDhxgYgKgJABknwUrCYSHiqoEcL40zh0cea/iBclhCzIWedVV11pJSamdccaZNnXqdLe5cNiZN4bpwmeXy8uKbPXqVeJhitJKVv6BVgL0TjxPxA/5vOn+YIjviS9G1yHQ4oK0CdhSixIhLGSgt/7C88+zK6643D2YDLUKViiz6prtt1k4ynhif59ar5I8KZF0ADIAR0UyfBJAAmMDDRCOTYZK9QrRGa8PVxrVyYAti0SQCD69RGfARhMGzOkZ5NttC+dW2qqllTY2WCvV0yl1IG9XLvvIUJ9aurxHlWF0qF9eVLd+9+u629JS4+3wkRP22FMb7UTzgB2QfbZz1z677/4H7N57H7Q/PfiwPfnkM7Z7936rq2+0Z9et901E+IQNEo59NKAFO4tzRiZdFcxQCDN7vcwuZUJ/HpMt8XSHBRQWn2Rnpst5iJN0TJS0SbecLMYU2ZciXp4yXR+yayWRAAR8BMysVPdvZKrsgDUCsAdlCi3wcOWqlf6tJBrsVVde7ZMRKsrLLV/mAhMM2pobZbNl+ry4ZJ8Nkur1FIWJOInO0bWDLerJj2yCieE19/AcFXhJOXsmDEuoLYg5w3ZC3tRuudQXXnCB73nPEAqzKF566UW7//779CJTilkpbT4vjL2nUAnKwdP0DlCyiRHo+Si4hOKsVguIR+gLEniiOIAUOqNBdObcFxTkeUXRrSCYKVHWDWLjDdpVlyyyj3/gPBvpOmxp8YwbokYYEE7191OlAjkz1z09QzZJwqikaqo9v+GYfeYrd9rRJixLVhdKKogP2Gl0P/CtbegE7DgTLPRgjy0Wqxw9etSlF0NNzLIIUofV8N1uD2E/DitP7FrsKD74EKdGwhSe1SuX+3fQMTH4iBb8YE498/uZOUGjTZZW+NjH/9n6BpB4THHKVBqh8xUgISl9cqFAFqR6aMhlAtYNN90oKXalr6Hwz/2oHl9+cZ1/1q+nq8VeefFZy1D5b/7Yx32eW0IyHz6VFPR6OgW0vxZeY+RHZ6SGc4sQXU8EmIKS1zVxMU4HfQEBK4pWrVwppvYb+yu8unGjlUiSfflLX/S4jU0ylAdGrLOHbZDCfhOevP6DcVSYpw/xnguXAXBITpZyffaznxeDU319IgEJGpwDJJXJcF9j5eUVvg6QXufcrByBRIyW0xOfIFV+YotVFfao4McsK3nMTtQ2qpIL9TzT2qT22EaqsaHFVUxmFjM7BM6URHvxleP2j5+91Wo61CzYFchpZT8OVlhnyCBm85M478DlewF4ameefrqkVL8k2SHlkeEShenaEh1eVioeKcR9NgdmzI/hINYfjMuzW7Ronp0lyVFRnu+jAq1tLTI1Gr38jIjU15ywCy+62FIzcu0d73yf9Yq37e2S4uIlMyfoh2uTV09eDEmpqtQgxSfhAr6x4Pa73/+u7+TDTNfHH3/CCnNzxJNq3xAwXZJ7/dOPi/Xj9rFPfMIqJk1RAqnGZ5nRDNhs/1P46xCMavhNgle6CuHXOmgldODN5mseamnsyUULASwH9u21MYnoyZOqrEhMwlDlfd5B8qjELtJhAiHAV3WgeJFbztEul/v666+3t7/tbb5m77TTTrPTT19jF5x/gc+DRy1fdsUltmLlCnvhxfW+7cB5553nY6NrVq+0M9astqOHD/r6SICB9MSAListlxQbl7fFfLByG+wfs/y8EnlUWWoo7NgsO0kqCzUjYSFaoA65K4Wma+7j0tO5ycNgH44KdGEjO4Ib5rrma7+sb0RqAWDKjHRkYL1PQOzuYVch3mGBcaK96+3X2003vdMuvuQ8W75ivp111ip7y1sut8uvuMDe9rZrbOasKb4jIaYDIwF46/CPEQs6ueEfeaB+6UPDDuU+9+gbW33aapsxY4Z4wNrUFN/2oVIG/bXi3cJ58624oFi8UnpqwKhtGhCNGcHw94CL+vetA4LU0J3Aj1DL3ArcPHmfeFGFe0edqzUim8Rrk8+tYkdjtmHq7eq0alXo/l27/Te74LRKBMdDMDYWf6Svf9gjUV7YEG70iylRfuHM3Kd8e+SRR+wd73iHAHWlvePt77T3v+/99par3mKrV6y001atklG91YdH+JTedQLkhz/8EZs7aw69KTYsZyP6WgYLPmhfwyN4aOm6F28dHX2iJ1luvhiYlA7KXQX61BmmDKa68HGzIdCnRCVZWWvJDIjBQbYgwKsbl/QLG99hlGNs0+lMtwMVxDW96vRFsYCCxRt0xtKoMNDxEPlY6aBswfaOFhnjTd5HB2/bJJn7WbTSLimbluJAxiAPW1oxkC+QuyE/HvYE45746aaEpA5dHd5wdW/Lli1S0z2+Gc1Rvq5y7Kg98dhj9vhja+UB19jBgwfV8LoEvjSVI1YXlF2HMqC6Tp0VHEcTAvFP7tHq0oQwIY5XLH/+LDzwTPgJwVwgd/Vsz+7ddteddxr7jULo2OCIlZeU2cF9+3xTlLbWDlWKJIJEddg3VW8BJL1L+vyGERGgAqgkJXRGKjBYu0YtjiX5c2bNsksvudguv/xye6tAxHe/mYM+c+YMWymbpe5EvS1duswulGSrPnrQSgqybcmCWUpHdsl4j5WWZFj8aKcsqTG54QPW3NijvFkyXyR1mKYymeXm0xnJwLUMZAGlpq7dHlm707oH2H4gw2ZOm24LlW9ZeYlsmWKbMnmSTZpc6VziXewjbEG6I5hpQj8VK6+ReAASCYJUoZzM9SIwwyFUEn2No3buuWfZJEkUzJMAumihLdsKpPr3HOPjU6Ti8u2OO++2wWF4ydI6mBvmxo3Q74btBT91AERfmaWWcrzmuDxc9uJItx07dvgazR4BmY/w1whgDCUdO3bEsqQ+V0tjZGTmqMFJ24TkQ1055eF64jkKbwTYm4QAgKDCPAH9pkVwK9h54yLkmP3w+z+wLrm5tceq7ZmnnrKnH3/Sl3IxNyrslyCjeiQwwaUfrUHvIrLJA6zCjJPg0n3yRZ36t7/PPssmV1W6y1xRUWVz5s217Pw8qYrprgpZRZMtm+uoaEF6sOfE4QN7BPZe6+tsE5nDlpefIpsm05Li5KEpL9ngqgTlOSqViZoZ7JGq6pDa7BdlgwIcLT/OGup7bMMr21VrRfbP//BJ++iHP2g33PAuqd8VdtqaFbZg4TyfI3++1HKWvESGmwBOR0e7G/OoQbxHhm9852qVHd5hsLu9J8OccjNuKBEv/o7ZOWee7jsQMVpCQPoBGLoLmNELwPhKW2Zmnt31uz/qGbMu2GxFZZLUdHXtKi30b8FPJC8jD0ADdblt6xbjc9dVFeXGR+t9/PH5dVZbUyd+jcnmq7cq8XzpsuWWLt7Kf3cbk4BAiMJfA5jH8Ju8o8MrPpYAZz+AbCx45SOBXMWE36LbxSaJrXv2OduyabPEeZfP+MzIzvZJc6yH7JdUY4UyswlQi9gm7Aojq8xVJ7nABAKqBQah72EqQ02NdY1iEGNyKTZ1+jTLkQPRJmP/iWeftP0Hd4mZw9ZQVydV3GybXn1VNkSeXXfN1XbtFVdb9cFjFi9CWPWECGZv0oFhAVqqMK+A1UX9rgLz8tIkyVA9eHbdKjvqPOwlxp4RLEFLlmf50x99x+66/Zf2zOMP29q//Ml+/Ytb7M47bpUk3ynpJcdCf5MqJ4tXbBMQ9vJi9gVlHMUTppg6MbOjQ42yoe6Ej5GSn09gVHzqDzXsG/9iVKuemKqDN0hjRAry8Qmm+LCPBo2QLhopZeVDBuKr4ntvP9dKgyElGl8eA+F5Ba4yN738suj/uf3ipz+zRx58yDtXmf5+WGqTrTRz8gtd2zg24gVQhIFoiYQOIeAAgRDDjA7CKQjGQgSmKJJ37L0u+DOKABgUPYBCIlzXjAMeV8vaf+iI1TU0WnObWnBvv6mxKEpQgYhnWi3DFT7koTzCRD/c9JCfezsxGniGGGdZ/Nq1T1pRcalV19TYk08+bn/8w+/tpeefs6effMI2yWvlo1t8lvjZp5+x+++9155Y+6i99NJLdqKxXepA7rvsP4rke8LKy8zJyRWTB60E4NCHGDdorS01Nj7SK5DJuGcelcQcMzMSJEkKc1Otsf645eek2fyZU23FsgW2asViO/esM+zfv/Y1e+e73mnnnnOOPOcvW1Vllc9iYAU2XEUSI1m8C0XXKpo7OKhKuiE4iIjU4RlVAb+QrN5zD9e9PjAbkPAjgYfuSQf+wS8CfWLIDV/ooQv+GF1hRgtRmG7ExnP+EVTdaGtvdw+VOXusT9i0bYs1Nje7xvFV5oBU8fia8WtDoIm8sJ1fExT/DQAjOEE6SBRC/1ZQ8n7GkOWd0soKK5FHOX3OHFu8fLlNmTbVpsteycnJE7Ejii0DW2jDVvMpwboHOBGsEXMocAQul2SiI1TOqH/MgalAiPH25norlk1WmpdjPTJ61z2z3t1x+oaw9fha/sgYGwBLNasC2BkQu8TLJsnCduB9PWzXyWJd9tZiVsO48QHPlFQ2VInzimASIR+05wMMLKvraG31zk92ruljNoK4yGdysmSbFRQWK50EdzR04faWl0vX2FDQzm94S5m4D8h6fQ0iwAkSm1foo3OOBLb4OwTop2GSHrNmic8cPOZ1kQZSLuInYI68WR/nxPIURgAF6bHyK0UgZXsHHI502WFJqHC9MyAw9fbGNp2RKqb/mg3rvIV6IN3oOEnmycBvpxiCJ54JXEcHhE787c/582f+06UMm3Tgvc1fuNgWLVthecXFVltfZ83tzVZUlm/lFSWKL/tC77S1tvkHGQjep6QzYPbKUCBtgEZOMBDJxlFdc8yaGmrtvDNPs7MkOa675EJ7z/XX2U3veJvNmFoZjOmBHlu+fLEVSfXlZPCJF/ZdTbC0FGwPOnipSOWnMz3hNdUHpX6rfRXNQN+AHTl81Drpj5Lkcq93SI1C16i4LBm6Wdl5Pu37mCT1rLmLbNLUmZIOGb73BpuDQDOzRtMEwjh5dAxj4dkxEM2AcuQ1YxfxASsOb0BqeDQigILHx9x9Oq1Qc7DC+/p05qAfDH51CbC862sDHEDBi2THIfIIYGUV91CYii3wMx2IQXwCtLCApKiswmbMnesfJZsxa6bMhDyp+mwvD54oOtn/nI4gdILEDNLLPcuT98K1C6gvfemNQ0UTW4rodaJd6U8IpOGT/CSesZWOHz9m+w/ss0svvcSuect1tnzFClu0dJG71EePHvHCpanFwwxshtAXpaqmPhTIi0vO2BoelAlpewliROOqr1i6wCoKs6yntcHGh9TyZT8x1PPKxm2SmDOsRRJGDrlddOHZNkOeXQ5DM4pXUl5gpaXZVpCTZPG9bZaoCo0Tg3PSMi1TFRYvxsu8skLZUIlibJxsxVE5JgPdg9bYMmCbdx6zHfsafJ0hi1ua2nvsN7f/3p55/iXbsnmHvfzKRtu9Z49t3LzV9uzb6yurjqjsbKJCPxlTtGlMzCmLKgFV6cM7eu6qTlKD8tPVce45Z0nNlisWPGazYr6jFFvKLwAfP35cEpb9zQrsj398QJphTABVBet9H3dUmfyb4Eqf0QkGqUPaAHXUpSs7ZX/kox+1D3/kZrvwogtVRxk2WTzLz8n2j/F3drbLQ6600+TBs3GxqFN9BHyEMohP+h1hJgr85vmbjkVizHkAV1Flu4w5FRC7pI9twDW74ZXLZad/qkytAQlA73VdtSROU6MqtlgGtRgrBrBXKLYASQdAATYn9WSeHIDLr/UMacZvOjUXz5tu433tdmjHRmtrrLUWHbt371IFb7fFS1fYgUMHrLm5wU7UHre927dL4jW4Op48ZZLlyXaywU5rOXrYRgX6HuZddfRar47O5nZrb2yxrpY26+Tc1Gp9Hd1yGjqtvrnPNu46Zodquq2uucX6ZahPnzXPqk802KYt26269oRt37bTXpTBzAhGXmGBTZPa3LVrl3+1jdkYlIUGxtpMZjogPeAq6xORYhjivgmKrqiCs84+3b+1LTmjA283OAsAh24K5qCxyTJT0dnod0j2Ek4UuzxG8VCjDPYzVMQ9Kt6nqiuP9o5Wgetm+8jNH7XSsjLXQi2yu0rLim3+rBk+b+7g/kOqz0LvlGUigipReUCN0qLeHFjkhyQL9caBHcn5DXu0hi4J3aNWFTD63aVGLIp4Dr4rLQ2uuKEgJM4SfRaB8t2bPLWoFDHxyUcek4fUKmYk2hlnnGHvfMc7jYlwtDI80XhaFAzVb1SRtBWpKj1yjqkDFRrhiReVLIA5a/D4xmV89zRaf3utNRzZa+NSiymSEDVysz/28Y+r9Z9vb33rO+0f/+mzVjV5tl1w0ZV2/iXXiBVpqjy20NShc2JSvozwTKkVvtLB1pw5Yo4agrGrIWv/2J4zz7JyiqyopMpXisfJ3dx76KjddtvttmL5Kr3Dt4aksrBnsF/0xwAyrMcDpGEgeZDcg1JZqEw0KXYOS+pyC/Itv6jQuzBQqXiCbjaIAbwXPHskkRihayqOzuo0JkAmMWLAVCAZ9CnQTdUpvngZlvmF+gOcAIIVR4ymdvV2e//hu+SU0J1SU1MrR+kZW7f+ebv7d/d410qhPMncDDkfsr+yMrI95bFxmQ1ydqCBcuoUqy/yi2wzkakyO5j5EUASO2KAig4CiflZDOFAzMZu+TO8Qr5kP2/BPHeQR21EYjvL9+w66+yzXYezrzyDvlyThntPKjC7BiZTCcoKIPnh6Yb0CVzTUJgrj2j3Td+UC+42EjRFdpeoVcxhu+cP99pX//0btmnrLvvZL2+3L371m3aLzt/5wU8Fti/Y7+5eayOJBZZUOtt60wSCgmmWXDTDugW4weRiyyifbQVTF1tWxXxLV5yO8WwbTCuxQw09tvtQoxowW0opN6lSNrR7fO1jUr/M3lD2OrBnkNK1x2sFKLbKpI+NL5UMuGp0swLQqEDwjq4GZsD69y+VHuKBd5AmYpSbENhlDkruwR89V6sQP8Z9iwT2AcGJYeW620qKBz+oT1dVIs27Kxx4YeiIhObPn29TpkyVpEtw8NfLXp42ebLbytt3bLaOjmY5EXwlmC20JLlUDjrXcdSgBbuLPELhqScqLVyH+8o3uoiCg2zC4UHvkWAEumB8Q3RgEjoYu4AFBMRFZfZ0d4q4dO/FxhBlI7MtW7b6cIlSUbSAfp9iInsiGI5KS0yATCWpQMwQ8FIB1JLlS2yJ7Ltd+w5bW8+QdQyM+qYnrVJlOezHKtth//7D9syzL0hVbfv/insP+K6r6///sAkkEAIkjBD2BtlLUQRFwYla98C6rTi6W+23Wrunv05XW1ut1rZW694KCMreGwIESEISEhIySAjj/3qe+7n4IYK1/f5/j98Nb97vz3vcce65Z91zz7VFy1d7bIg16zfaho1bbfb8lfbV+39l/Seeaz0mTLeNxfX2wuwVtmBTsc1fV2iPP/+ePf7C+/bKh+vtTy/OszeXbrO6tj3sL68usPL96rAmLSXws/ii1hE+V6wWzRX3GJQCZB/gxrUL83SqfqPBQT2COSFQJs6YX6BcmAsYdKTwvqiNqCKx1BqJQjVSuY2bpkhGSpempwGSkuZReVpKiWmus9vYBFDfAVh5BO0R2UjQ1A3kPGDKgS2MfuMdbGqsrRgxbKh97tLP2USx5Xu/da91y8lWv1WofHzXAuWjf4IiEWSuoJ2qTNU34AHXusNt+k6Dosl9937rAV72W4kXYzrmWn8xMYBoCNSGb/Arytu+zfk3wcwYwaWFRbZx3Vp7f/Z7vmQLwBIgJF+aF247CLEJPiGEDRWLmbvtTTecpCvvg2IP++v2uxD6s5/+2IiVQMTAMWMniGoOs979B1t6RqZ9tGi1XXPtDVYjeWP7tu3qMHWOWA7yHtQD6NZJ6N2+I99GjZtoHTqwwbpZrVhiYUmltc7obG3ad7GUNllWU9/EMrv1tTPOvdhef3+BvTN7ofJqDTcXm+8gGSvdOnfLFFKnW4eOmdYpq5P757OLWltp0gQKyeqU5VMtyFjMGdK5rKzG3AHcojYZ5idr3WfOjc+i0NieevfuLWrSVQOrpdXVHbFtefm2YqUGyoattnrNJps990Pfpm/h4iUaVJsDgiHGqK9AHvJB9kKzxgcvmn/Ces/DklOL7MILzrd2Ge1EPWslqxbaR/PnWMXeIsuTHKvcbHveTj1vb+NPPkU8wwms2oFWGxBKLfJz0HDFOh1PgvxMn3oITRCMghsi2IkS6yJJiAQhs8bi32/Yk3/6o33prrt97pEoe+yY+tY7b0ro3mItNeLK9+23XMkuaE70lLv7HIZykShbuh+Iq1sgGSMEgKelt7FbbrnZp12mTp1iA/r1stWLPrKWjUQtJA+ETeEP2tN/fdGunHmTPfvPF+0VyX+4rICc48aOs1l33GG//tVvbNWKFUYU6Fmz7nCl5FBdjeoa3JGJHN2MaIF4kortsLUeHfXmO6Job7ytOjZ1DesXDz0kqqGR3wLN7pCV7gk7xvnOv2rH5o2bbFNuro0YM9pe+OfzVlRQIATM9PhceL+2aIE5I7AZ8ucMshG5EUdDuAST57g94QDo/l0HWD2/R7KR2C6IpD9GuK8fENITIAYWpuHuA9bb04LIkCBYirRB7G8MZg10aY7ArKKizO688w47T0iGm9CuvDzL27ZJCLbbsrPai63vt5defE2y2iD75n3fcvnTGotlgkaOUB/jTESbaK4AwbxPWbbGC8dDMH7HdAziJebGSDQOEvr6qy/bnVJ3zzn7LF9jVyFkKNhdINmrVDLEESuURrZjR6G+wA1HCCbEUWnKK1BPFebMEaKGjIbcgXzFZOy3H7jfLhAQkBFKy0ps8ID+tuiDObZH+ePpAMlHjW/Zqo2NnTDZvnHfd+y119/0aahmLZtJhf+7DR8+wvbtrbDbbr/N5n0w19vWtXOWOpM9tWvcIbBVKpH8CB6ClqfOU91YsLEzP987DSgOGNBX+f1Nss9+W75ysYR6Av+abd2ca+zp3T69re0tLfWd5s6cNs2++93vWr1ksfR2bZwFSnxTUueoI0CsCPvArpraPnU0pgoi/bjRWNQPKuzL78ApxAlnTVAL3KBB0hD7C2GfDg4yGlZ8tgMkaHBLq66q0Rc0oZGlt22td454eEymv86ePs3YqGzwwIFi/9U2b+57VlNRbquWr/TNYc+edobNuvtOC1tYi12jaikfUAIUof4Qg4/xRUxURMs1SRAMLSXZPSamjz8QSGCjZOgNEHCwIYkfAyza8+brr9oXbr5RWuFB3xSqe06OqIsEYY2C4pIyKygsFmtgUwJlkwCQI5jyDf5MAIgyBDblwQjwAMB66wc//oFddNFFtnLlMp/h796ti7Vq1tS2iTJWVlW4JkbwW5aNnXzqZLvq6uvtvffm+Mg9qBF8+umn209/+lO76qqrJAvuVFkHbfyEsfa3Z59NyERh3pPQAvtFSZhOIo4F5J5OveiiS2zzpk1evzFjR9tTTz/l9YLiYRRl0OAvr4ysVtSR8AmwzrUbN9qtt9wq+TRFnc1ejmorxlZRMgIcY/DEdejgocTKcFHPA7rPKKuUUlBZVeXeF8hPCOnIcdQVeZTBh8IDkOEIICXJ+w8WoPwwU5Av9jdWkHPNt+2kHRJmC47ADsWEGRgydIgocalliXKlaCDsKSq2nXk7hJwt7PwLpttZIhxsAkuMNKbYqHtMEdFItJGBAzzdDy6Zgn1aChVXRiAYWoQa5wI5iCDgvvHaqzbr5pstpRnelGHiFZpEnKuaGiLB0GEI9MhCICnMJFBA8kZr8m3plB/Jz0JkRnBGxwyP/tIqNcVuvukGt8+0wnApoLfGN10jFeDXq9HISFdcdbUtl3BP5zNZDsLiF3bttddKW6twgLDpAUjgjfL2HxbA2SzqiJCw0H70gx+57ARctm/LU5tCXNPRQrAnn3zSBxlTMhhIyQORwNmWYLN53Xpj5fQeaYczZ37evVvxWqWdIDedxo64kdrgew8C4OXQWMgFssBKOZj2cs9fUdNg0YfTQPkQ1sOkOH881w8d9BGiBbuVtHTzBAMNFgyVwaO2XbsMD12OHEw8EVzRfTOuegmkyhuFbb9kMgL6oaRNP/sMu/W2m31KCRMV/eomK6VAuehHkAqlL7BO6kf61IW3jlTJST9BMNRUf6RMQTBKeOPVl5xFZrVP95VFTNwin5SJ5BcX7/WIfq7WgpSqBAZHOjNkagJmlV173XWuZT77t2etXVpbUb8qm3bONBsqDae5qAU+5IMGDrDWaihlFkgzffHFf7l7dnOxiTZic6dMnGir1qxRB4YNswAsCSpGuIAbbrjBv3UWrTNUVpBWnYLQPWrUaLvt1ltt6pSzhIzVRzsRFsb85oRTTrZf/vKXPlGMhyjIA8I49aUhejdfsgyOg9iWbrrxJqdeIXRlsA3pP7ews9YR9spIZ/kYhsDG6rhDglvV/hrBhNhmsB84RVKnCX7AEi2d/DjYsIs6holy2oMpiO2aw4Q45hAmzRlsGGfxq2MwYCtjM3+6Ed81tF8oHt6x6W0Cu7/wwnPs+s9f65QSQ677nGkgA78ga4XrUL/AOinfB1Bc9PGfJGxQZKQ8PSMNPHvllRfsB9++1z434wJR+Ma+422tOqxIZJdyq6v2u897iWQxAAT1YwEqVIEI1DfffJP94Ic/ENCb2pN/ftK+9tWviVx3tAULF4iyofltd7aAcRagRZnmmquvsw3r1jkFvPzyK+yhh34hSgbQkHFoNAehlFJ9lTWu1givzQQkzAOwDADPdA79OPHUifaHPzwhdf10sTtWZKvMADlP7PbPCCdfovCgKV5xxeW+CgdTQ4E0McKp19ZWO+X49W9+59NklEWH0nks6kWTDKMde1oV4HS4sqscz0rFvgiqcvgQZfNemNyGsvMd9zIy2uob2nlQMCz3+1jpQUhgBIvEbAJisAaSDcWYk2zTJl31SbWKfeXSLqutR69uHpu2Q4dM3zmYfQMImdm5U2erEbdArr5u5tXurBCmilQHUdMAX+StgEwkkB1k40wdGBrHpICJHwP0xIn3kN3Q5DRahMgjRgy11hpVOwqKbdBJw11r+sc/nwtURFmyfR2uO2EXfSogRFXl2ASBKM7r120Q3W9kL738kstqBPBgUvyW22+x+R/N9zwaORs8LA2ws82bN9fNGEwDIfwSpHePEHrKlCkCRpiqCHv7NLavff3rNklIc/HFF9uZZ57pPlhsYs86wN59e9o508+yRYuEzGoPCkp9LSYEAZIuFEzQvrxjdQ2CIp/BvpFjvv0//+OmGV+bKchARcaOHi3Eu0LtxEB52BEYfzWmW1yJoH7687lDtYf8kcUwPAMvV4ScjSKbqt0gJRRE79OhJIyzUC0GCPYpOhW40bFc042UxftB7gUBYJOVQjRW25fbqDEj7S5pkuwq9/JLgrsQkDj/7dRXhYWFtruwyEr2FHnZdaqXxjeVUc2jpkgKyBUT5Qa5VggP8JIPeCnnT0s8ZeQwItEoCaKBG8tZZ02zCiHQ1LOniwJMsi5duzkLoXFE3UOmQhhH1qLjPa6FymOkz//wQ/vxT39s99x9j3340UfeEb5cXu8iH2Rnd/VY9/0H9LOJE09x74HYoSwH+/VvfmmnTjrN3U6q9lV5gDfqBytgHo2tUxh8F10yw66++mqbMHGC5e3Ks4Ki3V7Gzbfc4hFtBkhDJdSkL8UXongTlRM9J6LlFIgdPnxOUZ3KFBGTwC0lY+FNy0EknEqx+jkfzHMDKCHLmW3o1j3H240PGghDG0EYWDzzhWjMhIlCaWFNKe0KWi1GWlEG1QFKgW0LpKNCIDNeF+55AVcQzPxd+lD/YIn0aegxDRJHVlOZyFgZ9o1vfEOaeQVPbNzY8S5mTJE4cf111xorutFEmWR3/NA7Qf5yiHwKroTnpE9Y8iOJa3gfJImHW3OJrof2xJ9q3bNnH+vep7+dcsZUGz5ugi1eutjefft1W7Nmhd44bN2FHGhTaIaYNZqq4igK+GSxXKulOmzu+3Ns06YtlqoO8qHISNH7uCM/99yzUiRetn+98Jz98Q+PWmZmhlMNEPvlV1+2s88+28aMG23b83KFUGPtzTdft3dU/i9//lP7+te+KKRJEQtL92g327bnWrG0JDqyc1amAJltHwmpX37lNRs6ZITYqVhIq9TE9JWQ7CBzoWqrAApiAOqI3GFpP8HqWgVvBh1oWdj73nrnPXe43CvFopOo6zfvu8927y62XTsKfAeUvaXlvuiiQiIC02jl6mhsXbsKCyw3d7PEiUINllLd3yMWJ41SAvmgQQN83QFzhZiAysqKrbQUc9BuIUKN6iftFsQVIouLUVNHKCgKXaqx5G1A+CeE5puvvSWm0Vh1KXPYLFq00B76xUMu/BOKq2Pb1mq7Z6DvguEbqgqigyMBecGbwCrjvaCd+5g+cYJsR2Rz4T5xIIKpKL3h6OWA9pDaLVKsT7/BGn1tbMjgwb4M6suiSCcNHmonDRoa5CeRff9KlUb99old5Q+pZ76L8EnBTCG22wK1/KCdeuop1rdXT2k2lerMwyLhJVYh4AIEVjOx7pLNQDEl9OwlKnGkXjJammSORqIWqbZhzVpbJoRvI8r01788ZZNFXW+56WbLzOhgX/nSPTZ39vt20UUXS2F41Z5++hlvNwoCQGQqy2Uw7xzBA9lOZ2dpqiftwBXG5wHVLh+gAjAUjm/QCOkDNEBkInachYpg7MUOhfCNBnn55ZfqvUNCUrFJyUp33nm7feELN4jC3GPf/vY3bOqZk/S9WStxANrVu09P+853/sfuv/8b9vWv321f/dpd1qN7V7FvFJMA3+iBEvBDlUFAV+GYGKDC7aQlTpRSxFLAZUuX2678XVJyRnk4qjfffMPqRIVZ8AERCNQcOhdkUs9PCWoJnD4+AsJxn+T/H0UiHfGF5GvSMe/oD99s3Q0PVWmA3KNnL+vauauHzKzeV2k9c3pawY6dQatSZdOFeBgTsVir9WTqgCAfgAu5hxxDJRG+6SQ0oJycbNtTWqxnkhv27vF5TubQmEDn63ffeVedcbstWrjQEaJHr+5ukS/dW+YKArtbsMHprryd7iV61VVXqG45Vq/OePx3v3G7T3anTLGIkyQjVvrcKXIQLBGbFEOJUewro/mDDKj+2A8jsBkU1N+1OP2BaLB4WFx4JwjpgwYPtB/++EeSCb8SFl+orb169PCZhptvvUH1bmrXX3+dPXD/fXbJRefZ7bfdYLNm3Wp9hVAtRPWXaKDMmzvXZl5zjX3j699QWy63W2+Zafd+86suSzFdRX2c2+gPZKJOmEfcbqa6waahYNdee7VdetnFzqpZCniH6nDhBRfar375KxsyZKiQvV7NDAtNQFSX8fQtGOvtc4r1MW6Qd+hPXdG/Smp7uBETvwGQV9IBE178RCJjznqHjkCI3bE9zw2wh+r2W4o0xNnvvG1vvfGmbcvdaiuWLrPd+YVWU1VtrUTpOmZkHWWzYD4IRXigiZKNWCnuccNExcg8KyvLF1Jkd8v2sJQEWBs3bpxvxfy73/3W3n/vXWmg3/dogqxmnnrmVDcDoDn26z/ATR+EKmCbO0buTAH2iT8+YrfeeI3NOG+q/eXJR0QxbrHhw4fa2HFj3LsBMQM2KExiODk1YMC5D1QCLrAB7icgASjCO65hQf1hl4gcPEM+aqz69LNLPneRncMm643YorBC8l5z6yD2jXZKnqedepoRi7Vn995ufiEAycaNGHqhgi1E5Vu5zx0JEwlKDqx18ZIlKge7n/pOfy7cI6cJsdmsy/taHCCGK+Ab6oQ2zK54DFSWH6Jwpaayt5Fk4ANSMgQM3KvAFN/5jT81inbRzggPB4USxXDpSBhufZz42IGjPyrp9+KXMXkG+tMZjY63WLb2mrS/ZQvn21IdKRptkyUsThg33qPqFezM98lwjJeMCLwPqImPNJ0ZIewftFAyAAIveSKroQCgKGDQTG2V5oBfsWKVA5gFrI8++qj9XDIDo+6F5/8lFbyNEGW4U5cuegeBunRPsMF1yswUyW9hhQWFlpnVUbJLqYTdGo8li90O9Z5thtn8AMGdKZojTQQLHU2aN3bBG/siflycKYu6wt6dmgFQOkCIRZtAKqgAHYWNaejQoXblFZfb8hVLrKa22r70xS/aV7/xVTt/xgW2eNlSh+kpp0xwdktH7pPC9NHCpWL9W62goEiD5rC7BmEuYCkgg7N1qzZClH0SEcrsow8XaKBLDvNOUhJy+ZbU+uvXr58HpMG0g9cLx69+/Svfyoclhaw92LJps73wwgtu6sFtHA23WspAcykpGFjd48X7jOtQSkSuqFyE2+EZlP7ousiYQC7YDO/E0UqKZ5KzCQEDlGWUkFYsX2rPPv2k2nRQo2CVOrXERwNzciV79goZDor1sLBUeekbzAGgacgmdAjsDKC4B6ZYZfeePUSVPuejmgliOgDXnj/9+Unfj2fQ4EH20C9/aatWrbXNm7d4QBCE/b3l7OWT4WsMsea//dZbbogcIcTLlmbbo3tPlymIPz9qwnjbL7Z5RIJ5py7dbdLpZ+i7envmr3+VnERUagFUCMY0TjAeq8MESKhCZqeOLkMJGEpQjMBGQCxPwEwNPiQkIwAvshuzBfk78iWjDrG+6vTWqW2sT59+bqsaMGCgjRo9zvaUlfo1C1zYWOy+b307AUP8y4IdjdXc6e3ShXybBZPmtnTZcissLPE1oZgmcIeOPvokEKCEVUJCUMJJYSRmQC9ftsLNLcT+GjVSA1Pv5m3L9XrukwKCp253CfunTZpktcicypO2RnygvTHRtyAbz8Jz1RMxLC7sJIFUyWdSMnKRQqUD5XJeq0534+q2PHvmqb86S2unzmMerWyftKWKSiuvYM2e8m3aLDHhG75HPvFpI50BiD+R3EC98DdHM9tfe8Dad0wRAAusY/t20v6aKc9SfXPYBgzsa9dde70VqTOgkIX5O9QxhZaTnRMEcgEFJEYOydu5wx5+5FHL6d7dkY9pGDoJqsVIZWQuXLzcVq1c7XOWXhchEgoDRsmD9WUB+YWQWPK3b831egIPVkzjzQqldG8RDSJsfQQFhnV/YdZtbjNjlqB6X5X1ktb96huvSzv+pyMurLSnEP/r3/ymPf/cC1ZStMeX9qdKMclX2wjDKWxXtk2sucgnrtiPPfZ7d7U+RcrUW2+/pfwr9A6Kk4ai6hHYN5yA8AR1Ln8Cb2pMPVNbtfaN43/y4x/b8BEjfLuY0t2Fxn4GhNUkHgiGXSIkMqCECI4LokFKAZHAqsAeE78TiWsOUTAiHCbuJqXkl0nxA46QmQ7Vn2tG7qqVK+3tN952wyKbBrCXT6E0uzIJzNV4cwqx2MTJfb/IW/hLx9D5R9UF/vM8za3YPXr1sum4ktRWWfO0VpYiuQDZbtvWzR5bfsyYMdZGisO111yr+pgvZeup0UbA28GiELQAso3fE6uq27QRW/jNby136zZbunyl+6Yt0whesHiJs92FCxfZvA8+9K1VMDwSH+L888/zYL9QvVGjRroqz8pyIkATs5QKU0ZO9xzbrc5J08Bisy84AZF1gM+D3/uO2FixnT7pdA9IR+ywM6aeaR8tWBDWJfq7dUIKs5NPPtkefvgRyY3VqudWHbnudgSrx/CMJsoZeY3pMNY7EHOfqR0s8CgnrBZHM2UVEwOLPsMcwiwEiEeIK8QUfNCio8Huot2Sk5dbnmBDG5l1aSXZDnm0X//eNv7kCRpYGNURA+gj77GjSAcMIpLBkUgBmRskXggvJTJIJH7HIyKXJ7QsMlKmVJppmpYa3VndOlu2WFy6VGF27a+RrEM8UIRMtBk63117lZ+rwI5Y+g8yp0TlqPR+sZe1u7bbks3rrLS6XJ2318aMHmnnTDvbWgrYBJ178s9P2b+ef8HrnSoBdq+ozeGmyleEZP/Bahs5fqR1lQqP3QsLOuyCZVnITQRIIR49u2o8/PDDHoPrkksudhef0047zZ544gm7554v2syZM+3Xv/61TzX9+te/cXkKnzL81GZcNMOe+dszdtrpk+yPf/y93XTjDerkZnbXXbPsb7rftUtnXxu6YMFHvhEDLLSmhjiodXbZpVfYnXfcZbNun+XvvCeFpXfvnmFDVVFLdqtD0Mf1CJjgho7pAJ/8w1KG2GC+uTgIHQll8lkBUZuoxYVFGbhyH3BjLx6/DHBEnLABKetUD3ldmGstKt1j+8T2MQ6ztQwetygNTKA7JWM+k/5SivhA58H+SfQBBMf7VThxDIJxgxf+XVK2qiRnNUi/Q8PqLaV1E5t27hQ7d8Z0u+Tyz7m1fNDgAZIn+oltZqgAjSCETpXDCmHIbjTIOVlXPofV6Sj6AAB5C1li1coVliIAb9242XZKpmMSt3//gW5+IKbVT37yU3vyqaekwi+z/XUHbIkEV+ZAt2zbalvzGJE7XRXHSg1j9ikgtZOO7qlBkCat9P7777c//elPPv0yYMAAZyuwNxbcVupAW2OZGEF1US54jwUuUMYuonZQbmJ49erdy3biEqTB9sYbb9gjjzxiL774or3++ht2ww03OXVgNgC4US6C9ymiWrgjIecxPQNyQdmwxQEcNuWiPnzHMjOUBo9urVGOgRrEc4QiU/U97M+hSWfzzB+YdevWzdvheUlOQwxiFiE9o52dNvl0mzRlsp0qxay9FCB2qgNJgqtRS32tXISMrpkegzW6nyg6JH6HsrnfNGBhJGmBzHGcKPnHKgSM9gS9VLcdqt9v06dPsZMnjpUMVGpDTzpJ8lZT++iD+bZr504BM8WWLV3pk94wcaZYyCN0tA6QVGcJI0dr6+2QDLZu2Sq75Kzpkl0kxwkwTNy6IfRQGC0smcPzgdmCEiEWO2fgjYp1upMQG4SUSGFtpQWC3G4wTbQRrQoknjdvns9luuOhOvQpISzbvHzpS19yWYj7UI+87TuEjA96iILnpXHtKtil6jYWG833EAXf/973pc195HIYS/Gx0LP5Am0kpAHKSt1h9ozE2n3IfvSjH4X2i6rvLiqws6ed4zJiXl6eUyLkLjoZpMYmBffA2Ey4Aw8krK7z9xIwo1nkTV8GWxVUJ1CcjRs3+qQ7WrlvwqU8c3Jy7NvfedBOP/MM9WGd71VEjIwnHnvcln60QOy5uS/gAYEdN9RPyIFcwWFIlMcBZwj9yb1QoSb33istEqTxBwFpkq8bJipMISCD20TU6KZiR/k7c61TZmdRhL7Wo2c/dVKahzBfvOhD3/IXl5vKqhrLzd2q99FS+VYUS8U0Vl0oj0pTLSp+UAhEMOGpU86wdRJoTx45xj4UGyspLXTTSIeOWaIeqTZSctGAQf1t4inj7NRTT3Y34csvvczaq1MXgNxCiMULF/syun59B9gjjz7mI5I86BhkFhakYBMC8HgabJUckrtlqzSr9kawX5QPKC1shJ3OMCOwWweyJao8+ZSVSWbRPfYbateuvZswkJUyM7NcAcCnDCGcgcTk9FlnTZXmu8kVF2Q1OhXD7MiRYV/G1avXSLHY57DwAbUfD1dp4SoLV2omrFl0AuVvhker4OcT6urYoGyE2QSQgo7HtIHRl9DmPN9Xtc/Le/Sxx+yMM6e4YwJUd+OGdWK5jew0yVwEkcnN3WR9+0r+HD1KeYMXwTdNzUikgCsf405AusCZGHqgS+IhKY5s73AhAD/jvZAcG7wA2Lt/qffYm3r8yZNEucZYt67dpeWsteckxwCoXWILI4aPsAkTxnm4Rng+CI4vmY8yIZy6SfmIgQkw5KksvcGdszrZzMuvtuee/bstWrDIduYV2I68fMvu0k0d38RdmrtlZ1u2DjTDk4ae5BEWiwrzrVtON1+00KRJCxshBMXyj988XgvuJaq/hQsWi5W96coCcgqFEwAEyzdeHx4zIjE9xDfsPsuCE5/mqhczV36H9B0bgImseP4gAWBmQy0QBI109+4Ca6q8cX0GnkyL4ZgJQk0RezrzrDM81lgG3qVDhkgE6O+COcJ7pZBh2rnT7fobrrerr7nCxo4dKaQ4XR3fW9S7zIr3lNhVV11pIzTYKNj7ky5LUB2QDcTGcRF5jS2rq4S8X/nylz2OLP1MO9dqIO+SGJC7ebPVCoH79+ttKRqMjclDoo1P4QnmHLBeymA+OCJYKCvMU/KbvvVVReBIfCFehxTP4Z7fdgFfF4l3vCCVBBCZ8G6X0dFX0CDktpHmx8ajezW6CQqC9Z1Z/DVrVquxYfafElUtlS3yL1LmI0D14D5aDhs0sYjk/XffdQ2Nzq4SJZx48qmSfXJ8NDLHyGbwAwYO9s6pratxOxgy0qmnTrGJp01W52Ubi4CZCtq+I0+jn6XzYqUSZgkM1759B5dtQGrkE5QYRr4DSQDFloUMAsIAxNBqqnrIEYUOhBW5v5a+wXsDJ0Le31eBH1yRIyLaNNTkoosu8Nhc+MLffvstPgPxwfx5dumll3pdkPue+8c/giOhqMuXhAxTpXm++/abvvAEmW39ho1ixwutsrrK/vzUXzyi4Ycffaj6tPJFK8ha1BVK5au51W+tW0ueEnxbCW6PP/64EU/Mt/ZR+7Zs3CTk2mTFhTutdp800gPEC9tufXp193iugXoxUR5YLvAhQUXjRHeAysepyTe/ee8DvMjD0K28EqlaQCISCoD/BvKqKH/+hTqcjkEWQQNrpQYwgnds3+ojeN7cee7TBVssKdnjQjmCs2oHdibwNFSQ5OWqiOaN2V3sgM35YK7N/3C+7Ra5BqArlq8U210q9XyPWEiVs7ZhI0b4dJDENXd3zi/YrQ5OFxUy30p506ZcD+/JHpaXXna5OvJDZ9Xf/8EP7DsPPmBjxo2x2XNmqw4gRxMhLRPVqBloxsg3CLdY5ZmIxmoPwjGVFQYDCRjym2969+pl4ydMcHMH5gfsbD/8wfddIF+9ZpVTZ6I1nnf+efaRNEu2ccEXbZIE7BFqC1RpwviTXYvFcLx0yTI777xzfcvjVGnknTt3lizX0gokB06ffo4o2ng7a9pZroFissBMgaEalgiFwR4Hwml0ejtSJWMid86YMUOiRgfvB9yoMju0dxedvr272/bcjaJ0pWLhOywnu6vKGOfwDaGcgkWffnKq5TCAYgX7WsCd8AwIJTCPO+FEOnovkRAaE9/xMBzKjO3hMNSyedIeUREasTsR0pwAwHtFNfA76iDK9urLrwnJytSJjCwmf/E8hRooY40OVsWg4VEtbK0cUCi2YwaJCOx70aWfs+nnnmPLNPq//rWv2yMPP+q2ITxHb77pNtfUOJ5++ll7/bU37JprZ9rdd91l3/3u9+1nP/+Fbdqy2dsJVVqxbLnN/+ADscYwfQXlgYoilzE3CrCC4qNmqV2OUErAAUUnUIcgROM14WcddB4CPhQaYMPq1q9f5wjKKmq+xXN3R94uDZYlvhvb3Dnz3baGcP+zn/3MzSYgJ4jbRpQblyCcIPcUl4ri1rn3KTFUewqZhw0bZi+99JKQdJHKg0eqfRrQIJP/ZPAifqhGyHoYUAkQ89vf/s4VBUxMe1kgvbdMHGOPtdAggiBAgZkyQ7b0JYa0yPNE0CdP4BPMVCByNFXERNubRspB4gYHne+1+UTiZhKdU8VoCImdXPO3b7cMNDUBmzgRzVWx6WedLe2oxJYuXmZFu8NUBd9SlbixJiONWX86MlaemYFqNbBdelvr07ev/fznP/PJbdY5EhD3Fan+937jPiOWPD7sTAgTMRkNsLSs2M0IbEL/wP3/Y5PEIrm/aeP6IGep3h5UTp1Ma1555WXX+jhAAmxPtRLMP5YloGpskdfSBWnuB2+P0BGHpM0yIH21lQYN+zDiRsSIJ7FC+sMP51llOVv2BepPex9//PdOzXdKTuzfr79TeOo9e/Yclw1BrsDmDlthQb5r4+VlBNJTp0sMQVR44H6MuOyjFBao4HhIR0NVXPZSl7G5FS4+0VrA9BZt/NOfnrBhI4fbZMmA69etdeeE7ds2W8d2bSyrY4a+beLyKCvLQ9hMQUv9E2RMIRp3BAv+uPZ26ZoUcanJt771rQei5B9vxms+SU7cIjM0Fk80gkZJ61i2eKE9+cfHrbmesUiU0D90ILtdrJUMVSC2VVXN7mH1PsdIZ+J2w4igw5BvPIkFU13d0vMqe/aZv7n9ZtyYMV711evWSTk4YgP79bFa5gp176yzzrRnnn7ahp80TMrESb5ihhoyWk+bdJoj1EZ99+zfnvEdQYgby1rH+751n824+GJjn56XhGRMrMP6Ro0e4bMRyEX4meV0y3GBGtaZLtaLsoDN6ySxLCJfox2iCeZIqcBlfBRb/UkzJQHH7t272QPfvt/Dhb/y6mtikU3tvHPOs1Vil2edPdWuu+5ayYzp1qtPT88P12W0VCgm37NIFoRlcW9r1RGW/9TTf/HZjN1s0SNEgOogrmCPA7Zs0wzyY5YRimng1POayka0gYI2sTrdW758uXvwsqtHqfLCtMOsQ3VltUSQCt9rit1ATho+TO+DPk4SHb4gNH1HZ9E31DWeA/6IeIBguuU/YooPG973pFvcRRQjkT8a0fIli+zlfz7vUaVzt+R6lBu27N20eYvYRYmVV1Q61WIk4O5cJeSACsCqQFvn64kEwuNug4Fx1h2zfL6tT+++rhEuW77CJ9bffP11aYxD3DDJnkGrpTjcPes2yTlHrFfPHAFKpF7sdd3adTZeANql+jwlQXjc+Am2dNkyp7gMjkLJZa++9qovrcejoFVKS+vTs6c6qFaKQSexsTx3XcGQjAzXQVoe5hdCA2DeYMGGL/ZQPXr16SFKSVjx5rofbHU4/7H66Z2337b1a9f7t3CSc4RgmCk+d9klds70aa6k/O53j9h4KUKEakepAM7sfEa3lYjlrlm12ma//4HDdPnKFWJzaoOoCfOGjUU52YcIuAWzCjIiOUh+1FmokBjIQDgMYmAOBwBGyIH5opDYx9hMi0XEm7dsUV0PCbmGW18pI4gsgVVCxej7BBJEhOJRInHJ02MWfXyMWDGpIolMeMY1P4PuRwKfMerpSgXWHzjsW9ntlKCNgE9iVTf2skZNpTVqRGKdZ5NSfK3QJMkXKkau3AsLLfjD/z1YqRctXKIOZxeLvcp/pz3/wt+tbE+RjRFioZV6xB4R5+LdO2zrpjUOlL2lReroVlYvdlCzT1pcUYE0uT1WU82C19Bxk0XdzpAQndU5075z/wPSetNMkovHeq0/yE5j5e6rRRyt7Ows36Rgg+RKugvEIgI0oMyT7ERdd+TtoBlqD/HpMXmoW0URO2Vl2R0aKD1ycuwiUcziPeVhykbfbpWyMee99wQaKRGCC2YORu1tX7jFOomCNmL2Q++9JqRbv3aj6iV46b2WLVrbzBuukQKR4W3BdNKubTv7P798xMrKKh2miIyOVOo0ficjRZCMEEUaOXV85533RGE7alC3FOs9bEUFhU7BQAl2k8OkdARNWuWAuHwX8SWeA9p6s3VWj6isJvfdd98DqrK/EJEoOcWPY/LO1+vBDwxQsyyqka1dsURCYrEN6N/HMsW/szpmuqGxiQCPNwTs0fe21jfkAjlzrYtWg6YCBNQQYdsFa/2AxN944032zDNPS4j9l82bN8dWrlgm5G0sOWyvewCslWY5dvx4e0sdkNMl0wp3bXPqtUPUDvPDOrHG3r16iFXn2tKlK6SZTXJPBBbg9pKADDtZtXqlKO5OjdwW6mR2g1UtBSUQbo8oXQdRqHR1Hlb5Nunt3O0FYT69XVt3akTTLFCHZHRo5wZW5BuW/UNNADvbzNiRA7Z44Ye2ccMmI9b87bfdZs/89WnfoW71ihUuQuDPj10M5H3ij78XhR7kTpATJo53sWPZ0mUCG2aCg3bF1VfYT376I+vTK0cDZaJNmnyqKxrE+CqTnCaM8n4SYB2e7GXpsjW31D4uUWbAQqbcmqe0MGL7I0PiFIoFn76vrKxVn/b2LYIoFyrmGR+DJgGJo9kCvHA5WvcCZiUlMvVDKO7aRyKBnfw5tVFlm3iMgiAjYAti/uy2O+6wa2+6yabNuNiGiRX1HTLUekhA//xNN9qD33vQvv71r7kqzARt8JCUEIjm6H9B6MfgCTUAz8mbVS2YPqqqKtT4emslOQiDJS8gcPtmp6JsLVo08/j0BBfOdA/YNu75OmLkSF/ilpMTPEBbtyYqc4hZij2K9YQsXTuaVGYXUSq2IqYubsJR7XYIAVk8zLRTGDR1Pq+IdR3BnE7Ui56vmzsEG2RQX0grilq0u9jbFyIbHnBbXZqoRQfJcshzzZsHMwdC/emTJ4nys7qbPZ1q3b0HDxHQg/zhUn379/N24EGBFwfL8JjSQkMk0DFxNaAkDGAOYOmI5pDWod8jRo22PmJ9AyVLDhk2wur1frWIQWshWsesTBs7drR169LBjayYOmgfMh55xRRwRfki/Ks+8QhmrQSCJT84XiKTYL0N+BhUYQ5hLIXpM0KLn3L6mTZg2CibNP18u/iamXbupVfYyVOm2ADJSoMHD7LBgwaIMtVrpIUd/10YgYRrWNBwN1kcDmVRpvt/K/m2v9IeEaDbpLUW4KirORIRXrxUQmlmpywBvb+NHD3G+g8YaDnde+ro4TINNh5CGbRu3VxqfU+vMp4Vp556qp177rk27exprhA4MqlXAJ/PZarT0MiY9ugopO0jTQ97G0bL7K45jkhofgRvQxOGArMLCPCBQvAdU0m9JNPh837RJZf6UjS0sLnvv+dy1pTTJ9u1115jl11+qXOCFCEdm8tj/CTsemnZPsvdlmcbJNgzkQ8FcdlRCEf8sMysLs4h2OeoRIpJteoXuIFglOgr72tPIIngKkqZqryvvvZaGzNuvOSrgR5zbfKZZ2lAjrZhw0dYD9UZdpmRwYBXP9NHR6mgessRK3FwDVCTE4UrHV0XSUo++4Qwna9rPo5nEjFAueQ3pJC7KS3CMnVU9to6QgZUadQXWunecrdE7yzIs/fnvOvIhVeFb7JJXk7JkAnYYKC5j1A0OWxrTESz5hIrsyrgmlqVKNZ+vcM3+2uqrIkQD0e53tLyXpbg/9HiJfbWu+/ZSaNH2Q0332wt1OEMBjahuufLd1m37tlOuZAPnvzLUyYlx+679z7f/B2Wwa5jaHJMdLtZ5ACWenZ3q5Agv8tjx0PBYIXs5w2r9PimOqPtVlZV+aQ2HYzcgofEvPkL7fIrr7PzzpshpaJEA6aZ9e3Txz1NiooLbdiwk3yp2YwZ51vX7K6+vrNpkxZqr2TawlJ77vmXbPXaDR4Xlu6l/fM+mK/n9W4K2bFzt33wwQJRO0IQCHYql7EPkIAu8pJLyyCH4E18MGD77rvvCm797PyLZti0C86zcy+YISSbatdeN9NmXn+tvscU08hat0zR12QIhW3uedL/QXZOwhvwBeTWEZO/oVv+AVf+J5SHrPNhPDxR4ZgZXzJL7amxVe+v02gr92kLXJfzJPPkbd1iO7dvk5yx2BYsXGgbN6530s9XjvX6A7FQmZWxKhfqwaigfDoHezod70CTdgQ5ZuTqI7HN/Rqxtfbe+7Pt3HMutEFDRtiQEWPtmpk3W/+BQ2zdps1ulB0kVn3ZldfYrDu/6FbyveV7fSrphz/8kT344IP22GOP+ZQMrJ61AjjZDRo00M8YUvE6YB0i9WDiGRaHRokpI0uUe69kHlgcbuIlxbpfhr0vRMmp3X/ALfYvv/KSLVj0oQf1RfNj1RPIPUYUF612w/qNNmDAYD3Psef+8S/L25lv6ySvoSwwO8FeTyxcwS8fmW/T5q32gx/9xP7xzxctvUMny92eL61yn2uwYaAHAgFcYYz0rcu8EtDpg+ESHZBBc7plu/lkyMCBdtJJQ62DFAtMGuyCy0E72HQLgzo2U3JyDkKOTs1COoojSvRhQLJGrMYKhYNkfA2QOSPkkvwJPFx/zsoCJnqGGhv+nBxxj25Wf0gAz1RFpEEerLUO6a1t0/oyW7473ylEH40WgnkQjdlZiirhGK7vyYesYR9QHBqUmpj5B7kIsAYlqRUL4Fs2rWL/7MZNW/qus6dNPMP+8fcXlQuIKWqqfLBFTZt6llULOWj/mLHj3TPUQ13qxpIlS31UE2ad0cg1xlNW3VAZWCt7TKLyI5d52ExpcJhd9lWWe/uhoqwkZ5AwD4mdDdZatkdUTIjI1NK6dWvtl7/6pXXrys6yksHqar2sp/7yjD355F+8TVjtS8uq1MkjXRl58MHvudZMCKVDqi/UPS21qcoPVIxoPfjgf/TRQiHv6y6DEVsMG1v9gRqvD5sm4OJDL0JsnPPojDNhanqa5K1qKWMdLUMwISQD6zRRzIpLCq2TFBY2z9hfwwp6ZiykD2jAMPsCUcCeBsI5AUpQLMcJ3QdDIiv9xMru5OQeidRIr3AdD5AwHCCZCtWIIVfYUEchGGpsR6nP55wzVUBp5SYLPDIx3mFxpzM5mPdDi3FWq9+MPLUhlKMKcryHCg+CIbuoTmkuvKdKU830ZVrYlbK75WjUHRCFWOjU7J///Je99OKrtmLpKvvxj39uv/3dYzoetT8/+WflSWPCZqAkplkwkMZpGVgkbi54eGR17uQT4iB2tVgf0yodmbtTTZhhwNGQ1dEeYUcsB0oHVSAAnwcqVjl4gHbo2N5j3pOKd+9xFkl7WNHTu3cfIZVYfO9+tiV3q/uzTZdcyIYW+Jy5CUbwZJMLfNIyM9tLUeqogXnEZwdwmSZMO2JEdEFiUQptcU1f/XeUKOhAPCAs5xfvvssG9h/g1CtLWjIDnfBNLdTullKsmOPFvslXsFSmv1wrlOICh3E1RvIcTIyV4QSTYcrID/UrMIRiOgFpmCLSgVx0drxG3uIIKbzD/7At1i12kqCNx2qFWAZzU4zMPWp8WqtWvnSNjvDdJvQ+MpBOEApHJNxjfOlX4jcVZD7ve9/7nssLxJPo0aOHKwKsA6ySBol/OyYDViiTUV9Rj6lnTbNLL73MRklY5Zg69QybcdEFHgayQhoWWiPyEpZy8kNQZ62hG3xVdolGMWy0orzS1qxe5+9RH7xPmc7ZLpaP6zDtwJ2HiXw2/sJdh8n+vK1bfYU5UWsQNUAQvCN6CenwcaeNgJcuaqpyz5hypv3hD3+0O++8W/k2sc25W7wdGHJRHlxrVPnIaEAbT482bdGWW7pGTjQcbGhQzxZE3RYAo9EaJOMbRzrgqoIx/bBsD583TCIdJW8yGDx0p5CURSDIXMwY4P5Ev9PH2C+pOx3E9dG5Tj0HbiAx5UE5KYtr/8ZJWoMjkjr851UtFQDbgnpxDohFqXikMgnL7vgsgMAdlymiQrEmsHrh/AU+zYJPV/fsbJt6xhk+0gEGlaKyofHkqdGu/JG9iH+Auk4dmDf7/Oc/b/fcc49954Hv2OcuvdQeeugh9/+iPBLvajBJE7vCfvvwwzZ92jm2TQDcvGWjzZx5nX35y18MArsQy+U5kXhW6eCVQeRrEBULNfINPIQyU1MxUTRzb1KfpxQw83fucpZSL2rXXjJcG8wi0rSg0iCC7xwn5BsgBCHoCmYVKNHqVWucFS5bvtwHDu1mdCFWZOfkSDA/4EvwGChEcCSgMjvZgjjeJzrTccCZoCxwD6zzLCSGfWP89E2qhIjqd/ULq7hh7YIt3wrh/EzfqonY5f7y1F9s/tx5tlWycpWUko/mzRerr/DJ7mWLF/vMR0lRsWvqDCTmPwm35QhEvRLIxgG1D2cQKpQXcEi3vYeSEg0KmBnOjpWJ3xyMZkc4YQi/aQSjhlUsJUX59t7bb9g7b71ms999x1YtX2Z1NTVObotFjcjHI8ooD76NWirIQaXBWq45ePegyHlEdmxOv//94z4FhesvUxxQB89TiJbVqYtG/gCfK6yEeghp+/bt621SFTXq29hFM2YIYfBmPeTTOwSju/yyy+yqq64RghCxJtihKsUOYY3BDnXA2SP1I8oNVAkDKojqBsoWzUNHqs7AiroEqn/ETQ7V1fvszDOnSFP9pljhMCEvVIFOYqlbvc2eM8d++KMfuOs001ZQUlgLU2CcsQPSgWQJtcAd3M04QjK06kNia0iwTGhTpsdyVWXI39mUzvzWI4cldeSMFwnTQc+/8C+bO2euU0zfP3N/lRVJW37v7bclS+5xJNcHDhefWdE7WAXYtYV6NWXJHQNQ93gGolE2sMS1xy353guJ5JU5Tkq+z6VHJ9Q/KBBAZS7yA8lL61av9ukPrOkgAY5zzPOVV1bZGpalb8vzERsDmIHtznpVWRDP+bwqBxD4TefNnz/fnn/+ede22DxzjgBSUFjgVBLZo7tY3YUXXuidhxBO2Mcrr7jKA/6yJD4np7t169bdZsy42BYsWGBzZs+VLHLI5SdY3ezZs23tuvXWTshZK7bE6mjCX2KNRyuDXbhPlToTQR//f4y5uCeBJB5+XPVl8Dj1E+Jt3bpd74saq11QyJdeftm2bNzidVQDPSbEwoULfPBtzc0V5Sq1+kMHbMTI4cqLkADNbeOGjZL/UtQmlSHtHFizIht36fKKvS7voBxBNXxHOdUPBBSqO1wZFL74Vv0FTEH82tqwl3d2dje76aYb7Ykn/ugzFHizrlm10tauWiFYrDbWgWIExoODMFzYyxoJwYRqnheJM2WT4EFwCMqi7xCB+GskIPLsP06ODM7nBAwB8dk//94e+/WvnH2wFIrnlMoS90MiSQdEjZhVIwoP3zGSIFWqouARKaOEUAGRkee/qaQOZ4E6UxrWcJZshfsEawvL5AYOHuILaXkHucid8qQFIlsgs7FkjvgMrDxiAGBnAWHuvHOWECLNHv/DH/ScuUV2zqh1LdRHoYDWWlRv8OD+7ooN9cQWdsopE72ja4WMlRWVVlxa4t60iBHImqtXrXMTSqk0wSmiYGslz61WB7IeoGZ/rf39uWfsoV/8Qt8M82mqQ4eJPJjmSgL+XgMHDra77rrbtUVYILHLYPfISIsWfigBvInHH8O/bn9dvd180y1qeyP73cO/02AgtlqgxnhTQBxoCzIVrBx4Ye1nCqxKbBa1FDlXpFln+oIQ7s2snQZKgep2zgXn2c233yEi0FJKmPrNCXRwjXYiIFgFswg4AVoFJCN9goJ9luQd71dURoKnGjN/7ns65rh2lZbW1lVh1SggmN7jALBi3hpVaCeAIyCoI4/IKlQAFnR0VKgQrlmu5fIDjUhUnIZgFcfVBs9XNsAi1gSKASyOJWYstCjIL3B/K5bUE0CkrFQjX7IVCA71YaErK2veeedtd5lBxmQGIWwiqj8BDfdiOqxsb5koEm5GYpmqBxSD6Sh2Vas9UOuKAGHDK/ScBS5s5snCjeHDRviGn7lbtrsZ4PwLz7eLL77IVq5aZdOmTbdJp02yfv37irrn+mYTPXv2soEDBvqSNlxl2Fsbd3MUlr/85UkbOnSwXXbpJW6zSpcs2H/AYLtu5vVOsd55+x2AJlwh7mrgBCAa/meuSOkdYIeGiJZaI80XhQQFCJjgDcKgKt5dbMTWByGHSRkYOWq0WKGQUOB34qK+QEslT+ZAgRX5Ahf6yjVJIW3oyf8iUdEwMqCJwlQ1Avdb9tFmXV07Nb6DtMomYhvp0qLYDQM35kCZGAL+WQKp6FSqGG4Gvg+1EgXRqGK+DTnIR4oOGsK7fMfIg3LhFgNiBPNAYL28g+U50G3YKfIJDoLKQe8wr4i3KZZ7QjZRFwDHpLNX8TC+WPU+FcP2wgT1LZLgqyZYcXGpEHiHW/yJYQGQ8X3bJqTmcG8KDSA6DeGdTsOcAyV69NFHrEuX4IbM5DfrMR999HEbJKoFsk0Udezbt5/dMesOu/HGG6xP3z42eIjg2iHDN6LolNXBumZ3EZvuYPd8+R67775veRtWikISsIWpnQBjyUAglCpMyEz6Cu9dYIiMyX0SNsbevftaKykrbNbQKiXV2BOTqN3s4MaUVag/Id7x+Djg1B8kBl4ONx3gBNwHuCI2weaDNwUdcDEeGVgAADYASURBVJx04vuMbCqPoM5CCHOBEDpVsa/Suoi/Dxk+3DKyMsVG9rt8gFkBTQTNCUu0IwiooopxFcl4EKaF+QISlIhFEeedf74NHXaS23BSW7PRepk78RHrATkJ2SQgHAdXQTYhTw7uQDkFC+XPtFrQrhiBIBZ7PALwAwIgFn0s2CwwIdjI4EFDLH9XvvXq09uFcIKVYKyl3M7EhC3ZY330DMqFjSi9XQfJUxUuuznLVhm8U1Jc7GLC6DFEYdzmkW1YmPv++7OlKDT1VT1z5s713f+ffvppF5hXrlxh99//Py73DRo0yKeRFkluwwzCdja/ffg39sSfnrRnn/2HvfCv512OqpTgzqCCYgUhH5gccmrLwAI2GK99TYFgTEw3PExOnjjRTTQs1kHmxKsEKsdyPPYUGDRwkDsxBlsbsnE4u01M74FQDHZEgGZCsOYqg3ocwyLpnIZIddx7QjA6CvbFM8wObPiJwMzIGztObKdXbyGJZKfGRxy50IoCqwtTL2HqIQj6dDYIAWnVjaOIUlm5zx59+BF36e2j/Pj+9i/cbmvXr7ef/+Ln6oDVli+hn+/RsMgPSgKbC4jmtdURCHVshlugdWZ0w8J2q27EikdAL9lTLAXhShs0eLDncettt9psKS+f//xMe+WVV+zqK6/RQCFc5kG7+557bMXy5XbrzbfZciHGQCHj5MlT7MOPFghRy93kwIJZPERhx6yWZt6R+GewPzqM7YqBB14ZsEbmOEsl+GMaYQBPmDDBLrjwAlcSYMHUnI0UcGC89LIr/MBViNhebDAvSDicQgxc55Y+AEEM2u1USw+wUbHcL0PcZchJJ1nXbt2EbDkuZ/bp3dM9KDA5QeEnTBjt8iUDBgs+fcb3aI7NRKWcWgmh4GKsj/C6g9mC71EEA5gUDhWJKd4jJSOZ7+glDHYjm1ITIdH69WucXw8fOUoFpnhE4h27drmDHgBA+3GLvxKjX3DwvF3lBkH0F2Qv1OsQhhvye/fddzub+u6DD1rerp0SfO9UR/T0xQ4sdMCTlMY6pVJ9kZWC4yJ1DvmFskA8AUek3t/VE6gvSgbvgo/uv4WsIuAiH2EaWbN6jSNgiTRTqAJL8PJ25Hkch00bN0ur3e1Gy23btnus1S25W/w9lpD5Zu7KG02X9kDJCWTcvkN7u+D8C+2GG250uXG7tDi8d2GFUyZPFmKWAQ1ji0QW8vbr31/U7i3fTGLWrC/YlCmTbcoZZ6ivmgrxXvWlbn/+058lmOOPX+8CPFoyCAVrA864DkHRWrRicwaC0KX5RhR4Cp8743ynQo0Eo5yuna2/KPKIYUPE8jf5yqLRo4ZbdyE/FLpJsxZu9G3enD3XWzvFCm7aGF+DhukarICKHOsY4j90NEQuZ1mJ+/yOBz5Orv6qU5gKgd/jrDdMwiwrgFJSUy1v21Y7uL/K9hInX99kJ5blM9Xieerb5qoYITXdN0y/nYqBIFLvD4v3w4raSdOpqKq0rTu2W2rbNGlreyxTGmKHzEwJ1oR4DPX1jaCklerkZ6gWbBxbMW4morNSVkVRdXVQ9eENVUQjO0ymh3lWvB9SbM2a9badKDPSoJYsWuzTMUTegQovWbLE1q1Za5s3bBRle9/lrfmiWMzjrRerXbpkqctrDknlzSBRcQ50ElpvVodOQpx9glmKTxnhelNSUuoeumMl1EPR2hIVW3UnXAI7BEOZoUwbN20Tiy0QC+9gO/N327vvz3F2jEsT8pVzA5WnoaT2QCAkhAtxGunbFpK1MJ0gxY4YPdLGjR9vV151uQ0dNFgwOmRsV412yhoAnCknn36a6q2+Uh/heMB2yyyead26rfcxm8c3E/ViF5cmTXU0EUvES5k+RZGSMvcxRh0ngUzJ55j8t9+jU0QNBEgs3xntO1rHzCyXn1JSWjip9f2y6w64PMNoLZeMA6VCxnAymsgbYZi8IOWOH3oGL8dLo4lGyc1fmGVjJpxiGzZusddee1NsV7IdhlblxQgFQV2gVUdw7STKE4iHYVj5+hEmr6EooV3B+AjGxQGFQkCeyIrMP0JdWReALMR3vIvNBw2Zth+QQA/1hkqAVJgVQj3UHg0UO6Tu1pniOnTIcoXnz3/+k73x5uuuybWR1o1Xxpw5H9ibb77pVBM5lHJ6ipq0ZdcTsSpEEDZ9YO513YYN1l9y0fjxJ4u1Y57BRR0khpqr/jRNA8b3Rkf+VH3QullZ30asllisrLuEGrZLV9+lt7MJQjjinsEWS8tK3eMEmx5ReFi6hsaMcRnWGNigBq0GDiIS4g2wA5b0icOUGjUU8pOvveMSv5Pve/K+waCG3aqp1H8iJld7vHjYUXHRbtuvii78aJH4cwoZiBKUiA0Flxg6k8rVqzPIx63AyhMbGvYtRnzTFi1ty/bttnTFclu1br2tEuX4cP58t0KzQcD7oiDIKY6c+gOAqM3U1dmtqgz1RMOhfCgtbBEko/OdYntHQIlFLnTPA/0eCV6nUEKiXjOKqStKQBwUIKcD0b8/IiAD1GCvOyAWG5Q4ZazftIXvWQSC42WOFJRHH3vUXn75JV8vyXwnbjOvv/aqbZB8WSIZLFMyWmvBEvdl4PH88/90FyFY25YtW+zv//i7WG7w7IC65m7OFdzDgAeWsEbKJCYYFnjYP7JSSylaTBXhNDBQChQWfMwYO3fs9IGB3axd+7airoJ97mbXcgkKM0myZRPsYKCyhHeQNiIVgj7pKK4IrpRPOkbI98oBdCUA5R8f5zjciI+FXIxWVQhviY8+nO+emPiTY3vaLfmLOAcsWWNzhOKiPc6jccbDyzNYmEXJdHAGGBg3mXpR0a5xwSI7SyaADGOvQour1vf9pEgsXLDAF2WAKHhoNmoKJVW9GBTeAMkgnPULHCDPg8rTqZQjJdSFAZRAFnUiiMKLPKNdABskIroz9wib7oik75F33H8faqWDOVbODEoEbEd8tQuEtSNQS6rGXGKKKFaq14qwTWzKxRzgvoq9ki27e3C77M5Z7gZONJ9HHnnYtgmuIMBqaYnsI7BJch6DdOWa1S4PFhbskmzEgIIlHhb1CwgGdYVyIfsCAyz5eOriar5RFBAFhV3lMO6yAow+rFRd4Aw7dub5inKC4A0cPFBa7FB33iSkp0vlwJG2CR+OHmqz2w99sCZgmYxgpMA2eD8gW/LvmCKrUXZ+xd46H3wwRyT+XTdXrBO1yReCbRRysYuEL+ESC8FfnJHEd0EwT5TDiANRhVxEzGnXXqQ5rY399Gc/lfZ2vRtCp0yZZKNHDLeunTLt3HOmS+YptuXLlzm7Q3iFugShHeRQ7XQd6kpSiTReV8gjfqEnuiWkQ31HThHr08vYdnCJYR0kfmSsvWwvrQ2EwHKfJRkSikLQFcIopbRq4Z05RJQJjRQbEcL9QcmHR5SvShQchczEj9K5qmqf5e3cbv3795Pi8h3LE4WGKgMfhOVvfO0rViK2uTMvz1fE45JUWhrMMVDAe774Rbv+xs+7I+XkyZNs6pln+OT6uedOd4Nz2LcJhYIFxnSy/jkswtwnQO+Q0d4JAUrM2rVr3AgM+8VZcs2aVbZ86VIpZgV+H/OKG6N79BSLTLfGkvegUOQTcYPkMNcBgseBxu9PIFjDBAIkIxcpuvBwF/YDif1g9nv2xquv+GhheRiLUfdxVNVYpUYMm37SYAoN+SGHJZQH/URj+v73f2C33n6bXX7FFc7vJ5wywd1SCvN32kHJQvvEhn0ZlzoLaoUPGBFirr72GpcJWESK0kA5JGeTgjBDgf+RoaBUdABzdo1EiTtIoxs8dJB16tzJXX9qaqo8puqds+4QYrXzecozp5zm29csEiu6QB151tSpvkz/zCmn2/hx46UFbvfYEewEty1vm085IeOM0IAYM3q4zsOsb/++kpfG2ejRo3yulDWRHdt3ELuqFTVeaKyAUqNcFpr9/vtuksBwjR3u4ksvsQsunOEOlD/+yU88lDtDuw2GUcEgQzJUmuC3Qcgyfswou/Kaq+zUiRN9hqGwcLc4TFgh5OKBqAumEGQ8jKWVEmOYiywQsiHCYCJBi+UokpiDnZDNGU49dZJEnVYCatD6SU4lE33qiKUjUM5w5ghvJqWIUA2P5IQW2egwWKzORJD0u1LvpYbXaBQjexWrYTt3FTgyIgcxXwl1YS6RjRh81YtIOEhGxXr06i3V+0xbumyF5JPfu1U6Q1rn9m25Vpy/y9avXm6F0iSrK8okl+yzxofrfWPSjA7plpaeZqPHjlVZAruOptJeWrdsbS0h5xKwocSQfXzgH330YfvaV75qp516qs28/vP22OOPutv0XXfOsquvudI3Up0z9z0hwHpf+CAmYCnSoDLRfvUHO+vWtYtT4Aljx9nIYcOFyE2sfE+Zy1HEIevaJduGC6lOnTTRpgvxxowf47ardhltbeCg/talU2fB4ogtlYbKgLzlphvtW/d+0y793MWSY2vsHH1z4y03Wqs2re36m693cwIRuNlbG4rJfpm1oqCHRdXSxL6bSWbM7tRe1L29Brv6R0g0fNgwu3DGDNcYD4p1ItvC7rH17d1bIaUEz1TMDk39d942wjZtcTGE1VOsaK8sr5JGi0erVAfMGM7REEOERCoDIzIyHtT6oChmnQYJQVaY86RdLpI4biSliJENj+QU5pqEILrP4SK2kIUJUp4hY9BReEvihAiVaCu1N27fB5tybZFxqHO9Dt/YU9+++9679qooIZ4JuMfMnT1HI2yrqFiBjnw1XAAoLLR1Gq3EudoooRjrtyrpyoYjrJCaMtD03DXmsAaImnDNNTPdZnTxxZfY+edf6GsdW7VK9QjVH87/0Pcvysnp7nOY86RI5O/c4XntFVLvLipUJ7GX9j5d73ZDa5HYBx61KAS7Cnb6SmuoAtbv9Rs3+XaG2yQjbZRQnrt1i8SID8R68u3c6WfZ6JEj7a233w7WfFHJ11973ZYsXGILpBQh+/z+j3+yuXPnCQYt7Rf/5//Yd7/3fVu+bLk9/9w/bcfWbb6Be/meUiFBuVvvq8QtMLVAFREZiLaIy7mvZdAfU2lQFCg8chZUlOkjTEL0LyyatnId9zKgh5h7JVoPigqsH7egsPSuTmyYUBAsfMatiX3TCRqj/IQj5MPAdgSLSMTxmZLnIA3BhVjJUjRAyMF8WPecbk6CwXY2zKQhIFZrkXw0F4yAVByBnjOMFhcbRkilZBwE1SmTT7NB/frYyy++JHlgsfu448yH896+veW2bvVaeLN1aNfep3FWrlghtlzkrr0AAM5IR9eLypGfC+xCNBbjvvP2ex7sd7ZYOlGe//7cc7ZFne8xG0T9MKf07tnbtxwmujTCQLUAWCj5hJgYe0WdV65eo3cP2U7JKbsK86ERVr6v3F1oDqpMlKD9AvzGzZttd4nEhYoKl2dYlUTEQALgoUnmizIjgxFqYfWq1Ro06905cc7c+bZowWL3lMCzFvMOrAuj64a160T5Fvp20hulga5bs942bdyibzdauRB7rTRtDKQFEvxLJVJIN3GFA0IAYjDf2KIVLBPljJmUQ269Z3dbBjju6Mxz0ncMUuxexPhnbyVkVUIMIL+F4HggVk1CtkP0oazgXRus+qKQDWWwZHbYkDWCgH5PB2eolfpEZ4L3b7GRw4fb0qVLfOphyplT3S6Wl7fDA/pjYEQmwrYVHPaEVKqIul8k+IioXZZY5GTbvGG9jRwy2PaIvS7WKDwiRGHFy8gRI6w9k+UaWficZYsNIbe1SU/3+Ko9JYRCyRg1IBd1jW7ZLncJydgSkN3YFi9ZaLtFDfdJiM8XRdkqray4sEij+bB10TvITp2zsoTDbM4u7a5XDw2Q1tYtu5tdceUVNlHsFQMwyhKrgyoqy6xbt65GRO1MUW0s3AwwggizAwrUNl+UrKqyXNpgnjp+j3tVrBWy+IajEjnQrGtFFaAi2J18czGxW6bJXn/jTRvQv7+z4AkTxtqWTRtslxQFNFhYP0bbVUJQBqoL9+oQQn/uEauD8jMlxTMSiISPf9wuGj+5rtnZvqY0yHZHJJeVW5YUHSgz4g4LcPv07iNqRWxZUTghFJxHiODwBpGYh3Sk0iBHvsOyD9HwIMDJ6XhU7ChixWtlyhl2F91s+gsJ3nztZbt91p0SmLOF5eLHItn9Bw1yoyAGRVXHEcxtXsrPHdQQ5ZDFlCf7HDXVSGgphGgq6SE7q70Lu3USNJd/tNBJNP5dA/v0cQCBPM3UIdWiHsXFhT7CGE2spYSkK3sqHOp68LDdeuutdsrE8U5FoHgMDJSPV15+xVatXCu54bBrwLtFlfr1zrGhQwbZ3XfNkgC+3xZIwC/ZW2bLVqyy7TsKbc3aDRJ8T1On9LDOXTsZy+6XL19h69avFZVoY0Wi3LDKDIkGN990k9VVV0gGEhVRpaDoBw5g7yPIHrJREBVIUWliQDB4q2pgQ3V28vjx1kPcAfgckGbbIiED+p6SjZvayy+/LKQqU717S+PrbsVCrvdFCeEyzJg0aiw6K4qEosM6SY1Ta9eujTsg9JFGO/WssyXzpnnbCTr34j//bl07Z9kmydRNVT88c1u0SkMndlMElgNsgsiiaNVuE1RZcAq/TiRnkZ+W6BzvoAQAwu+gMYCKCHNB5jliI0aPNlZVNwZzsbcIOFAvPE7ZyIoYVsIyN0e42UANFbyc/bVUhSEJJ4+f4HG0hEmWJg1SUps1VhkH0frYCEBIeFgjvbm+x/RzpL7Wxo4cYZski7krijoQ5GJEYVjExuZzkiqLHUhoPLtnYHro2D5dHdXIunXu7BGoWVo3cGA/e+iXP7frb5jpfvJMQOPPjw0Ke97yFatt0eJlViHteOGSpaJkHW3cuJNtkLQ95grvvPNOGz58mMOIcAeXXXapnX32WTZC98ZIGxs7eoQjLlNBgqooGPBEw4MjBK9eEp0GoqHVwuYqysQiNSjKRHG7S0vtBTXO3Wy56zfYZrU9p0sXCfqdrInaf1hsvpm+wb8eKoRYQvvhIAzAelE0KCjzlVjmcSci9EPfvv2F/M1s2vRpzk2YhSFUg9BRdTzotj42hm8pttlCygbzmrDbZi2FbJKXCZDsHhyCMQQjweVCRzdMEbFIPI/XnnQZ7iE4igUdaeLzZTk5va1VWjsJlxnuOXAQxNALWKS7d+tmaTpjVT6KrDqCa8kht+Gwjm/GRRc5nydiTDP4uhA32JbUSFWTqZfmTUSCMXFI3mkkqvatb35N2muFv6shJi23qbSaRJA5aZRormg8PslOO6SRNUFWU7mpIKFYYVspJmwXOOWMSWLXHST7sJi2qeTKtt5J2PLWrV7ve4i/++7btkyiwLtvv2VbxNLbiFWzgmpX3nZRlbHWR51VI6G7qYpiSVidZBUGlirhR7OmjZ0q+UDVfVgim00BFigAsMBAysBAfmMjB6hL1d4S219Rboc0aKuxjYk17i0ptj0S+PeVlVpzvd9Sx96iIusuhMuQzHvA3chF1ZGVNSiRNZl9wfuBhGMkE9aE3twkmRHD7Qv/fN769+lrxJltmyZZTHVFo2eaCVEBeRpLfwtp6c2btnRqhg0PWe8oYunsh5dygnQMUiUlhxV/yohRhhwwZPBJbiRNz+ggzbGLKt3C/YlYvAklYWcNBEYXCJVAPDAMng4wfW4LUwaVVL5NwCYArkpWqYElQtgC4owJIPuEfPuFWDF2PFZ1LN+HlTcjn2kfkJs6Ql1BTgKjINRiazoC1VVv8pwdc5urDQX5khUlpDcTuaCDU6Q5hYlqPHab2Z1f+IJ9//vfsV/85Ef2w+8/YN/+n6/Zffd+xbp06mjszI97ywHBAReX/B071KYDGv0tRJQxBCP0hukTL1ftA6mDZwf1UFOBB+yHZ2ozCas/gVVOGjbMo0gfkRzVUtShhQYpQV6Y+wQJaTNIy7I1RtjBQ3UeygGZ2J0DVZd61QN2wUR20BYDFwKrMQizLmCxKHK3rjlOBEqlobJ8jSDJ9AuGbygYSEOf8w519cp/SvrUhbc8I5Pkd/iNnEAlqaDonJsU2LkLX3ju49uEyloqso43KghEpDwixCgz7/zAp0FS5DkQlTk/+DiCv5BMo4J54h2Fuy1f+RZXVtlu5ZWvkVqiUVyr/N3PX0jglnwhHcPF2Y46D2ByFvPW+aCxMwYLaCmfcolZhsyA6wpxvloRXDdLgyNTwr3usc6TA8Ef9yBCsE8YN9rGjB5mp5w81qZMmminnjJO76SqM5u71sl+l7A+zDRQ4QOiiCC0ezmoLJ9agyVCsXTwjAFFH3mAEdWWX3QicHUkUPsYhMiiKDW8S171akdpRaUVlVVo8FVI3kXGYv2DZDohGloug8qDzzkSBNmZeU/6kzrhacESt/3SCosLCyXfIa40sYED+kuW3KD6hj72IaAyCdmAvxfZYQ6K1Co5kXc8eOYsMjnF33ycnJJ/Jz5UJmoQI09AWuvzYttt88YNVlpSYhnS7thHCC2E6YtVK1Z6jHamWDDMNQOZqEQiT7dXUbYO1GP2KFqfu83qGjW1/cKcagGwWogqxmKVIvvshc1EeZxvw4MSQHrjlB+AAcnpKrYYLCpiAwdkifCM0c+5RlSHtYn33XevffPrX7GeOd2tunyfR4Rmorsp7QSJ1f7mAJTK6js0uOYaJIQwh5VCRRjtxHI4/fTT7PHHHrann/qzdc3qaOV79nhbMS5zps4+96oBwoqrOlEZ3/1WmZNP8OYIgxptG4M2Mq0qbQeFMJWSQdcS+6Ok1IoqqmxH0R5buznXtksTPqx34Bg+PSRkI3m0RGWO9we73aWl4baDvCouUIfhtdwai1ezaHjB/PlucGWj1H3qvxrB2re0of+BhWcLoKkvNrZQX2FEuK8UEYx0FGsaIlrDFD8gcQ2LA8lEHvxb7F0fzJ3jYYlee+Ule/etN2ztimVWLhmhtLjYySrIiPZHx/INn5MPQiijPVAeyXTq2FLJVDl9+9gRAYT9HH1NLKNHiCECI0TFFiPBH0SFCgiwUbuNbWmuTjsiILJWkjBOsELkEApGmyIUEyNdWQoNhdQYDNl8nboIGaPs56wNasOoFRiCrBfggSbFfSrOICR8ktvg1Km4+NBWjLIgKSDEjQdtlyoOHzrIxo46SZRTclote1OyToAFMQl7kuqLsuJ8Qp2JHEXbdxUVWyuJHo2aCZFEVVqmpltzHVCy3LydouyHPf7qQbWNWsIdHObASfmGEFIB+eAwuVs2Wd0BiR4SMyAUb7/ztlUIcZk6wgDOJlq4lLsDIXkk4HtsOt69BIJFjGv4oZPqxH3OVDIiB4CFhId8WYFd4/7irApmTmztyhWuxRCZD6SKS6Z4nZ1nQU6uVYQAwO5jNRr9sI2AZAAVqpRfWKAy1f2Sr0InUVexaY0cdizjN/INdheMhnRMrDOrt/sLSa+75ko764wpTtE8b9qCh8PhMNFN/tjkonMe85wYJZFdGADsSwnC+HWiLrGOdCBn2EidKAROkJgDkFtA2kaqG+waREVZYDAoE7fv9RPrHT54oF135efsogvPUZ2D+OCEJwFzp2AqRD9dS8P80Cwl1WokP2Ay8A1KRTnqRUWapaTZ3nJWNLFAJvSTGz0pUyMD5KL/MC0gHzPNw4qiQgzAWzYIoQpcjiwtZg1BqeVt36k6aKCqXPKkrQH+XH22dFQGi0gU04kyCaxSiCZECEu7HH4uq1SrcUxh4AK8c8cuyWUE/5W8xNwUeKNRiNZIhzLKnZooMVKZI3NIClBQDARr/NX9Hd2mkcErAdsZO+KyiJSQ4xrx6hCWoqlfvQyvo8rAWe6ySy4W28u2zp3b6z6IFygRebonqIAdlrGhjjdxmxdCPshEbDD813AWhA0jiIMoof8FL1EKp0h6h4HBYPLIOboHIoLwIbS5EEq/GVK47wRWKaSVwA2FrZJyccbpp9iUyZPcm1UY4R1LO1BcQHb/re/wFUvPaO9UqolkP9jmESEx8mpLyVctWgfFgG9UuJAQUFC2KL3q4PeFkEyRASvdcvNL+d4KN8oS2JgQnAW7ClSXetcygRUypbdBeaHBBzzQI/JO4A5nDlI8h7capPgwpk8iG7/JNPGuKApx2/GbItQQdi3ca1NaY8hLs/YdOvqaQ1gfHeQ+5/osajNQNhKshEwJUcQeOc4mkFVQ6dVp+GdB+fiOFPZJDKwJPyfkAADJqhiQYfyYMS7oprcVMJ0VJhqvMhj5CPjMwYU8GZmqj75DK4Yi0zZfQAFiqWNcq9QfCgowcbgoS75304LeowTMMtSJNpK49rlb/UFFeZfOYmNQlAsNG6sRhTh76hke44MBwByiPlH+2BiBUyjL7Xhpacqb/FWuEBR56oDOLMBAWWBQIuzDIIFV6CO1WdkdOgDsWLNI+CvYL2E5D/lq9RoRAga/B1amjnpGf9Fm5pPJ9yjnSqSGuNIwfQLBIuCSP/TGJSV3w/VPQTLIBgUesoz26ZbRIUPaToq1TW/nvPuwoITwjWyBmQIrPrJBaDMgUMdLcPV5Lo1+oEqHIJf5qmzMHRqhGFWhl00AnN6r34/drau+5RMC9qZ6RzsQhYycAQohuYmzxXpGBGsfheoc14ZUDh1GJ7hGRV2EhNTHAanfGgZ+BPklDCreh5XBTikLs0hAqDCCneoqsfgF+5Dww7/jHa5ZvQ4dZCVPm/TgBIDyk6WBiCerilc9MWDrTJl8pISWja8cO+qK+Pg7mFVggakEiRNXCMqGKBvUU6zFkV9I3VTvUL4bWnVQTx8o+kuRdtqxUydr1yHTsrp09ZkYVplDeYkI1FYabLBfigKCClBgr8/HlOxESeV/TNZi4ndDJOM6ZpacKfKPirUOHTM8mjOrfSaeGtbZDRg82JGsTiOMVThoWwQEgVogIzvi6nDZzkdaIl/9htg0E+K0aibgoaUJGRsrnyNCrrQWzWz4oAHWln2RhJhRCIdXw5YAKL+hGiAAgAQZglxEo9FYRR1BLt2nHmGlTFh5Q/toL996dcibs+oVpkewtdGBgWVDQTxfyqMuaJ3KBz8sjJDcZ9RHATl4oegDtZHfGELR9GCdeKRQDnDhfQYF1BhEgZJ3zsyyA/trpfUddpMCFntHMuVfW7VPiEbopVb+jXrRy2EBc+hPzihI+yTci41qkBD6nL0DLrvyKpt4+iRfFTZ4yCBf5EvkIHoXg/UBsUvGGi4+sZ/IM+JJ8pGMJx9jyqek+GFMyRkHA2Eg90OGDbPrrp9po8aOdf8snPR69+klypZh++ukpWjk+fQNo1INZfcun5dUorNdnhLVCCK8Ro86s0vHdtYpPc0yhExthQQ9O2XZQJZ+tRHbU6fwDSOcVcTK1uVC5iwpAxZw0DuWnW17OhsHE4SGQoDQ6QQmmT/vA6dwuANTL953uUk/4mj3QSDEIcWzI4Z3ZKB4lAl7o42w1k2bN3nIAsJv8pw8yBvKCXKlpaYacTNUpOfhg8z/VAfBA2GchPUdRCNmBQbotuIEqULEiuJCdzg8DOWX/NeqWRPBJc3NKz75rG/IC/jQfb5UTf0U6n3Qfe35nd012wkDy+Z69+5hl1x8kQ0ZMtAyMni/tculiB0gueMBLIl8k/AgJn6T4r3PhGCfTAKw2CIAc2DpN8vPifDcRMBtnRYWfsCaINsYI/v07W3ZXTr76GfWPVSMvAK1hIVC3dDgcAFBZmJ0ttTRUY3smd3ZenYVGZfM0kQIdFjsk55BoK6tq/d5RJzqvJNVJ+XuskTnrC6GD3q+BNggZ0F5kGUaO8Kzkntv+T6fmIadsaYRLRXQBIUBG4ZGoq5RRiJSUWcogPegEp0I+4WVkAhnRVSg9evX285dO8TysXsxQZ/4QHWsEUWqrtvvCgUUHRcYN+OojlBfh6zyVcaOZHQdCzaY9srSoB0z7CTLZClg2zTLzsywblkdrZWoMIqDUz9ROFhmpCTAOE3v0v50YojoW5AMmbCktESUkGV9apJePv+8c/QsU0Xjys0ACoTABxr9/28SCAaMjkGwZEwkNcTGmOg8sJj7Tu6d3TSV3IUvfVufMiI4GsJrqpCtf/++NnTwIJ/kxl/Lq3rkoEYpjQnsCCtx67Q2xtbEQhF1qO6rISCaPvL5sEPqNBaWgoTIHVjGWXn07uzZ1i4jU3kxNZ6onzLfnCvqISRjY63S8nJjH0UV5kjmFEf8g/V++KND+Yg4CIRpNwOEgQOPiWwPWctXIyX+fLpEyHdEGq2YuL8e5SU8HFhhBauMk+4gK2wXqLoZTZ3GHCc0C2q2W4OAFeExYfcCAYigDXoBDyrYXL3WQuJDEyF4x7RW1lkKVFsNTo4mahtiQwjtpHJUH67VEPes8HxEHJiA/+nPfmK33HartW3XxjcKK9tbwhfGhljMfw4ZNDBwFcHAffUEc8cJMk5KEU+Ol45BsIaJjvcR1CAFIh4oBdcaYBqF6gAVhO0KeYZO6aIRNaBfH/dhJ/YWQegwcGIPQqsEqFAcPArQMJevXm3vvjdHiJbulusmUDU8KiTnoUFyhnVgD6rjd8sUIVCdrVi5xnYXlSqv4CrCmX2vy0Wh/vXyS45gBF7xhSaJP9Y8wv6IYZa7Ndet2VAVH3WqEwdtx1vEk2DoO9zqzLe0v6kQBqNrMEEIlFwLDmheHGwSwWJdWJvLLQxK/bEZKsbP3UV79N4RF6oxmbz5zjuO7HQLGm5B4W7lUefTUFX7yoXQGFvpYFyR8SrZL0RrZM0bHbIWGqxQGtg+CkxpeYWtXbveqa5TYokjDJCWetZSMN0ghBo4cICdc850u+LKS2306OFC5B7WubOUDOXFvCyKE0H8yJP1Ct7zwolPEJzjIFi896kIRmqYGYmP432QDAfC7t17aoQ0sZrKKp8iYgUOiw46d+7isVBZPMBCC5dpEn841RHxBnmhbE+ZPfH4E7Zo4WJpoW09JjxB62oIuKG6tkpl38KWlpLaymqPSPYSkGqhLKIchUUltmzxsrD9r/JlkraFAMlCipWr1tg7773vzo84w3mzVXUoFKwTbwVkFswTImJ6DosMZ2Qi3gdZXFNOaMtQAMgVWibsDEpcf1iCvkY6f3zNIKqtrbZtW7eqjEqxb0wKel9lIyIgUrDSPZU9wvN22rN/f842b90mLGHaKczLsvPZ35991l575VVbsniJyg0DQPRcxQtJsbEdSvi/C5aqrmrVWFwjXZQnxXbs2OWLoBEdoD5Y46FoHaWQle0psQXz53kEykH9+tt506e5yw+KA+5JeFbsLa8U7IXALVPFUjMcHsDODyUnMMIDZ8GJo2E6oUdr8jlexwRyIPAxbr3D1GhMECBacVGh/2ZrF7Y46dmrt0fc+euzf1cFw+iFdThyqeNgH5gT8O8mzjw2MRznysQqZn3xizZ8+HA7oPdwEWkjqpcq2SGVqM6tUm3h0hWWtyvfNm7e6psTEJQEKzpUkQl3PDlhh2WiTqdPnmJDh49Uh4iySNbJl1xEQF9axlQS3h5MWmNEhPq68B7bDsKpTQ5AKJHuQRncfgelC0Dx/0AMIiTSnnbSxIhR27/fAF/2VVparE/pbPPB869/vSrqudP994kuvV+Dr420uhS1lRj8KAx4jGDNxzMDl6K9oizMf6KopMISRW6Y+gGm5VVqsyhfu45ZdkiDfYEGHRENhWWqtpQM+knvNpUygLsQFApzRFrrFCtRv5VLDqutrnJvje25W33a6+zp59ppk8+0Nhkd1TYpUigeyicZPxqmo3BT+rfL1o6XQC4HugDqLFRAp6FoTrAEXIL3Ve/zRRA4HD7z12cl8C5yIPIbhCPiDtZ7EAG2QNBbDLDs/LVj105rIe3qkksutbnz5tnGTRtFpYotf/duId4+dY4ogpD1tbffsW0a/fs0Com5wKQxeRIshc7HcEu9EKJHjx5rY8aNU30PuhKxZvUq37mNd9oJYRkqVaozoTGxx0XRAIrrjVWTXchHwdBIBtmcvukf71IOHcgiCbaXga2gobVJy/DVSWxDg49ZVZWUCVGJ6v31GnT/EGWnvgftgPJg0PXq3ceuve56a5/RXvAMlnvKK95d5AFkJp8xWdr5RFH+eh8U2K5at5Gg37mrzun2/twP3AOFuBWFu/eoffSP808feL66SNcYktm9hOCBiDSYRzwGm5AZ1519ldV29XXX2ehxJ0t8QVzBf0xUSjD4LOkoAtZ8xhCayXwW24pyEGB1drIoki25AJNFjTqptKTIFzjALrbn5dvesn16HcpwWKO7Tu82smYtm7rWhNUctsaUDGp0TV2NOqjYo9CMHT3S2KS8UqOWne/r9Ywi8fkuEkstUkcyD8eopS50MAmkoNORjcT7XAGZcvoUu+/b9wnZDljhzjwr2EkM1cBeNqxbo68aSV3vau07dAh18pEa8oozACBVwxELpUMhwWWJdpEPiMICW3ecFHdFTBgxZoStW7PGaqr2Ktt6UaL99p3vPiSEFS2CKioBL6jpySdPtJLCYsFuq7s8eZv1Tksh3KgRw6xTpuqo/A+p/lAmgrkggjAhvn7DZqd4BI5z12h9jAZKf4H0XgoDQb85enbvZsOGD3MtH8M23iCdMzNt5OjRGmydVbaoMrIrh+enbzWYkvEhOcX7/xWCcRwFMF/pOnys/6m8DqzLuIFE1xjhlDoYYyOVCgIy2hfyykFBnw7CXpPISA3Sn/LxYtQYEAK5Fjx2tuzPACrvwZLQHCk/dBL1Y5rEC+MQorEXONS2U+dM3TtoBTu2uQdsquQ6tL7Vq1Y4srcTxfH4FroXhXJkNQR+DLUUE6mX11llgVxMjQEbvuOMkN2pU6bH58jbvkvsvZX17d/HWT8rxdlprUOnbLGdLrpWfphH9B0zCF6uqh8WZQRqwzghPAPhldAQg5cIsGM+FxkrsHPmeYOyBSwYDFIF6ADV3z0q0DBdQQnsHtujHrk4A7hhyZhHwjaMGKVRqiQPOkIF2ILQEYk+LfGOD8j/BMGgCnyUnCLCeaFqACgH0gClYE/ijs5qbHLFuOZb8kzOwxuRuE8K56DZAXB2l8BZ0CmUniDEQlGhViAxiO1AoJcoWQAWGuheM1cUQLDtWzZZrTRMpk/oHCbo69TpyGBwE+8cC56xIIv7vak8DhKiAKM41BtKEEY01A52zP226W2sTuwalxd2UWN7GuqMeaVa97vm9LF+Q0ZI8Bbl1/fkjUW+IVz8WmW4OYj26IyAH6gpGmswuWBGod266RSR6Tz95zAi8T6DAWWG90LdgZtgSveQN/cSZVKPI55feDcesX4nSvEd6v8fIZhTmk8hjUczVAHsxxOSKiKEiJUjxe/5fRD+kUixYuG9cPA7HCBseMfvq5+5RqaIz1WyX/v0UAJYnqdGOpSPTnLqJLayfvVKO3Sg1k0faHt4w7ItMYPCKS2dqw6CcjDy2SHOUUvFY8eiGm7yoAz9gXDIRLQsGHNRelr7lE7N/irlEYR/YNgypbVVCcF69ulvvfoNltyor1RnNEz3slDi+1j/5MT9cOFV8d8MJJeJw+3QZn8arpOTlE6vH+/zzKlxoszkFExHIKzySuRB3ybX62hdGqSGzz6Z+79J3qikIzaCCpA8c3VOoyOQ3zDK47tOdRJnUkTIeMQU8uIb3ldDBQQ6yMEKwqrhEbn8W0y3KvYooBP3SVA+RiyAZRsZ7rdIaaGRf9CVgjqQR2WwnI5V1FCspk1buF3Kp7GUDYI7BlOQjY0cYpBb1hHEFTsB4UBzRAIhk+QgvvcpG1FZmsTiisOCTX39YclWe/29mJxd6aV4kCJc4uHwEhwwKCtTNw7zWwX54ddJFCc5+W8d7tWhMzAK+cX8E+8kUqSGySl+x3Gi1PD5fyXkN0QQRmaoZDjc4p0AtnupJhLPSHzvWlciH1KsWHKepPBNADjJBXfdinmR0Axhk3FkIp9x9gO5Qx+gcqPhEp/rQF215e/YbqXFu529wHJIwfuAQcFo1Q3qI3kHkhlmLIJ5IlJefjviUx+qpc7CGRGvA4yb5NG4MSwpzALsq6i2Xn0H2X5RwQWLFtl5518oZSfF3w8pqZ2J8j6RKC+RoMCxX3g3GYbJ92NyT9wGiefxW/8dB67+NJadKsYU3z1Ris9iXqSPW/RfptggryQyAZ1Fn+ia7eMQ5h36SieqHN/HPEjhBIkO34FA8TjUCIQBsDpLNnLk0BHLw5Dp3wAgnRGeyRCkwLCJnAQlIgQ4Xq0sikA4R/0mfCZbBNLp7FGEMTeEiNSzVpLfhIy42hBLA9scNamR1lV74KDtF8ViO2Jn1hKMCS+JGwzXjaTkNGveyjI6ZLqzYHZOd+vYsZPtys8XIUI2On5HAA8/BAc/9B5IFQ9gDxwYGMEIHI8TIGfMT4fDHAqoa+UU3IIYIMqTHBzKSYhCorxkohCTI+TxylP6ryhYaFhArPibAnQXCLiMpAt/xm81w3/H7/w2DUtUFmpGinKecpQcJ8BxpdcTn3jyCNf6o1M8L3+u/7y4ADDXIv0dlUk+XlYcCGJHGBr3V9rSxYtcfnJNUKyO+qCFUWDca5ERDWL79JDyYJl8sI0FOQyEc6qqxPeYamiH5wkLFXsMbZLgLwTv2bu/HdZ32AKpD+sMaY9TbH0TU4QpiVOEW6KhicS98J6LAdRdifxIDpYAKP8d+iGRuExkCaWKZXmOR8sKKfZzcorvJyfuNfz2KIIlN+h4KX4YMwGYXFO4AzRRCe7xLL4fOvXjgnnGvfhOzINEPvwm8Sx+E+81TLGs5OfxXsw73iPF/LxOQh4CejD4uQtC8BraXNBIQx2R4cLcI+9wCBkok7/ENZ0VEFhlqwxvh94Xs/VOR74iL5adsQPKYbE5tD9SmCv8ZMfEdsWjYTuT3+d+rC8pQfg9OctLDIDjJUfApMSbtIE8IwzjkZzi83+XPjOCJaeIUMnfJFcmNjRex/uk+B7343XMiyO+81nSifKP5+RyKCPKT/xGYwOQyXXlPqOZ9kWqGhOIGBOKh+7om4AIJBDUqW6iHjx3j4ZE/fjtCMi1ztyLZcYzKf4m32S4xPdjiu+T4v34HYjdMPEs+ZuYGiKYs8XEu/EbzvGI6UT5NUyfmUXGRKYNC09O/G7YafGaFL9Jfie+x5E8EuO3yalhnrx7vDw4x+fxOr5Dgl0AXP4i5QwjN1AjUviGenCtb5QvP2IeuqtvEu3Q31EtNtxw6oUGiWkD5HLlR3kg+5BHrFfDFPOP9eXwspNSfIcU6hkOH/xem5CSv1VOfj6a9PN4FMyPpPxJ5J1ch1i3eE1q+A3p2FqfIPFhw45KTvF3ckHxvXjEFK+pLEf8zTk2IPlePB/v3vEaRIr3G9aDFM9QEWdnIAjXAqsLvfoUF2NqEg7Vyz8Ioxt0cuc/HXyjDB1pPA9l7UpGIm/OzkI9f7FMyW/0fKzf0bokpfgMWCRfN0zJbSJxHduri2PK4Nqf8Zf4zt8j8Vp49WhKLpsU302+l5xi/g0T332y5idIMZOYUaQcMXEdnycjzv/NRFn/rvEk3ml4RCpJivdIEUk40KRcm9I1ubvannTE+581xTI/ra4xxfrEc0wn+vZE971tQnCnVElZOex0Tz32ifuxb+Ph7yauI7X/rOkzI1jDTGOBHFQgNrAh4v036T/5Pr4bzw1HO/c5Yh1jPUnJ1zE1zC9+35CVkILdLeQT8+JdOuHfpfh+8vmz5OG10Hsq2a+P1opvuU+FOGJKuvxE8uJO/AL18fySUqzjZ02fCcEohI6LlCn+jinei/c5/ycJpEymKKSYR8w3puRGxzo0fN4QCMcDVPzNs1jn5Pc4c1Avz0//XNCXfMY5Hn4/8S4p5kdKvh9T8u9YHmcvI5HidTxjII1HYNnKV89AcK4R6smV+qBB+uwF5Rxb9DHJy9XfJ+qnv+Q+TK5XJB4N63uixDsOifjyZ/no/1aKDUpGtv+kPvHdhgBLTryTDDiuP+39hs//3fsxhXfiIRAneGq07n/WRD7JMGhYNuaHyOaOmiL8FcHPDa/c4xyPY9PRvJPrdGwRx018F/spuX7HSx+Tof/HKVaa5IBNtJrR+FkS33+Wzk9OkdLEdLzvuRfvHw+Yx/sm1IWr+IxzzOeT758o8f6xZZ64Mz+mRh/n/8mqHft9aL+jZ7jhqWGZ/7vksSkikI4HrP80NQTKv8szvpv8XpjkxrKtUcKUkERtrpkuOVHeEVl4nkziSfGac2wvR0Tohik+j3nG3xzHS8e7n1RNpzJOaZLKbpjivYbP/Hei7fDAMJ8NShwro31cVz8dt4wTpWPfDQM9GYacG/ZTw2ec473kdOwQ/n+QYqWO19mx8skJA+iJGvOfpAiUmI5XFvcaIiuJ95KBmnz9cSKvyJoaHsemmMe/S/G9470bWWQ4U48THf+7FBE5uR7x+nj1+v8VwU5UyIlSfP94najuSlwdm2L+saH/m0RelHsiSsZ9tLn4XkxcJ3d2vE5+Jzmd6H5MLkt9yjvkHVMok3PiRiK53U0p/E9exzv+dwmYA5PYVgZ7hF1yHT9OZv8fldkuzbo+CXgAAAAASUVORK5CYII=;" vertex="1" parent="1">
          <mxGeometry x="170" y="220" width="48.06" height="80" as="geometry" />
        </mxCell>
      </root>
    </mxGraphModel>
  </diagram>
</mxfile>
